<svg width="255" height="240" viewBox="0 0 255 240" fill="none" xmlns="http://www.w3.org/2000/svg">
<g clip-path="url(#clip0)">
<rect width="255" height="240" fill="white"/>
<rect x="77.0938" y="5.38696" width="30.4172" height="11.2978" transform="rotate(89.7532 77.0938 5.38696)" fill="#3F796F"/>
<rect x="64.9668" y="109.2" width="30.4172" height="57.3581" transform="rotate(-89.9414 64.9668 109.2)" fill="#3F796F"/>
<rect x="65.4023" y="178.478" width="30.4172" height="187.717" transform="rotate(-89.9494 65.4023 178.478)" fill="#3F796F"/>
<path d="M219.781 171H209.801V168.9L213.385 165.277C214.446 164.19 215.139 163.438 215.465 163.021C215.79 162.598 216.025 162.208 216.168 161.85C216.311 161.492 216.383 161.12 216.383 160.736C216.383 160.163 216.223 159.737 215.904 159.457C215.592 159.177 215.172 159.037 214.645 159.037C214.091 159.037 213.554 159.164 213.033 159.418C212.512 159.672 211.969 160.033 211.402 160.502L209.762 158.559C210.465 157.96 211.048 157.536 211.51 157.289C211.972 157.042 212.477 156.853 213.023 156.723C213.57 156.586 214.182 156.518 214.859 156.518C215.751 156.518 216.539 156.68 217.223 157.006C217.906 157.331 218.437 157.787 218.814 158.373C219.192 158.959 219.381 159.63 219.381 160.385C219.381 161.042 219.264 161.661 219.029 162.24C218.801 162.813 218.443 163.402 217.955 164.008C217.473 164.613 216.62 165.476 215.396 166.596L213.561 168.324V168.461H219.781V171ZM226.148 156.537C227.516 156.537 228.616 156.85 229.449 157.475C230.289 158.093 230.709 158.93 230.709 159.984C230.709 160.714 230.507 161.365 230.104 161.938C229.7 162.504 229.049 163.012 228.15 163.461C229.218 164.034 229.983 164.633 230.445 165.258C230.914 165.876 231.148 166.557 231.148 167.299C231.148 168.471 230.689 169.415 229.771 170.131C228.854 170.84 227.646 171.195 226.148 171.195C224.586 171.195 223.359 170.863 222.467 170.199C221.575 169.535 221.129 168.594 221.129 167.377C221.129 166.563 221.344 165.84 221.773 165.209C222.21 164.577 222.906 164.021 223.863 163.539C223.049 163.025 222.464 162.475 222.105 161.889C221.747 161.303 221.568 160.661 221.568 159.965C221.568 158.943 221.992 158.116 222.838 157.484C223.684 156.853 224.788 156.537 226.148 156.537ZM223.922 167.201C223.922 167.761 224.117 168.197 224.508 168.51C224.898 168.822 225.432 168.979 226.109 168.979C226.858 168.979 227.418 168.819 227.789 168.5C228.16 168.174 228.346 167.748 228.346 167.221C228.346 166.785 228.16 166.378 227.789 166C227.424 165.616 226.829 165.209 226.002 164.779C224.615 165.417 223.922 166.225 223.922 167.201ZM226.129 158.744C225.615 158.744 225.198 158.878 224.879 159.145C224.566 159.405 224.41 159.757 224.41 160.199C224.41 160.59 224.534 160.941 224.781 161.254C225.035 161.56 225.491 161.876 226.148 162.201C226.786 161.902 227.232 161.596 227.486 161.283C227.74 160.971 227.867 160.609 227.867 160.199C227.867 159.75 227.704 159.395 227.379 159.135C227.053 158.874 226.637 158.744 226.129 158.744ZM242.555 163.861C242.555 166.355 242.145 168.201 241.324 169.398C240.51 170.596 239.254 171.195 237.555 171.195C235.908 171.195 234.664 170.577 233.824 169.34C232.991 168.103 232.574 166.277 232.574 163.861C232.574 161.342 232.981 159.486 233.795 158.295C234.609 157.097 235.862 156.498 237.555 156.498C239.202 156.498 240.445 157.123 241.285 158.373C242.132 159.623 242.555 161.452 242.555 163.861ZM235.572 163.861C235.572 165.613 235.722 166.869 236.021 167.631C236.327 168.386 236.839 168.764 237.555 168.764C238.258 168.764 238.766 168.38 239.078 167.611C239.391 166.843 239.547 165.593 239.547 163.861C239.547 162.11 239.387 160.854 239.068 160.092C238.756 159.324 238.251 158.939 237.555 158.939C236.845 158.939 236.337 159.324 236.031 160.092C235.725 160.854 235.572 162.11 235.572 163.861Z" fill="white"/>
<path d="M91.2168 101L96.5781 89.2812H89.5371V86.7422H99.7812V88.6367L94.3809 101H91.2168ZM111.129 93.8613C111.129 96.3548 110.719 98.2005 109.898 99.3984C109.085 100.596 107.828 101.195 106.129 101.195C104.482 101.195 103.238 100.577 102.398 99.3398C101.565 98.1029 101.148 96.2767 101.148 93.8613C101.148 91.3418 101.555 89.4863 102.369 88.2949C103.183 87.097 104.436 86.498 106.129 86.498C107.776 86.498 109.02 87.123 109.859 88.373C110.706 89.623 111.129 91.4525 111.129 93.8613ZM104.146 93.8613C104.146 95.6126 104.296 96.8691 104.596 97.6309C104.902 98.3861 105.413 98.7637 106.129 98.7637C106.832 98.7637 107.34 98.3796 107.652 97.6113C107.965 96.8431 108.121 95.5931 108.121 93.8613C108.121 92.11 107.962 90.8535 107.643 90.0918C107.33 89.3236 106.826 88.9395 106.129 88.9395C105.419 88.9395 104.911 89.3236 104.605 90.0918C104.299 90.8535 104.146 92.11 104.146 93.8613Z" fill="white"/>
<path d="M91.2617 27H88.2441V18.7383L88.2734 17.3809L88.3223 15.8965C87.821 16.3978 87.4727 16.7266 87.2773 16.8828L85.6367 18.2012L84.1816 16.3848L88.7812 12.7227H91.2617V27ZM105.129 19.8613C105.129 22.3548 104.719 24.2005 103.898 25.3984C103.085 26.5964 101.828 27.1953 100.129 27.1953C98.4818 27.1953 97.2383 26.5768 96.3984 25.3398C95.5651 24.1029 95.1484 22.2767 95.1484 19.8613C95.1484 17.3418 95.5553 15.4863 96.3691 14.2949C97.1829 13.097 98.4362 12.498 100.129 12.498C101.776 12.498 103.02 13.123 103.859 14.373C104.706 15.623 105.129 17.4525 105.129 19.8613ZM98.1465 19.8613C98.1465 21.6126 98.2962 22.8691 98.5957 23.6309C98.9017 24.3861 99.4128 24.7637 100.129 24.7637C100.832 24.7637 101.34 24.3796 101.652 23.6113C101.965 22.8431 102.121 21.5931 102.121 19.8613C102.121 18.11 101.962 16.8535 101.643 16.0918C101.33 15.3236 100.826 14.9395 100.129 14.9395C99.4193 14.9395 98.9115 15.3236 98.6055 16.0918C98.2995 16.8535 98.1465 18.11 98.1465 19.8613Z" fill="#3F796F"/>
<path d="M30.6778 32.9875L25.2649 23.5845C26.7999 23.3533 27.9309 22.0431 27.9309 20.5786V6.70535C27.9309 3.00587 24.7801 0 20.9022 0H11.6921C7.81418 0 4.58257 3.00587 4.58257 6.78248V20.5787C4.58257 22.1201 5.71364 23.3533 7.24865 23.5846L1.9165 32.9875C1.51255 33.7583 1.75492 34.6831 2.56282 35.0685C2.80519 35.2226 3.04756 35.2226 3.28993 35.2226C3.85546 35.2226 4.42099 34.9144 4.66336 34.4519L5.1481 33.6812H27.4462L27.9308 34.4519C28.2541 34.9914 28.7387 35.2226 29.3043 35.2226C29.5466 35.2226 29.789 35.1456 30.0314 35.0685C30.8393 34.6831 31.0818 33.7583 30.6778 32.9875ZM23.0835 26.0509H9.51077L10.8842 23.6616H21.7101L23.0835 26.0509ZM22.8412 20.887C21.5486 20.887 20.4982 19.885 20.4982 18.6518C20.4982 17.4186 21.5485 16.4166 22.8412 16.4166C24.1338 16.4166 25.1841 17.4186 25.1841 18.6518C25.184 19.8079 24.1338 20.887 22.8412 20.887ZM7.41023 7.63029C7.41023 5.24101 9.42998 3.31417 11.8537 3.31417H20.6598C23.0835 3.31417 25.184 5.24101 25.184 7.63029V11.3298C25.184 12.1776 24.4569 12.7942 23.5682 12.7942H9.02603C8.13734 12.7942 7.49102 12.1006 7.49102 11.3298L7.41023 7.63029ZM9.75314 16.3396C11.0458 16.3396 12.0961 17.3416 12.0961 18.5748C12.0961 19.8079 11.0458 20.8099 9.75314 20.8099C8.4605 20.8099 7.41023 19.808 7.41023 18.5748C7.41023 17.3416 8.46056 16.3396 9.75314 16.3396ZM6.44081 31.369L8.21819 28.3631H24.3762L26.1536 31.369H6.44081Z" fill="black"/>
<path d="M27.9591 85.3775C27.7125 83.0412 27.3198 81.2221 26.6984 80.507C24.1366 77.5671 6.19106 77.352 4.15354 80.507C3.65513 81.28 3.30558 83.0927 3.07099 85.3814C2.31407 85.4677 1.72461 86.0854 1.72461 86.8417V89.7037C1.72461 90.3401 2.14062 90.8767 2.72144 91.086C2.58387 95.5939 2.69552 100.297 2.90153 102.636C2.90153 104.441 4.15288 104.142 4.15288 104.142H5.32581V106.091C5.32581 106.864 6.14786 107.49 7.16064 107.49C8.17474 107.49 8.99679 106.864 8.99679 106.091V104.142H22.6427V106.091C22.6427 106.864 23.4641 107.49 24.4782 107.49C25.491 107.49 26.313 106.864 26.313 106.091V104.142H26.6984C26.6984 104.142 28.1711 104.338 28.2655 103.487C28.2655 101.155 28.417 95.9855 28.292 91.106C28.9094 90.9186 29.36 90.3672 29.36 89.7037V86.8417C29.3606 86.0674 28.7426 85.4394 27.9591 85.3775ZM8.53626 80.9264H22.3157V82.9471H8.53626V80.9264ZM8.73297 101.84C7.65108 101.84 6.77453 100.99 6.77453 99.9413C6.77453 98.8932 7.65108 98.0436 8.73297 98.0436C9.81486 98.0436 10.6921 98.8932 10.6921 99.9413C10.6921 100.99 9.81552 101.84 8.73297 101.84ZM22.242 101.84C21.1607 101.84 20.2822 100.99 20.2822 99.9413C20.2822 98.8932 21.1601 98.0436 22.242 98.0436C23.3238 98.0436 24.2004 98.8932 24.2004 99.9413C24.2011 100.99 23.3238 101.84 22.242 101.84ZM24.732 93.5306H6.11995V84.0679H24.732V93.5306Z" fill="black"/>
<path d="M30.7493 149.886C29.5398 148.676 27.5729 148.697 26.3886 149.931L19.9063 156.685L4.08711 151.45L0.76636 154.771L13.9522 162.89L7.28017 169.842L3.00147 169.14L0 172.141L6.29033 174.345L8.49355 180.635L11.495 177.633L10.7926 173.355L17.7451 166.683L25.8638 179.869L29.1846 176.548L23.9495 160.729L30.7043 154.246C31.9384 153.062 31.9586 151.095 30.7493 149.886Z" fill="black"/>
<path d="M6.87305 225.522H11.6104V231.385C10.3682 231.912 8.9707 232.176 7.41797 232.176C5.39062 232.176 3.83496 231.604 2.75098 230.462C1.67285 229.313 1.13379 227.69 1.13379 225.593C1.13379 224.286 1.40039 223.129 1.93359 222.121C2.47266 221.107 3.24023 220.325 4.23633 219.774C5.23828 219.224 6.38672 218.948 7.68164 218.948C9.08203 218.948 10.3389 219.206 11.4521 219.722L11.0918 220.53C9.97852 220.015 8.82422 219.757 7.62891 219.757C5.93555 219.757 4.59082 220.281 3.59473 221.33C2.60449 222.373 2.10938 223.782 2.10938 225.558C2.10938 227.491 2.58105 228.947 3.52441 229.926C4.46777 230.898 5.85352 231.385 7.68164 231.385C8.86523 231.385 9.87012 231.218 10.6963 230.884V226.366H6.87305V225.522ZM18.3867 222.262C18.791 222.262 19.2246 222.303 19.6875 222.385L19.5205 223.22C19.1221 223.12 18.709 223.07 18.2812 223.07C17.4668 223.07 16.7988 223.416 16.2773 224.107C15.7559 224.799 15.4951 225.672 15.4951 226.727V232H14.625V222.446H15.3633L15.4512 224.169H15.5127C15.9053 223.466 16.3242 222.974 16.7695 222.692C17.2148 222.405 17.7539 222.262 18.3867 222.262ZM27.4395 232L27.2197 230.488H27.1494C26.6689 231.104 26.1738 231.54 25.6641 231.798C25.1602 232.05 24.5625 232.176 23.8711 232.176C22.9336 232.176 22.2041 231.936 21.6826 231.455C21.1611 230.975 20.9004 230.31 20.9004 229.46C20.9004 228.528 21.2871 227.805 22.0605 227.289C22.8398 226.773 23.9648 226.501 25.4355 226.472L27.2549 226.419V225.786C27.2549 224.878 27.0703 224.192 26.7012 223.729C26.332 223.267 25.7373 223.035 24.917 223.035C24.0322 223.035 23.1152 223.281 22.166 223.773L21.8408 223.018C22.8896 222.525 23.9268 222.279 24.9521 222.279C26.001 222.279 26.7832 222.552 27.2988 223.097C27.8203 223.642 28.0811 224.491 28.0811 225.646V232H27.4395ZM23.9238 231.385C24.9434 231.385 25.7461 231.095 26.332 230.515C26.9238 229.929 27.2197 229.117 27.2197 228.08V227.14L25.5498 227.21C24.208 227.274 23.25 227.485 22.6758 227.843C22.1074 228.194 21.8232 228.745 21.8232 229.495C21.8232 230.093 22.0049 230.559 22.3682 230.893C22.7373 231.221 23.2559 231.385 23.9238 231.385ZM43.1191 232V225.733C43.1191 224.802 42.9375 224.122 42.5742 223.694C42.2109 223.267 41.6543 223.053 40.9043 223.053C39.9258 223.053 39.2021 223.322 38.7334 223.861C38.2646 224.4 38.0303 225.247 38.0303 226.401V232H37.1426V225.47C37.1426 223.858 36.4043 223.053 34.9277 223.053C33.9258 223.053 33.1963 223.346 32.7393 223.932C32.2822 224.512 32.0537 225.443 32.0537 226.727V232H31.1836V222.446H31.9043L32.0889 223.756H32.1416C32.4053 223.281 32.7803 222.915 33.2666 222.657C33.7529 222.394 34.2891 222.262 34.875 222.262C36.3809 222.262 37.3477 222.827 37.7754 223.958H37.8105C38.1211 223.413 38.5371 222.994 39.0586 222.701C39.5859 222.408 40.1836 222.262 40.8516 222.262C41.8945 222.262 42.6768 222.54 43.1982 223.097C43.7197 223.653 43.9805 224.538 43.9805 225.751V232H43.1191ZM54.9756 227.21C54.9756 228.769 54.5977 229.987 53.8418 230.866C53.0859 231.739 52.043 232.176 50.7129 232.176C49.875 232.176 49.1367 231.974 48.498 231.569C47.8594 231.165 47.3701 230.585 47.0303 229.829C46.6904 229.073 46.5205 228.2 46.5205 227.21C46.5205 225.651 46.8984 224.438 47.6543 223.571C48.4102 222.698 49.4473 222.262 50.7656 222.262C52.0781 222.262 53.1064 222.704 53.8506 223.589C54.6006 224.468 54.9756 225.675 54.9756 227.21ZM47.4346 227.21C47.4346 228.522 47.7217 229.548 48.2959 230.286C48.876 231.019 49.6934 231.385 50.748 231.385C51.8027 231.385 52.6172 231.019 53.1914 230.286C53.7715 229.548 54.0615 228.522 54.0615 227.21C54.0615 225.892 53.7686 224.869 53.1826 224.143C52.6025 223.416 51.7852 223.053 50.7305 223.053C49.6758 223.053 48.8613 223.416 48.2871 224.143C47.7188 224.863 47.4346 225.886 47.4346 227.21ZM63.5449 229.513C63.5449 230.368 63.2197 231.027 62.5693 231.49C61.9189 231.947 60.9961 232.176 59.8008 232.176C58.5234 232.176 57.5098 231.979 56.7598 231.587V230.646C57.7207 231.127 58.7344 231.367 59.8008 231.367C60.7441 231.367 61.459 231.212 61.9453 230.901C62.4375 230.585 62.6836 230.166 62.6836 229.645C62.6836 229.164 62.4873 228.76 62.0947 228.432C61.708 228.104 61.0693 227.781 60.1787 227.465C59.2236 227.119 58.5527 226.823 58.166 226.577C57.7793 226.325 57.4863 226.044 57.2871 225.733C57.0938 225.417 56.9971 225.033 56.9971 224.582C56.9971 223.867 57.2959 223.302 57.8936 222.886C58.4971 222.47 59.3379 222.262 60.416 222.262C61.4473 222.262 62.4258 222.455 63.3516 222.842L63.0264 223.633C62.0889 223.246 61.2188 223.053 60.416 223.053C59.6367 223.053 59.0186 223.182 58.5615 223.439C58.1045 223.697 57.876 224.055 57.876 224.512C57.876 225.01 58.0518 225.408 58.4033 225.707C58.7607 226.006 59.4551 226.34 60.4863 226.709C61.3477 227.02 61.9746 227.301 62.3672 227.553C62.7598 227.799 63.0527 228.08 63.2461 228.396C63.4453 228.713 63.5449 229.085 63.5449 229.513ZM74.1797 222.262C74.8711 222.262 75.4688 222.388 75.9727 222.64C76.4766 222.892 76.9277 223.322 77.3262 223.932H77.3789C77.3438 223.193 77.3262 222.47 77.3262 221.761V218.324H78.1875V232H77.6162L77.3965 230.541H77.3262C76.5996 231.631 75.5566 232.176 74.1973 232.176C72.8789 232.176 71.8711 231.766 71.1738 230.945C70.4766 230.125 70.1279 228.93 70.1279 227.359C70.1279 225.707 70.4736 224.444 71.165 223.571C71.8564 222.698 72.8613 222.262 74.1797 222.262ZM74.1797 223.053C73.1367 223.053 72.3516 223.419 71.8242 224.151C71.3027 224.884 71.042 225.947 71.042 227.342C71.042 230.049 72.0938 231.402 74.1973 231.402C75.2754 231.402 76.0664 231.089 76.5703 230.462C77.0742 229.835 77.3262 228.801 77.3262 227.359V227.21C77.3262 225.733 77.0771 224.673 76.5791 224.028C76.0869 223.378 75.2871 223.053 74.1797 223.053ZM85.2627 232.176C83.874 232.176 82.79 231.748 82.0107 230.893C81.2373 230.037 80.8506 228.839 80.8506 227.298C80.8506 225.774 81.2256 224.556 81.9756 223.642C82.7256 222.722 83.7363 222.262 85.0078 222.262C86.1328 222.262 87.0205 222.654 87.6709 223.439C88.3213 224.225 88.6465 225.291 88.6465 226.639V227.342H81.7646C81.7764 228.654 82.0811 229.656 82.6787 230.348C83.2822 231.039 84.1436 231.385 85.2627 231.385C85.8076 231.385 86.2852 231.347 86.6953 231.271C87.1113 231.194 87.6357 231.03 88.2686 230.778V231.569C87.7295 231.804 87.2314 231.962 86.7744 232.044C86.3174 232.132 85.8135 232.176 85.2627 232.176ZM85.0078 223.035C84.0879 223.035 83.3496 223.34 82.793 223.949C82.2363 224.553 81.9111 225.426 81.8174 226.568H87.7236C87.7236 225.461 87.4834 224.597 87.0029 223.976C86.5225 223.349 85.8574 223.035 85.0078 223.035ZM101.663 219.774C100.052 219.774 98.7832 220.29 97.8574 221.321C96.9316 222.353 96.4688 223.765 96.4688 225.558C96.4688 227.392 96.9053 228.815 97.7783 229.829C98.6514 230.843 99.8994 231.35 101.522 231.35C102.601 231.35 103.591 231.212 104.493 230.937V231.728C103.644 232.026 102.583 232.176 101.312 232.176C99.5068 232.176 98.0859 231.593 97.0488 230.427C96.0117 229.261 95.4932 227.632 95.4932 225.54C95.4932 224.233 95.7393 223.082 96.2314 222.086C96.7295 221.09 97.4414 220.322 98.3672 219.783C99.2988 219.238 100.38 218.966 101.61 218.966C102.864 218.966 103.986 219.2 104.977 219.669L104.616 220.478C103.679 220.009 102.694 219.774 101.663 219.774ZM118.16 225.558C118.16 227.597 117.65 229.211 116.631 230.4C115.611 231.584 114.205 232.176 112.412 232.176C110.625 232.176 109.222 231.584 108.202 230.4C107.183 229.211 106.673 227.591 106.673 225.54C106.673 223.495 107.186 221.887 108.211 220.715C109.242 219.537 110.648 218.948 112.43 218.948C114.223 218.948 115.626 219.54 116.64 220.724C117.653 221.901 118.16 223.513 118.16 225.558ZM107.648 225.558C107.648 227.397 108.059 228.821 108.879 229.829C109.699 230.831 110.877 231.332 112.412 231.332C113.959 231.332 115.14 230.834 115.954 229.838C116.774 228.842 117.185 227.415 117.185 225.558C117.185 223.706 116.774 222.288 115.954 221.304C115.14 220.313 113.965 219.818 112.43 219.818C110.9 219.818 109.72 220.316 108.888 221.312C108.062 222.309 107.648 223.724 107.648 225.558ZM128.338 232H120.296V231.227L123.715 227.658C124.676 226.662 125.35 225.9 125.736 225.373C126.123 224.846 126.407 224.342 126.589 223.861C126.771 223.381 126.861 222.877 126.861 222.35C126.861 221.582 126.609 220.958 126.105 220.478C125.602 219.997 124.948 219.757 124.146 219.757C123.073 219.757 122.048 220.146 121.069 220.926L120.595 220.319C121.667 219.417 122.856 218.966 124.163 218.966C125.282 218.966 126.161 219.265 126.8 219.862C127.444 220.46 127.767 221.283 127.767 222.332C127.767 223.182 127.55 224.005 127.116 224.802C126.688 225.593 125.903 226.571 124.761 227.737L121.465 231.121V231.156H128.338V232ZM139.948 232.176C138.478 232.176 137.405 231.625 136.731 230.523H136.67L136.696 231.262C136.72 231.695 136.731 232.17 136.731 232.686V236.324H135.861V222.446H136.6L136.767 223.809H136.819C137.476 222.777 138.524 222.262 139.966 222.262C141.255 222.262 142.236 222.687 142.91 223.536C143.59 224.38 143.93 225.61 143.93 227.228C143.93 228.798 143.572 230.017 142.857 230.884C142.148 231.745 141.179 232.176 139.948 232.176ZM139.931 231.402C140.909 231.402 141.665 231.039 142.198 230.312C142.737 229.586 143.007 228.569 143.007 227.263C143.007 224.456 141.993 223.053 139.966 223.053C138.853 223.053 138.035 223.36 137.514 223.976C136.992 224.585 136.731 225.581 136.731 226.964V227.245C136.731 228.739 136.98 229.806 137.479 230.444C137.982 231.083 138.8 231.402 139.931 231.402ZM154.485 227.21C154.485 228.769 154.107 229.987 153.352 230.866C152.596 231.739 151.553 232.176 150.223 232.176C149.385 232.176 148.646 231.974 148.008 231.569C147.369 231.165 146.88 230.585 146.54 229.829C146.2 229.073 146.03 228.2 146.03 227.21C146.03 225.651 146.408 224.438 147.164 223.571C147.92 222.698 148.957 222.262 150.275 222.262C151.588 222.262 152.616 222.704 153.36 223.589C154.11 224.468 154.485 225.675 154.485 227.21ZM146.944 227.21C146.944 228.522 147.231 229.548 147.806 230.286C148.386 231.019 149.203 231.385 150.258 231.385C151.312 231.385 152.127 231.019 152.701 230.286C153.281 229.548 153.571 228.522 153.571 227.21C153.571 225.892 153.278 224.869 152.692 224.143C152.112 223.416 151.295 223.053 150.24 223.053C149.186 223.053 148.371 223.416 147.797 224.143C147.229 224.863 146.944 225.886 146.944 227.21ZM160.893 222.262C161.297 222.262 161.73 222.303 162.193 222.385L162.026 223.22C161.628 223.12 161.215 223.07 160.787 223.07C159.973 223.07 159.305 223.416 158.783 224.107C158.262 224.799 158.001 225.672 158.001 226.727V232H157.131V222.446H157.869L157.957 224.169H158.019C158.411 223.466 158.83 222.974 159.275 222.692C159.721 222.405 160.26 222.262 160.893 222.262ZM169.673 227.808L174.551 222.446H175.605L171.844 226.524L175.931 232H174.885L171.255 227.175L169.69 228.599V232H168.82V218.324H169.69V225.18L169.629 227.808H169.673ZM178.409 232H177.539V222.446H178.409V232ZM177.416 219.792C177.416 219.229 177.601 218.948 177.97 218.948C178.151 218.948 178.292 219.021 178.392 219.168C178.497 219.314 178.55 219.522 178.55 219.792C178.55 220.056 178.497 220.264 178.392 220.416C178.292 220.568 178.151 220.645 177.97 220.645C177.601 220.645 177.416 220.36 177.416 219.792ZM182.487 232H181.617V218.324H182.487V232ZM193.597 227.21C193.597 228.769 193.219 229.987 192.463 230.866C191.707 231.739 190.664 232.176 189.334 232.176C188.496 232.176 187.758 231.974 187.119 231.569C186.48 231.165 185.991 230.585 185.651 229.829C185.312 229.073 185.142 228.2 185.142 227.21C185.142 225.651 185.52 224.438 186.275 223.571C187.031 222.698 188.068 222.262 189.387 222.262C190.699 222.262 191.728 222.704 192.472 223.589C193.222 224.468 193.597 225.675 193.597 227.21ZM186.056 227.21C186.056 228.522 186.343 229.548 186.917 230.286C187.497 231.019 188.314 231.385 189.369 231.385C190.424 231.385 191.238 231.019 191.812 230.286C192.393 229.548 192.683 228.522 192.683 227.21C192.683 225.892 192.39 224.869 191.804 224.143C191.224 223.416 190.406 223.053 189.352 223.053C188.297 223.053 187.482 223.416 186.908 224.143C186.34 224.863 186.056 225.886 186.056 227.21ZM188.481 220.952C188.909 220.489 189.331 219.988 189.747 219.449C190.169 218.904 190.456 218.491 190.608 218.21H191.848V218.359C191.637 218.664 191.276 219.068 190.767 219.572C190.263 220.076 189.706 220.583 189.097 221.093H188.481V220.952ZM208.178 232V225.733C208.178 224.802 207.996 224.122 207.633 223.694C207.27 223.267 206.713 223.053 205.963 223.053C204.984 223.053 204.261 223.322 203.792 223.861C203.323 224.4 203.089 225.247 203.089 226.401V232H202.201V225.47C202.201 223.858 201.463 223.053 199.986 223.053C198.984 223.053 198.255 223.346 197.798 223.932C197.341 224.512 197.112 225.443 197.112 226.727V232H196.242V222.446H196.963L197.147 223.756H197.2C197.464 223.281 197.839 222.915 198.325 222.657C198.812 222.394 199.348 222.262 199.934 222.262C201.439 222.262 202.406 222.827 202.834 223.958H202.869C203.18 223.413 203.596 222.994 204.117 222.701C204.645 222.408 205.242 222.262 205.91 222.262C206.953 222.262 207.735 222.54 208.257 223.097C208.778 223.653 209.039 224.538 209.039 225.751V232H208.178ZM215.991 232.176C214.603 232.176 213.519 231.748 212.739 230.893C211.966 230.037 211.579 228.839 211.579 227.298C211.579 225.774 211.954 224.556 212.704 223.642C213.454 222.722 214.465 222.262 215.736 222.262C216.861 222.262 217.749 222.654 218.399 223.439C219.05 224.225 219.375 225.291 219.375 226.639V227.342H212.493C212.505 228.654 212.81 229.656 213.407 230.348C214.011 231.039 214.872 231.385 215.991 231.385C216.536 231.385 217.014 231.347 217.424 231.271C217.84 231.194 218.364 231.03 218.997 230.778V231.569C218.458 231.804 217.96 231.962 217.503 232.044C217.046 232.132 216.542 232.176 215.991 232.176ZM215.736 223.035C214.816 223.035 214.078 223.34 213.521 223.949C212.965 224.553 212.64 225.426 212.546 226.568H218.452C218.452 225.461 218.212 224.597 217.731 223.976C217.251 223.349 216.586 223.035 215.736 223.035ZM224.534 231.402C225.085 231.402 225.565 231.355 225.976 231.262V231.965C225.554 232.105 225.067 232.176 224.517 232.176C223.673 232.176 223.049 231.95 222.645 231.499C222.246 231.048 222.047 230.339 222.047 229.372V223.202H220.632V222.692L222.047 222.297L222.486 220.135H222.935V222.446H225.738V223.202H222.935V229.249C222.935 229.981 223.063 230.523 223.321 230.875C223.579 231.227 223.983 231.402 224.534 231.402ZM231.803 222.262C232.207 222.262 232.641 222.303 233.104 222.385L232.937 223.22C232.538 223.12 232.125 223.07 231.697 223.07C230.883 223.07 230.215 223.416 229.693 224.107C229.172 224.799 228.911 225.672 228.911 226.727V232H228.041V222.446H228.779L228.867 224.169H228.929C229.321 223.466 229.74 222.974 230.186 222.692C230.631 222.405 231.17 222.262 231.803 222.262ZM242.956 227.21C242.956 228.769 242.578 229.987 241.822 230.866C241.066 231.739 240.023 232.176 238.693 232.176C237.855 232.176 237.117 231.974 236.479 231.569C235.84 231.165 235.351 230.585 235.011 229.829C234.671 229.073 234.501 228.2 234.501 227.21C234.501 225.651 234.879 224.438 235.635 223.571C236.391 222.698 237.428 222.262 238.746 222.262C240.059 222.262 241.087 222.704 241.831 223.589C242.581 224.468 242.956 225.675 242.956 227.21ZM235.415 227.21C235.415 228.522 235.702 229.548 236.276 230.286C236.856 231.019 237.674 231.385 238.729 231.385C239.783 231.385 240.598 231.019 241.172 230.286C241.752 229.548 242.042 228.522 242.042 227.21C242.042 225.892 241.749 224.869 241.163 224.143C240.583 223.416 239.766 223.053 238.711 223.053C237.656 223.053 236.842 223.416 236.268 224.143C235.699 224.863 235.415 225.886 235.415 227.21Z" fill="black"/>
</g>
<defs>
<clipPath id="clip0">
<rect width="255" height="240" fill="white"/>
</clipPath>
</defs>
</svg>
