<svg width="255" height="240" viewBox="0 0 255 240" fill="none" xmlns="http://www.w3.org/2000/svg">
<g clip-path="url(#clip0)">
<rect width="255" height="240" fill="white"/>
<rect x="77.0938" y="5.38696" width="30.4172" height="11.2978" transform="rotate(89.7532 77.0938 5.38696)" fill="#3F796F"/>
<rect x="64.9668" y="109.2" width="30.4172" height="57.3581" transform="rotate(-89.9414 64.9668 109.2)" fill="#3F796F"/>
<rect x="65.4023" y="178.478" width="30.4172" height="187.717" transform="rotate(-89.9494 65.4023 178.478)" fill="#3F796F"/>
<path d="M219.781 171H209.801V168.9L213.385 165.277C214.446 164.19 215.139 163.438 215.465 163.021C215.79 162.598 216.025 162.208 216.168 161.85C216.311 161.492 216.383 161.12 216.383 160.736C216.383 160.163 216.223 159.737 215.904 159.457C215.592 159.177 215.172 159.037 214.645 159.037C214.091 159.037 213.554 159.164 213.033 159.418C212.512 159.672 211.969 160.033 211.402 160.502L209.762 158.559C210.465 157.96 211.048 157.536 211.51 157.289C211.972 157.042 212.477 156.853 213.023 156.723C213.57 156.586 214.182 156.518 214.859 156.518C215.751 156.518 216.539 156.68 217.223 157.006C217.906 157.331 218.437 157.787 218.814 158.373C219.192 158.959 219.381 159.63 219.381 160.385C219.381 161.042 219.264 161.661 219.029 162.24C218.801 162.813 218.443 163.402 217.955 164.008C217.473 164.613 216.62 165.476 215.396 166.596L213.561 168.324V168.461H219.781V171ZM226.148 156.537C227.516 156.537 228.616 156.85 229.449 157.475C230.289 158.093 230.709 158.93 230.709 159.984C230.709 160.714 230.507 161.365 230.104 161.938C229.7 162.504 229.049 163.012 228.15 163.461C229.218 164.034 229.983 164.633 230.445 165.258C230.914 165.876 231.148 166.557 231.148 167.299C231.148 168.471 230.689 169.415 229.771 170.131C228.854 170.84 227.646 171.195 226.148 171.195C224.586 171.195 223.359 170.863 222.467 170.199C221.575 169.535 221.129 168.594 221.129 167.377C221.129 166.563 221.344 165.84 221.773 165.209C222.21 164.577 222.906 164.021 223.863 163.539C223.049 163.025 222.464 162.475 222.105 161.889C221.747 161.303 221.568 160.661 221.568 159.965C221.568 158.943 221.992 158.116 222.838 157.484C223.684 156.853 224.788 156.537 226.148 156.537ZM223.922 167.201C223.922 167.761 224.117 168.197 224.508 168.51C224.898 168.822 225.432 168.979 226.109 168.979C226.858 168.979 227.418 168.819 227.789 168.5C228.16 168.174 228.346 167.748 228.346 167.221C228.346 166.785 228.16 166.378 227.789 166C227.424 165.616 226.829 165.209 226.002 164.779C224.615 165.417 223.922 166.225 223.922 167.201ZM226.129 158.744C225.615 158.744 225.198 158.878 224.879 159.145C224.566 159.405 224.41 159.757 224.41 160.199C224.41 160.59 224.534 160.941 224.781 161.254C225.035 161.56 225.491 161.876 226.148 162.201C226.786 161.902 227.232 161.596 227.486 161.283C227.74 160.971 227.867 160.609 227.867 160.199C227.867 159.75 227.704 159.395 227.379 159.135C227.053 158.874 226.637 158.744 226.129 158.744ZM242.555 163.861C242.555 166.355 242.145 168.201 241.324 169.398C240.51 170.596 239.254 171.195 237.555 171.195C235.908 171.195 234.664 170.577 233.824 169.34C232.991 168.103 232.574 166.277 232.574 163.861C232.574 161.342 232.981 159.486 233.795 158.295C234.609 157.097 235.862 156.498 237.555 156.498C239.202 156.498 240.445 157.123 241.285 158.373C242.132 159.623 242.555 161.452 242.555 163.861ZM235.572 163.861C235.572 165.613 235.722 166.869 236.021 167.631C236.327 168.386 236.839 168.764 237.555 168.764C238.258 168.764 238.766 168.38 239.078 167.611C239.391 166.843 239.547 165.593 239.547 163.861C239.547 162.11 239.387 160.854 239.068 160.092C238.756 159.324 238.251 158.939 237.555 158.939C236.845 158.939 236.337 159.324 236.031 160.092C235.725 160.854 235.572 162.11 235.572 163.861Z" fill="white"/>
<path d="M91.2168 101L96.5781 89.2812H89.5371V86.7422H99.7812V88.6367L94.3809 101H91.2168ZM111.129 93.8613C111.129 96.3548 110.719 98.2005 109.898 99.3984C109.085 100.596 107.828 101.195 106.129 101.195C104.482 101.195 103.238 100.577 102.398 99.3398C101.565 98.1029 101.148 96.2767 101.148 93.8613C101.148 91.3418 101.555 89.4863 102.369 88.2949C103.183 87.097 104.436 86.498 106.129 86.498C107.776 86.498 109.02 87.123 109.859 88.373C110.706 89.623 111.129 91.4525 111.129 93.8613ZM104.146 93.8613C104.146 95.6126 104.296 96.8691 104.596 97.6309C104.902 98.3861 105.413 98.7637 106.129 98.7637C106.832 98.7637 107.34 98.3796 107.652 97.6113C107.965 96.8431 108.121 95.5931 108.121 93.8613C108.121 92.11 107.962 90.8535 107.643 90.0918C107.33 89.3236 106.826 88.9395 106.129 88.9395C105.419 88.9395 104.911 89.3236 104.605 90.0918C104.299 90.8535 104.146 92.11 104.146 93.8613Z" fill="white"/>
<path d="M91.2617 27H88.2441V18.7383L88.2734 17.3809L88.3223 15.8965C87.821 16.3978 87.4727 16.7266 87.2773 16.8828L85.6367 18.2012L84.1816 16.3848L88.7812 12.7227H91.2617V27ZM105.129 19.8613C105.129 22.3548 104.719 24.2005 103.898 25.3984C103.085 26.5964 101.828 27.1953 100.129 27.1953C98.4818 27.1953 97.2383 26.5768 96.3984 25.3398C95.5651 24.1029 95.1484 22.2767 95.1484 19.8613C95.1484 17.3418 95.5553 15.4863 96.3691 14.2949C97.1829 13.097 98.4362 12.498 100.129 12.498C101.776 12.498 103.02 13.123 103.859 14.373C104.706 15.623 105.129 17.4525 105.129 19.8613ZM98.1465 19.8613C98.1465 21.6126 98.2962 22.8691 98.5957 23.6309C98.9017 24.3861 99.4128 24.7637 100.129 24.7637C100.832 24.7637 101.34 24.3796 101.652 23.6113C101.965 22.8431 102.121 21.5931 102.121 19.8613C102.121 18.11 101.962 16.8535 101.643 16.0918C101.33 15.3236 100.826 14.9395 100.129 14.9395C99.4193 14.9395 98.9115 15.3236 98.6055 16.0918C98.2995 16.8535 98.1465 18.11 98.1465 19.8613Z" fill="#3F796F"/>
<path d="M30.6778 32.9875L25.2649 23.5845C26.7999 23.3533 27.9309 22.0431 27.9309 20.5786V6.70535C27.9309 3.00587 24.7801 0 20.9022 0H11.6921C7.81418 0 4.58257 3.00587 4.58257 6.78248V20.5787C4.58257 22.1201 5.71364 23.3533 7.24865 23.5846L1.9165 32.9875C1.51255 33.7583 1.75492 34.6831 2.56282 35.0685C2.80519 35.2226 3.04756 35.2226 3.28993 35.2226C3.85546 35.2226 4.42099 34.9144 4.66336 34.4519L5.1481 33.6812H27.4462L27.9308 34.4519C28.2541 34.9914 28.7387 35.2226 29.3043 35.2226C29.5466 35.2226 29.789 35.1456 30.0314 35.0685C30.8393 34.6831 31.0818 33.7583 30.6778 32.9875ZM23.0835 26.0509H9.51077L10.8842 23.6616H21.7101L23.0835 26.0509ZM22.8412 20.887C21.5486 20.887 20.4982 19.885 20.4982 18.6518C20.4982 17.4186 21.5485 16.4166 22.8412 16.4166C24.1338 16.4166 25.1841 17.4186 25.1841 18.6518C25.184 19.8079 24.1338 20.887 22.8412 20.887ZM7.41023 7.63029C7.41023 5.24101 9.42998 3.31417 11.8537 3.31417H20.6598C23.0835 3.31417 25.184 5.24101 25.184 7.63029V11.3298C25.184 12.1776 24.4569 12.7942 23.5682 12.7942H9.02603C8.13734 12.7942 7.49102 12.1006 7.49102 11.3298L7.41023 7.63029ZM9.75314 16.3396C11.0458 16.3396 12.0961 17.3416 12.0961 18.5748C12.0961 19.8079 11.0458 20.8099 9.75314 20.8099C8.4605 20.8099 7.41023 19.808 7.41023 18.5748C7.41023 17.3416 8.46056 16.3396 9.75314 16.3396ZM6.44081 31.369L8.21819 28.3631H24.3762L26.1536 31.369H6.44081Z" fill="black"/>
<path d="M27.9591 85.3775C27.7125 83.0412 27.3198 81.2221 26.6984 80.507C24.1366 77.5671 6.19106 77.352 4.15354 80.507C3.65513 81.28 3.30558 83.0927 3.07099 85.3814C2.31407 85.4677 1.72461 86.0854 1.72461 86.8417V89.7037C1.72461 90.3401 2.14062 90.8767 2.72144 91.086C2.58387 95.5939 2.69552 100.297 2.90153 102.636C2.90153 104.441 4.15288 104.142 4.15288 104.142H5.32581V106.091C5.32581 106.864 6.14786 107.49 7.16064 107.49C8.17474 107.49 8.99679 106.864 8.99679 106.091V104.142H22.6427V106.091C22.6427 106.864 23.4641 107.49 24.4782 107.49C25.491 107.49 26.313 106.864 26.313 106.091V104.142H26.6984C26.6984 104.142 28.1711 104.338 28.2655 103.487C28.2655 101.155 28.417 95.9855 28.292 91.106C28.9094 90.9186 29.36 90.3672 29.36 89.7037V86.8417C29.3606 86.0674 28.7426 85.4394 27.9591 85.3775ZM8.53626 80.9264H22.3157V82.9471H8.53626V80.9264ZM8.73297 101.84C7.65108 101.84 6.77453 100.99 6.77453 99.9413C6.77453 98.8932 7.65108 98.0436 8.73297 98.0436C9.81486 98.0436 10.6921 98.8932 10.6921 99.9413C10.6921 100.99 9.81552 101.84 8.73297 101.84ZM22.242 101.84C21.1607 101.84 20.2822 100.99 20.2822 99.9413C20.2822 98.8932 21.1601 98.0436 22.242 98.0436C23.3238 98.0436 24.2004 98.8932 24.2004 99.9413C24.2011 100.99 23.3238 101.84 22.242 101.84ZM24.732 93.5306H6.11995V84.0679H24.732V93.5306Z" fill="black"/>
<path d="M30.7493 149.886C29.5398 148.676 27.5729 148.697 26.3886 149.931L19.9063 156.685L4.08711 151.45L0.76636 154.771L13.9522 162.89L7.28017 169.842L3.00147 169.14L0 172.141L6.29033 174.345L8.49355 180.635L11.495 177.633L10.7926 173.355L17.7451 166.683L25.8638 179.869L29.1846 176.548L23.9495 160.729L30.7043 154.246C31.9384 153.062 31.9586 151.095 30.7493 149.886Z" fill="black"/>
<path d="M4.2002 221.042H7.09521V224.624C6.3361 224.946 5.4821 225.107 4.5332 225.107C3.29427 225.107 2.34359 224.758 1.68115 224.06C1.0223 223.358 0.692871 222.366 0.692871 221.084C0.692871 220.286 0.855794 219.579 1.18164 218.963C1.51107 218.343 1.98014 217.865 2.58887 217.529C3.20117 217.192 3.90299 217.024 4.69434 217.024C5.55013 217.024 6.3182 217.181 6.99854 217.497L6.77832 217.991C6.09798 217.676 5.39258 217.518 4.66211 217.518C3.62728 217.518 2.8055 217.839 2.19678 218.479C1.59163 219.117 1.28906 219.978 1.28906 221.063C1.28906 222.245 1.57731 223.134 2.15381 223.732C2.73031 224.327 3.57715 224.624 4.69434 224.624C5.41764 224.624 6.03174 224.522 6.53662 224.318V221.557H4.2002V221.042ZM11.2363 219.049C11.4834 219.049 11.7484 219.074 12.0312 219.124L11.9292 219.634C11.6857 219.573 11.4333 219.543 11.1719 219.543C10.6742 219.543 10.266 219.754 9.94727 220.177C9.62858 220.599 9.46924 221.133 9.46924 221.777V225H8.9375V219.162H9.38867L9.44238 220.214H9.47998C9.71989 219.785 9.97591 219.484 10.248 219.312C10.5202 219.137 10.8496 219.049 11.2363 219.049ZM16.7686 225L16.6343 224.076H16.5913C16.2977 224.452 15.9951 224.719 15.6836 224.876C15.3757 225.03 15.0104 225.107 14.5879 225.107C14.015 225.107 13.5692 224.961 13.2505 224.667C12.9318 224.373 12.7725 223.967 12.7725 223.448C12.7725 222.878 13.0088 222.436 13.4814 222.121C13.9577 221.806 14.6452 221.639 15.5439 221.622L16.6558 221.589V221.203C16.6558 220.648 16.543 220.229 16.3174 219.946C16.0918 219.663 15.7284 219.521 15.2271 219.521C14.6864 219.521 14.126 219.672 13.5459 219.973L13.3472 219.511C13.9881 219.21 14.6219 219.06 15.2485 219.06C15.8895 219.06 16.3675 219.226 16.6826 219.559C17.0013 219.892 17.1606 220.411 17.1606 221.117V225H16.7686ZM14.6201 224.624C15.2432 224.624 15.7337 224.447 16.0918 224.092C16.4535 223.734 16.6343 223.238 16.6343 222.604V222.03L15.6138 222.073C14.7938 222.112 14.2083 222.241 13.8574 222.459C13.5101 222.674 13.3364 223.011 13.3364 223.469C13.3364 223.834 13.4474 224.119 13.6694 224.323C13.895 224.524 14.2119 224.624 14.6201 224.624ZM26.3506 225V221.17C26.3506 220.601 26.2396 220.186 26.0176 219.924C25.7956 219.663 25.4554 219.532 24.9971 219.532C24.3991 219.532 23.9569 219.697 23.6704 220.026C23.384 220.356 23.2407 220.873 23.2407 221.579V225H22.6982V221.009C22.6982 220.025 22.2471 219.532 21.3447 219.532C20.7324 219.532 20.2866 219.711 20.0073 220.069C19.728 220.424 19.5884 220.993 19.5884 221.777V225H19.0566V219.162H19.4971L19.6099 219.962H19.6421C19.8032 219.672 20.0324 219.448 20.3296 219.291C20.6268 219.129 20.9544 219.049 21.3125 219.049C22.2327 219.049 22.8236 219.394 23.085 220.085H23.1064C23.2962 219.752 23.5505 219.496 23.8691 219.317C24.1914 219.138 24.5566 219.049 24.9648 219.049C25.6022 219.049 26.0802 219.219 26.3989 219.559C26.7176 219.899 26.877 220.44 26.877 221.181V225H26.3506ZM33.5962 222.073C33.5962 223.025 33.3652 223.77 32.9033 224.307C32.4414 224.841 31.804 225.107 30.9912 225.107C30.4792 225.107 30.028 224.984 29.6377 224.737C29.2474 224.49 28.9484 224.135 28.7407 223.673C28.533 223.211 28.4292 222.678 28.4292 222.073C28.4292 221.12 28.6602 220.379 29.1221 219.849C29.584 219.316 30.2178 219.049 31.0234 219.049C31.8255 219.049 32.4539 219.319 32.9087 219.86C33.367 220.397 33.5962 221.135 33.5962 222.073ZM28.9878 222.073C28.9878 222.875 29.1632 223.501 29.5142 223.953C29.8687 224.4 30.3682 224.624 31.0127 224.624C31.6572 224.624 32.1549 224.4 32.5059 223.953C32.8604 223.501 33.0376 222.875 33.0376 222.073C33.0376 221.267 32.8586 220.642 32.5005 220.198C32.146 219.754 31.6465 219.532 31.002 219.532C30.3574 219.532 29.8597 219.754 29.5088 220.198C29.1615 220.639 28.9878 221.264 28.9878 222.073ZM38.833 223.48C38.833 224.003 38.6343 224.406 38.2368 224.688C37.8394 224.968 37.2754 225.107 36.5449 225.107C35.7643 225.107 35.1449 224.987 34.6865 224.748V224.173C35.2738 224.466 35.8932 224.613 36.5449 224.613C37.1214 224.613 37.5583 224.518 37.8555 224.329C38.1562 224.135 38.3066 223.879 38.3066 223.561C38.3066 223.267 38.1867 223.02 37.9468 222.819C37.7104 222.619 37.3201 222.422 36.7759 222.229C36.1922 222.017 35.7822 221.836 35.5459 221.686C35.3096 221.532 35.1305 221.36 35.0088 221.17C34.8906 220.977 34.8315 220.743 34.8315 220.467C34.8315 220.03 35.0142 219.684 35.3794 219.43C35.7482 219.176 36.262 219.049 36.9209 219.049C37.5511 219.049 38.1491 219.167 38.7148 219.403L38.5161 219.887C37.9432 219.65 37.4115 219.532 36.9209 219.532C36.4447 219.532 36.0669 219.611 35.7876 219.769C35.5083 219.926 35.3687 220.145 35.3687 220.424C35.3687 220.728 35.4761 220.972 35.6909 221.154C35.9093 221.337 36.3337 221.541 36.9639 221.767C37.4902 221.956 37.8734 222.128 38.1133 222.282C38.3532 222.433 38.5322 222.604 38.6504 222.798C38.7721 222.991 38.833 223.219 38.833 223.48ZM45.332 219.049C45.7546 219.049 46.1198 219.126 46.4277 219.28C46.7357 219.434 47.0114 219.697 47.2549 220.069H47.2871C47.2656 219.618 47.2549 219.176 47.2549 218.743V216.643H47.7812V225H47.4321L47.2979 224.108H47.2549C46.8109 224.774 46.1735 225.107 45.3428 225.107C44.5371 225.107 43.9212 224.857 43.4951 224.355C43.069 223.854 42.856 223.124 42.856 222.164C42.856 221.154 43.0672 220.383 43.4897 219.849C43.9123 219.316 44.5264 219.049 45.332 219.049ZM45.332 219.532C44.6947 219.532 44.2148 219.756 43.8926 220.204C43.5739 220.651 43.4146 221.301 43.4146 222.153C43.4146 223.808 44.0573 224.635 45.3428 224.635C46.0016 224.635 46.485 224.443 46.793 224.06C47.1009 223.677 47.2549 223.045 47.2549 222.164V222.073C47.2549 221.17 47.1027 220.522 46.7983 220.128C46.4976 219.731 46.0088 219.532 45.332 219.532ZM52.105 225.107C51.2563 225.107 50.5939 224.846 50.1177 224.323C49.645 223.8 49.4087 223.068 49.4087 222.126C49.4087 221.195 49.6379 220.451 50.0962 219.892C50.5545 219.33 51.1722 219.049 51.9492 219.049C52.6367 219.049 53.1792 219.289 53.5767 219.769C53.9741 220.248 54.1729 220.9 54.1729 221.724V222.153H49.9673C49.9744 222.955 50.1606 223.568 50.5259 223.99C50.8947 224.413 51.4211 224.624 52.105 224.624C52.438 224.624 52.7298 224.601 52.9805 224.554C53.2347 224.508 53.5552 224.407 53.9419 224.253V224.737C53.6125 224.88 53.3081 224.977 53.0288 225.027C52.7495 225.081 52.4416 225.107 52.105 225.107ZM51.9492 219.521C51.387 219.521 50.9359 219.708 50.5957 220.08C50.2555 220.449 50.0568 220.982 49.9995 221.681H53.6089C53.6089 221.004 53.4621 220.476 53.1685 220.096C52.8748 219.713 52.4684 219.521 51.9492 219.521ZM62.1274 217.529C61.1427 217.529 60.3675 217.844 59.8018 218.474C59.236 219.104 58.9531 219.967 58.9531 221.063C58.9531 222.184 59.2199 223.054 59.7534 223.673C60.2869 224.293 61.0496 224.603 62.0415 224.603C62.7004 224.603 63.3055 224.518 63.8569 224.35V224.833C63.3377 225.016 62.6896 225.107 61.9126 225.107C60.8097 225.107 59.9414 224.751 59.3076 224.039C58.6738 223.326 58.3569 222.331 58.3569 221.052C58.3569 220.254 58.5073 219.55 58.8081 218.941C59.1125 218.333 59.5475 217.864 60.1133 217.534C60.6826 217.201 61.3433 217.035 62.0952 217.035C62.8615 217.035 63.5472 217.178 64.1523 217.464L63.9321 217.958C63.3592 217.672 62.7576 217.529 62.1274 217.529ZM72.209 221.063C72.209 222.309 71.8975 223.296 71.2744 224.022C70.6514 224.746 69.792 225.107 68.6963 225.107C67.6042 225.107 66.7466 224.746 66.1235 224.022C65.5005 223.296 65.189 222.306 65.189 221.052C65.189 219.803 65.5023 218.82 66.1289 218.104C66.7591 217.384 67.6185 217.024 68.707 217.024C69.8027 217.024 70.6603 217.386 71.2798 218.109C71.8993 218.829 72.209 219.813 72.209 221.063ZM65.7852 221.063C65.7852 222.187 66.0358 223.057 66.5371 223.673C67.0384 224.286 67.7581 224.592 68.6963 224.592C69.6416 224.592 70.3631 224.287 70.8608 223.679C71.3621 223.07 71.6128 222.198 71.6128 221.063C71.6128 219.931 71.3621 219.065 70.8608 218.463C70.3631 217.858 69.6452 217.556 68.707 217.556C67.7725 217.556 67.0509 217.86 66.5425 218.469C66.0376 219.077 65.7852 219.942 65.7852 221.063ZM78.4287 225H73.5142V224.527L75.6035 222.347C76.1908 221.738 76.6025 221.272 76.8389 220.95C77.0752 220.628 77.2489 220.32 77.3599 220.026C77.4709 219.733 77.5264 219.425 77.5264 219.103C77.5264 218.633 77.3724 218.252 77.0645 217.958C76.7565 217.665 76.3573 217.518 75.8667 217.518C75.2114 217.518 74.5848 217.756 73.9868 218.232L73.6968 217.862C74.3521 217.31 75.0789 217.035 75.8774 217.035C76.5614 217.035 77.0985 217.217 77.4888 217.583C77.8826 217.948 78.0796 218.451 78.0796 219.092C78.0796 219.611 77.9471 220.114 77.6821 220.601C77.4207 221.084 76.9409 221.682 76.2427 222.395L74.2285 224.463V224.484H78.4287V225ZM85.5239 225.107C84.6252 225.107 83.9699 224.771 83.5581 224.098H83.5205L83.5366 224.549C83.5509 224.814 83.5581 225.104 83.5581 225.419V227.643H83.0264V219.162H83.4775L83.5796 219.994H83.6118C84.0129 219.364 84.6538 219.049 85.5347 219.049C86.3224 219.049 86.9222 219.308 87.334 219.828C87.7493 220.343 87.957 221.095 87.957 222.083C87.957 223.043 87.7386 223.788 87.3018 224.318C86.8685 224.844 86.2759 225.107 85.5239 225.107ZM85.5132 224.635C86.1112 224.635 86.5731 224.413 86.8989 223.969C87.2284 223.525 87.3931 222.903 87.3931 222.105C87.3931 220.39 86.7736 219.532 85.5347 219.532C84.8543 219.532 84.3548 219.72 84.0361 220.096C83.7174 220.469 83.5581 221.077 83.5581 221.922V222.094C83.5581 223.007 83.7103 223.659 84.0146 224.049C84.3226 224.44 84.8221 224.635 85.5132 224.635ZM94.4077 222.073C94.4077 223.025 94.1768 223.77 93.7148 224.307C93.2529 224.841 92.6156 225.107 91.8027 225.107C91.2907 225.107 90.8395 224.984 90.4492 224.737C90.0589 224.49 89.7599 224.135 89.5522 223.673C89.3446 223.211 89.2407 222.678 89.2407 222.073C89.2407 221.12 89.4717 220.379 89.9336 219.849C90.3955 219.316 91.0293 219.049 91.835 219.049C92.637 219.049 93.2655 219.319 93.7202 219.86C94.1785 220.397 94.4077 221.135 94.4077 222.073ZM89.7993 222.073C89.7993 222.875 89.9748 223.501 90.3257 223.953C90.6802 224.4 91.1797 224.624 91.8242 224.624C92.4688 224.624 92.9665 224.4 93.3174 223.953C93.6719 223.501 93.8491 222.875 93.8491 222.073C93.8491 221.267 93.6701 220.642 93.312 220.198C92.9575 219.754 92.458 219.532 91.8135 219.532C91.1689 219.532 90.6712 219.754 90.3203 220.198C89.973 220.639 89.7993 221.264 89.7993 222.073ZM98.3232 219.049C98.5703 219.049 98.8353 219.074 99.1182 219.124L99.0161 219.634C98.7726 219.573 98.5202 219.543 98.2588 219.543C97.7611 219.543 97.3529 219.754 97.0342 220.177C96.7155 220.599 96.5562 221.133 96.5562 221.777V225H96.0244V219.162H96.4756L96.5293 220.214H96.5669C96.8068 219.785 97.0628 219.484 97.335 219.312C97.6071 219.137 97.9365 219.049 98.3232 219.049ZM103.689 222.438L106.67 219.162H107.314L105.016 221.654L107.513 225H106.874L104.656 222.051L103.7 222.921V225H103.168V216.643H103.7V220.832L103.662 222.438H103.689ZM109.028 225H108.496V219.162H109.028V225ZM108.421 217.54C108.421 217.196 108.534 217.024 108.759 217.024C108.87 217.024 108.956 217.069 109.017 217.158C109.082 217.248 109.114 217.375 109.114 217.54C109.114 217.701 109.082 217.828 109.017 217.921C108.956 218.014 108.87 218.061 108.759 218.061C108.534 218.061 108.421 217.887 108.421 217.54ZM111.52 225H110.988V216.643H111.52V225ZM118.309 222.073C118.309 223.025 118.078 223.77 117.616 224.307C117.154 224.841 116.517 225.107 115.704 225.107C115.192 225.107 114.741 224.984 114.351 224.737C113.96 224.49 113.661 224.135 113.454 223.673C113.246 223.211 113.142 222.678 113.142 222.073C113.142 221.12 113.373 220.379 113.835 219.849C114.297 219.316 114.931 219.049 115.736 219.049C116.538 219.049 117.167 219.319 117.622 219.86C118.08 220.397 118.309 221.135 118.309 222.073ZM113.701 222.073C113.701 222.875 113.876 223.501 114.227 223.953C114.582 224.4 115.081 224.624 115.726 224.624C116.37 224.624 116.868 224.4 117.219 223.953C117.573 223.501 117.75 222.875 117.75 222.073C117.75 221.267 117.571 220.642 117.213 220.198C116.859 219.754 116.359 219.532 115.715 219.532C115.07 219.532 114.573 219.754 114.222 220.198C113.874 220.639 113.701 221.264 113.701 222.073ZM115.183 218.249C115.444 217.966 115.702 217.66 115.957 217.33C116.214 216.997 116.39 216.745 116.483 216.573H117.24V216.664C117.111 216.85 116.891 217.097 116.58 217.405C116.272 217.713 115.931 218.023 115.559 218.334H115.183V218.249ZM127.22 225V221.17C127.22 220.601 127.109 220.186 126.887 219.924C126.665 219.663 126.325 219.532 125.866 219.532C125.268 219.532 124.826 219.697 124.54 220.026C124.253 220.356 124.11 220.873 124.11 221.579V225H123.567V221.009C123.567 220.025 123.116 219.532 122.214 219.532C121.602 219.532 121.156 219.711 120.876 220.069C120.597 220.424 120.458 220.993 120.458 221.777V225H119.926V219.162H120.366L120.479 219.962H120.511C120.672 219.672 120.902 219.448 121.199 219.291C121.496 219.129 121.824 219.049 122.182 219.049C123.102 219.049 123.693 219.394 123.954 220.085H123.976C124.165 219.752 124.42 219.496 124.738 219.317C125.061 219.138 125.426 219.049 125.834 219.049C126.471 219.049 126.949 219.219 127.268 219.559C127.587 219.899 127.746 220.44 127.746 221.181V225H127.22ZM131.995 225.107C131.146 225.107 130.484 224.846 130.007 224.323C129.535 223.8 129.298 223.068 129.298 222.126C129.298 221.195 129.528 220.451 129.986 219.892C130.444 219.33 131.062 219.049 131.839 219.049C132.526 219.049 133.069 219.289 133.466 219.769C133.864 220.248 134.062 220.9 134.062 221.724V222.153H129.857C129.864 222.955 130.05 223.568 130.416 223.99C130.784 224.413 131.311 224.624 131.995 224.624C132.328 224.624 132.619 224.601 132.87 224.554C133.124 224.508 133.445 224.407 133.832 224.253V224.737C133.502 224.88 133.198 224.977 132.918 225.027C132.639 225.081 132.331 225.107 131.995 225.107ZM131.839 219.521C131.277 219.521 130.826 219.708 130.485 220.08C130.145 220.449 129.946 220.982 129.889 221.681H133.499C133.499 221.004 133.352 220.476 133.058 220.096C132.764 219.713 132.358 219.521 131.839 219.521ZM137.215 224.635C137.552 224.635 137.846 224.606 138.096 224.549V224.979C137.838 225.064 137.541 225.107 137.205 225.107C136.689 225.107 136.308 224.97 136.061 224.694C135.817 224.418 135.695 223.985 135.695 223.394V219.624H134.831V219.312L135.695 219.07L135.964 217.749H136.238V219.162H137.951V219.624H136.238V223.319C136.238 223.766 136.317 224.098 136.474 224.312C136.632 224.527 136.879 224.635 137.215 224.635ZM141.657 219.049C141.904 219.049 142.169 219.074 142.452 219.124L142.35 219.634C142.107 219.573 141.854 219.543 141.593 219.543C141.095 219.543 140.687 219.754 140.368 220.177C140.049 220.599 139.89 221.133 139.89 221.777V225H139.358V219.162H139.81L139.863 220.214H139.901C140.141 219.785 140.397 219.484 140.669 219.312C140.941 219.137 141.271 219.049 141.657 219.049ZM148.473 222.073C148.473 223.025 148.242 223.77 147.78 224.307C147.318 224.841 146.681 225.107 145.868 225.107C145.356 225.107 144.905 224.984 144.515 224.737C144.124 224.49 143.825 224.135 143.618 223.673C143.41 223.211 143.306 222.678 143.306 222.073C143.306 221.12 143.537 220.379 143.999 219.849C144.461 219.316 145.095 219.049 145.9 219.049C146.702 219.049 147.331 219.319 147.786 219.86C148.244 220.397 148.473 221.135 148.473 222.073ZM143.865 222.073C143.865 222.875 144.04 223.501 144.391 223.953C144.746 224.4 145.245 224.624 145.89 224.624C146.534 224.624 147.032 224.4 147.383 223.953C147.737 223.501 147.915 222.875 147.915 222.073C147.915 221.267 147.736 220.642 147.377 220.198C147.023 219.754 146.523 219.532 145.879 219.532C145.234 219.532 144.737 219.754 144.386 220.198C144.038 220.639 143.865 221.264 143.865 222.073Z" fill="#3F796F"/>
</g>
<defs>
<clipPath id="clip0">
<rect width="255" height="240" fill="white"/>
</clipPath>
</defs>
</svg>
