<svg width="363" height="193" viewBox="0 0 363 193" fill="none" xmlns="http://www.w3.org/2000/svg">
<path d="M11.5752 15.4521C11.5752 17.6084 11.0098 19.2402 9.87891 20.3477C8.74805 21.4492 7.08691 22 4.89551 22H1.81934V9.15039H5.29102C7.3418 9.15039 8.90039 9.68652 9.9668 10.7588C11.0391 11.8311 11.5752 13.3955 11.5752 15.4521ZM10.5996 15.4873C10.5996 13.6475 10.1309 12.2646 9.19336 11.3389C8.26172 10.4072 6.89062 9.94141 5.08008 9.94141H2.71582V21.209H4.84277C8.68066 21.209 10.5996 19.3018 10.5996 15.4873ZM15.1787 22H14.3086V12.4463H15.1787V22ZM14.1855 9.79199C14.1855 9.22949 14.3701 8.94824 14.7393 8.94824C14.9209 8.94824 15.0615 9.02148 15.1611 9.16797C15.2666 9.31445 15.3193 9.52246 15.3193 9.79199C15.3193 10.0557 15.2666 10.2637 15.1611 10.416C15.0615 10.5684 14.9209 10.6445 14.7393 10.6445C14.3701 10.6445 14.1855 10.3604 14.1855 9.79199ZM24.3105 19.5127C24.3105 20.3682 23.9854 21.0273 23.335 21.4902C22.6846 21.9473 21.7617 22.1758 20.5664 22.1758C19.2891 22.1758 18.2754 21.9795 17.5254 21.5869V20.6465C18.4863 21.127 19.5 21.3672 20.5664 21.3672C21.5098 21.3672 22.2246 21.2119 22.7109 20.9014C23.2031 20.585 23.4492 20.166 23.4492 19.6445C23.4492 19.1641 23.2529 18.7598 22.8604 18.4316C22.4736 18.1035 21.835 17.7812 20.9443 17.4648C19.9893 17.1191 19.3184 16.8232 18.9316 16.5771C18.5449 16.3252 18.252 16.0439 18.0527 15.7334C17.8594 15.417 17.7627 15.0332 17.7627 14.582C17.7627 13.8672 18.0615 13.3018 18.6592 12.8857C19.2627 12.4697 20.1035 12.2617 21.1816 12.2617C22.2129 12.2617 23.1914 12.4551 24.1172 12.8418L23.792 13.6328C22.8545 13.2461 21.9844 13.0527 21.1816 13.0527C20.4023 13.0527 19.7842 13.1816 19.3271 13.4395C18.8701 13.6973 18.6416 14.0547 18.6416 14.5117C18.6416 15.0098 18.8174 15.4082 19.1689 15.707C19.5264 16.0059 20.2207 16.3398 21.252 16.709C22.1133 17.0195 22.7402 17.3008 23.1328 17.5527C23.5254 17.7988 23.8184 18.0801 24.0117 18.3965C24.2109 18.7129 24.3105 19.085 24.3105 19.5127ZM30.6299 22.1758C29.2412 22.1758 28.1572 21.748 27.3779 20.8926C26.6045 20.0371 26.2178 18.8389 26.2178 17.2979C26.2178 15.7744 26.5928 14.5557 27.3428 13.6416C28.0928 12.7217 29.1035 12.2617 30.375 12.2617C31.5 12.2617 32.3877 12.6543 33.0381 13.4395C33.6885 14.2246 34.0137 15.291 34.0137 16.6387V17.3418H27.1318C27.1436 18.6543 27.4482 19.6562 28.0459 20.3477C28.6494 21.0391 29.5107 21.3848 30.6299 21.3848C31.1748 21.3848 31.6523 21.3467 32.0625 21.2705C32.4785 21.1943 33.0029 21.0303 33.6357 20.7783V21.5693C33.0967 21.8037 32.5986 21.9619 32.1416 22.0439C31.6846 22.1318 31.1807 22.1758 30.6299 22.1758ZM30.375 13.0352C29.4551 13.0352 28.7168 13.3398 28.1602 13.9492C27.6035 14.5527 27.2783 15.4258 27.1846 16.5684H33.0908C33.0908 15.4609 32.8506 14.5967 32.3701 13.9756C31.8896 13.3486 31.2246 13.0352 30.375 13.0352ZM43.3125 22V15.8037C43.3125 14.8428 43.1104 14.1455 42.7061 13.7119C42.3018 13.2725 41.6748 13.0527 40.8252 13.0527C39.6826 13.0527 38.8447 13.3428 38.3115 13.9229C37.7842 14.4971 37.5205 15.4316 37.5205 16.7266V22H36.6504V12.4463H37.3887L37.5557 13.7559H37.6084C38.2295 12.7598 39.334 12.2617 40.9219 12.2617C43.0898 12.2617 44.1738 13.4248 44.1738 15.751V22H43.3125ZM41.8975 11.0752C41.6865 11.0752 41.4668 11.0225 41.2383 10.917C41.0098 10.8057 40.7139 10.5947 40.3506 10.2842C40.1631 10.1318 39.9785 9.99707 39.7969 9.87988C39.6211 9.7627 39.4395 9.7041 39.252 9.7041C38.9883 9.7041 38.7686 9.80664 38.5928 10.0117C38.417 10.2109 38.2764 10.5654 38.1709 11.0752H37.5293C37.5879 10.4248 37.7725 9.91504 38.083 9.5459C38.3936 9.1709 38.7949 8.9834 39.2871 8.9834C39.5684 8.9834 39.8262 9.05664 40.0605 9.20312C40.2949 9.34961 40.5352 9.52246 40.7812 9.72168C40.9805 9.88574 41.1738 10.0322 41.3613 10.1611C41.5488 10.29 41.7275 10.3545 41.8975 10.3545C42.167 10.3545 42.3926 10.249 42.5742 10.0381C42.7559 9.82129 42.8965 9.46973 42.9961 8.9834H43.6641C43.5703 9.66309 43.3682 10.1816 43.0576 10.5391C42.7471 10.8965 42.3604 11.0752 41.8975 11.0752ZM55.1689 17.21C55.1689 18.7686 54.791 19.9873 54.0352 20.8662C53.2793 21.7393 52.2363 22.1758 50.9062 22.1758C50.0684 22.1758 49.3301 21.9736 48.6914 21.5693C48.0527 21.165 47.5635 20.585 47.2236 19.8291C46.8838 19.0732 46.7139 18.2002 46.7139 17.21C46.7139 15.6514 47.0918 14.4385 47.8477 13.5713C48.6035 12.6982 49.6406 12.2617 50.959 12.2617C52.2715 12.2617 53.2998 12.7041 54.0439 13.5889C54.7939 14.4678 55.1689 15.6748 55.1689 17.21ZM47.6279 17.21C47.6279 18.5225 47.915 19.5479 48.4893 20.2861C49.0693 21.0186 49.8867 21.3848 50.9414 21.3848C51.9961 21.3848 52.8105 21.0186 53.3848 20.2861C53.9648 19.5479 54.2549 18.5225 54.2549 17.21C54.2549 15.8916 53.9619 14.8691 53.376 14.1426C52.7959 13.416 51.9785 13.0527 50.9238 13.0527C49.8691 13.0527 49.0547 13.416 48.4805 14.1426C47.9121 14.8633 47.6279 15.8857 47.6279 17.21ZM66.3486 22.1758C64.96 22.1758 63.876 21.748 63.0967 20.8926C62.3232 20.0371 61.9365 18.8389 61.9365 17.2979C61.9365 15.7744 62.3115 14.5557 63.0615 13.6416C63.8115 12.7217 64.8223 12.2617 66.0938 12.2617C67.2188 12.2617 68.1064 12.6543 68.7568 13.4395C69.4072 14.2246 69.7324 15.291 69.7324 16.6387V17.3418H62.8506C62.8623 18.6543 63.167 19.6562 63.7646 20.3477C64.3682 21.0391 65.2295 21.3848 66.3486 21.3848C66.8936 21.3848 67.3711 21.3467 67.7812 21.2705C68.1973 21.1943 68.7217 21.0303 69.3545 20.7783V21.5693C68.8154 21.8037 68.3174 21.9619 67.8604 22.0439C67.4033 22.1318 66.8994 22.1758 66.3486 22.1758ZM66.0938 13.0352C65.1738 13.0352 64.4355 13.3398 63.8789 13.9492C63.3223 14.5527 62.9971 15.4258 62.9033 16.5684H68.8096C68.8096 15.4609 68.5693 14.5967 68.0889 13.9756C67.6084 13.3486 66.9434 13.0352 66.0938 13.0352ZM78.293 19.5127C78.293 20.3682 77.9678 21.0273 77.3174 21.4902C76.667 21.9473 75.7441 22.1758 74.5488 22.1758C73.2715 22.1758 72.2578 21.9795 71.5078 21.5869V20.6465C72.4688 21.127 73.4824 21.3672 74.5488 21.3672C75.4922 21.3672 76.207 21.2119 76.6934 20.9014C77.1855 20.585 77.4316 20.166 77.4316 19.6445C77.4316 19.1641 77.2354 18.7598 76.8428 18.4316C76.4561 18.1035 75.8174 17.7812 74.9268 17.4648C73.9717 17.1191 73.3008 16.8232 72.9141 16.5771C72.5273 16.3252 72.2344 16.0439 72.0352 15.7334C71.8418 15.417 71.7451 15.0332 71.7451 14.582C71.7451 13.8672 72.0439 13.3018 72.6416 12.8857C73.2451 12.4697 74.0859 12.2617 75.1641 12.2617C76.1953 12.2617 77.1738 12.4551 78.0996 12.8418L77.7744 13.6328C76.8369 13.2461 75.9668 13.0527 75.1641 13.0527C74.3848 13.0527 73.7666 13.1816 73.3096 13.4395C72.8525 13.6973 72.624 14.0547 72.624 14.5117C72.624 15.0098 72.7998 15.4082 73.1514 15.707C73.5088 16.0059 74.2031 16.3398 75.2344 16.709C76.0957 17.0195 76.7227 17.3008 77.1152 17.5527C77.5078 17.7988 77.8008 18.0801 77.9941 18.3965C78.1934 18.7129 78.293 19.085 78.293 19.5127ZM83.2764 21.4023C83.8271 21.4023 84.3076 21.3555 84.7178 21.2617V21.9648C84.2959 22.1055 83.8096 22.1758 83.2588 22.1758C82.415 22.1758 81.791 21.9502 81.3867 21.499C80.9883 21.0479 80.7891 20.3389 80.7891 19.3721V13.2021H79.374V12.6924L80.7891 12.2969L81.2285 10.1348H81.6768V12.4463H84.4805V13.2021H81.6768V19.249C81.6768 19.9814 81.8057 20.5234 82.0635 20.875C82.3213 21.2266 82.7256 21.4023 83.2764 21.4023ZM90.6416 22.1758C89.2529 22.1758 88.1689 21.748 87.3896 20.8926C86.6162 20.0371 86.2295 18.8389 86.2295 17.2979C86.2295 15.7744 86.6045 14.5557 87.3545 13.6416C88.1045 12.7217 89.1152 12.2617 90.3867 12.2617C91.5117 12.2617 92.3994 12.6543 93.0498 13.4395C93.7002 14.2246 94.0254 15.291 94.0254 16.6387V17.3418H87.1436C87.1553 18.6543 87.46 19.6562 88.0576 20.3477C88.6611 21.0391 89.5225 21.3848 90.6416 21.3848C91.1865 21.3848 91.6641 21.3467 92.0742 21.2705C92.4902 21.1943 93.0146 21.0303 93.6475 20.7783V21.5693C93.1084 21.8037 92.6104 21.9619 92.1533 22.0439C91.6963 22.1318 91.1924 22.1758 90.6416 22.1758ZM90.3867 13.0352C89.4668 13.0352 88.7285 13.3398 88.1719 13.9492C87.6152 14.5527 87.29 15.4258 87.1963 16.5684H93.1025C93.1025 15.4609 92.8623 14.5967 92.3818 13.9756C91.9014 13.3486 91.2363 13.0352 90.3867 13.0352ZM89.1562 10.9521C89.584 10.4893 90.0059 9.98828 90.4219 9.44922C90.8438 8.9043 91.1309 8.49121 91.2832 8.20996H92.5225V8.35938C92.3115 8.66406 91.9512 9.06836 91.4414 9.57227C90.9375 10.0762 90.3809 10.583 89.7715 11.0928H89.1562V10.9521ZM99.1846 21.4023C99.7354 21.4023 100.216 21.3555 100.626 21.2617V21.9648C100.204 22.1055 99.7178 22.1758 99.167 22.1758C98.3232 22.1758 97.6992 21.9502 97.2949 21.499C96.8965 21.0479 96.6973 20.3389 96.6973 19.3721V13.2021H95.2822V12.6924L96.6973 12.2969L97.1367 10.1348H97.585V12.4463H100.389V13.2021H97.585V19.249C97.585 19.9814 97.7139 20.5234 97.9717 20.875C98.2295 21.2266 98.6338 21.4023 99.1846 21.4023ZM103.562 22H102.691V12.4463H103.562V22ZM102.568 9.79199C102.568 9.22949 102.753 8.94824 103.122 8.94824C103.304 8.94824 103.444 9.02148 103.544 9.16797C103.649 9.31445 103.702 9.52246 103.702 9.79199C103.702 10.0557 103.649 10.2637 103.544 10.416C103.444 10.5684 103.304 10.6445 103.122 10.6445C102.753 10.6445 102.568 10.3604 102.568 9.79199ZM110.584 22.1758C109.219 22.1758 108.149 21.7451 107.376 20.8838C106.603 20.0225 106.216 18.8213 106.216 17.2803C106.216 15.6982 106.617 14.4678 107.42 13.5889C108.223 12.7041 109.321 12.2617 110.716 12.2617C111.542 12.2617 112.333 12.4053 113.089 12.6924L112.852 13.4658C112.025 13.1904 111.308 13.0527 110.698 13.0527C109.526 13.0527 108.639 13.416 108.035 14.1426C107.432 14.8633 107.13 15.9033 107.13 17.2627C107.13 18.5518 107.432 19.5625 108.035 20.2949C108.639 21.0215 109.482 21.3848 110.566 21.3848C111.434 21.3848 112.239 21.2295 112.983 20.9189V21.7275C112.374 22.0264 111.574 22.1758 110.584 22.1758ZM123.231 17.21C123.231 18.7686 122.854 19.9873 122.098 20.8662C121.342 21.7393 120.299 22.1758 118.969 22.1758C118.131 22.1758 117.393 21.9736 116.754 21.5693C116.115 21.165 115.626 20.585 115.286 19.8291C114.946 19.0732 114.776 18.2002 114.776 17.21C114.776 15.6514 115.154 14.4385 115.91 13.5713C116.666 12.6982 117.703 12.2617 119.021 12.2617C120.334 12.2617 121.362 12.7041 122.106 13.5889C122.856 14.4678 123.231 15.6748 123.231 17.21ZM115.69 17.21C115.69 18.5225 115.978 19.5479 116.552 20.2861C117.132 21.0186 117.949 21.3848 119.004 21.3848C120.059 21.3848 120.873 21.0186 121.447 20.2861C122.027 19.5479 122.317 18.5225 122.317 17.21C122.317 15.8916 122.024 14.8691 121.438 14.1426C120.858 13.416 120.041 13.0527 118.986 13.0527C117.932 13.0527 117.117 13.416 116.543 14.1426C115.975 14.8633 115.69 15.8857 115.69 17.21Z" fill="#00020D"/>
<path d="M2.71582 62H1.81934V49.1504H8.85938V49.9766H2.71582V55.4258H8.5166V56.2607H2.71582V62ZM11.3906 52.4463V58.6338C11.3906 59.5947 11.5928 60.2949 11.9971 60.7344C12.4014 61.168 13.0283 61.3848 13.8779 61.3848C15.0146 61.3848 15.8496 61.0977 16.3828 60.5234C16.9219 59.9492 17.1914 59.0146 17.1914 57.7197V52.4463H18.0527V62H17.3145L17.1562 60.6816H17.1035C16.4824 61.6777 15.3779 62.1758 13.79 62.1758C11.6162 62.1758 10.5293 61.0127 10.5293 58.6865V52.4463H11.3906ZM27.9141 62V55.8037C27.9141 54.8428 27.7119 54.1455 27.3076 53.7119C26.9033 53.2725 26.2764 53.0527 25.4268 53.0527C24.2842 53.0527 23.4463 53.3428 22.9131 53.9229C22.3857 54.4971 22.1221 55.4316 22.1221 56.7266V62H21.252V52.4463H21.9902L22.1572 53.7559H22.21C22.8311 52.7598 23.9355 52.2617 25.5234 52.2617C27.6914 52.2617 28.7754 53.4248 28.7754 55.751V62H27.9141ZM35.6836 62.1758C34.3184 62.1758 33.249 61.7451 32.4756 60.8838C31.7021 60.0225 31.3154 58.8213 31.3154 57.2803C31.3154 55.6982 31.7168 54.4678 32.5195 53.5889C33.3223 52.7041 34.4209 52.2617 35.8154 52.2617C36.6416 52.2617 37.4326 52.4053 38.1885 52.6924L37.9512 53.4658C37.125 53.1904 36.4072 53.0527 35.7979 53.0527C34.626 53.0527 33.7383 53.416 33.1348 54.1426C32.5312 54.8633 32.2295 55.9033 32.2295 57.2627C32.2295 58.5518 32.5312 59.5625 33.1348 60.2949C33.7383 61.0215 34.582 61.3848 35.666 61.3848C36.5332 61.3848 37.3389 61.2295 38.083 60.9189V61.7275C37.4736 62.0264 36.6738 62.1758 35.6836 62.1758ZM41.2998 62H40.4297V52.4463H41.2998V62ZM40.3066 49.792C40.3066 49.2295 40.4912 48.9482 40.8604 48.9482C41.042 48.9482 41.1826 49.0215 41.2822 49.168C41.3877 49.3145 41.4404 49.5225 41.4404 49.792C41.4404 50.0557 41.3877 50.2637 41.2822 50.416C41.1826 50.5684 41.042 50.6445 40.8604 50.6445C40.4912 50.6445 40.3066 50.3604 40.3066 49.792ZM52.4092 57.21C52.4092 58.7686 52.0312 59.9873 51.2754 60.8662C50.5195 61.7393 49.4766 62.1758 48.1465 62.1758C47.3086 62.1758 46.5703 61.9736 45.9316 61.5693C45.293 61.165 44.8037 60.585 44.4639 59.8291C44.124 59.0732 43.9541 58.2002 43.9541 57.21C43.9541 55.6514 44.332 54.4385 45.0879 53.5713C45.8438 52.6982 46.8809 52.2617 48.1992 52.2617C49.5117 52.2617 50.54 52.7041 51.2842 53.5889C52.0342 54.4678 52.4092 55.6748 52.4092 57.21ZM44.8682 57.21C44.8682 58.5225 45.1553 59.5479 45.7295 60.2861C46.3096 61.0186 47.127 61.3848 48.1816 61.3848C49.2363 61.3848 50.0508 61.0186 50.625 60.2861C51.2051 59.5479 51.4951 58.5225 51.4951 57.21C51.4951 55.8916 51.2021 54.8691 50.6162 54.1426C50.0361 53.416 49.2188 53.0527 48.1641 53.0527C47.1094 53.0527 46.2949 53.416 45.7207 54.1426C45.1523 54.8633 44.8682 55.8857 44.8682 57.21ZM61.7168 62V55.8037C61.7168 54.8428 61.5146 54.1455 61.1104 53.7119C60.7061 53.2725 60.0791 53.0527 59.2295 53.0527C58.0869 53.0527 57.249 53.3428 56.7158 53.9229C56.1885 54.4971 55.9248 55.4316 55.9248 56.7266V62H55.0547V52.4463H55.793L55.96 53.7559H56.0127C56.6338 52.7598 57.7383 52.2617 59.3262 52.2617C61.4941 52.2617 62.5781 53.4248 62.5781 55.751V62H61.7168ZM71.4727 62L71.2529 60.4883H71.1826C70.7021 61.1035 70.207 61.54 69.6973 61.7979C69.1934 62.0498 68.5957 62.1758 67.9043 62.1758C66.9668 62.1758 66.2373 61.9355 65.7158 61.4551C65.1943 60.9746 64.9336 60.3096 64.9336 59.46C64.9336 58.5283 65.3203 57.8047 66.0938 57.2891C66.873 56.7734 67.998 56.501 69.4688 56.4717L71.2881 56.4189V55.7861C71.2881 54.8779 71.1035 54.1924 70.7344 53.7295C70.3652 53.2666 69.7705 53.0352 68.9502 53.0352C68.0654 53.0352 67.1484 53.2812 66.1992 53.7734L65.874 53.0176C66.9229 52.5254 67.96 52.2793 68.9854 52.2793C70.0342 52.2793 70.8164 52.5518 71.332 53.0967C71.8535 53.6416 72.1143 54.4912 72.1143 55.6455V62H71.4727ZM67.957 61.3848C68.9766 61.3848 69.7793 61.0947 70.3652 60.5146C70.957 59.9287 71.2529 59.1172 71.2529 58.0801V57.1396L69.583 57.21C68.2412 57.2744 67.2832 57.4854 66.709 57.8428C66.1406 58.1943 65.8564 58.7451 65.8564 59.4951C65.8564 60.0928 66.0381 60.5586 66.4014 60.8926C66.7705 61.2207 67.2891 61.3848 67.957 61.3848ZM76.0869 62H75.2168V48.3242H76.0869V62Z" fill="#00020D"/>
<path d="M2.71582 102H1.81934V89.1504H8.85938V89.9766H2.71582V95.4258H8.5166V96.2607H2.71582V102ZM16.4355 102L16.2158 100.488H16.1455C15.665 101.104 15.1699 101.54 14.6602 101.798C14.1562 102.05 13.5586 102.176 12.8672 102.176C11.9297 102.176 11.2002 101.936 10.6787 101.455C10.1572 100.975 9.89648 100.31 9.89648 99.46C9.89648 98.5283 10.2832 97.8047 11.0566 97.2891C11.8359 96.7734 12.9609 96.501 14.4316 96.4717L16.251 96.4189V95.7861C16.251 94.8779 16.0664 94.1924 15.6973 93.7295C15.3281 93.2666 14.7334 93.0352 13.9131 93.0352C13.0283 93.0352 12.1113 93.2812 11.1621 93.7734L10.8369 93.0176C11.8857 92.5254 12.9229 92.2793 13.9482 92.2793C14.9971 92.2793 15.7793 92.5518 16.2949 93.0967C16.8164 93.6416 17.0771 94.4912 17.0771 95.6455V102H16.4355ZM12.9199 101.385C13.9395 101.385 14.7422 101.095 15.3281 100.515C15.9199 99.9287 16.2158 99.1172 16.2158 98.0801V97.1396L14.5459 97.21C13.2041 97.2744 12.2461 97.4854 11.6719 97.8428C11.1035 98.1943 10.8193 98.7451 10.8193 99.4951C10.8193 100.093 11.001 100.559 11.3643 100.893C11.7334 101.221 12.252 101.385 12.9199 101.385ZM12.7441 90.9521C13.1719 90.4893 13.5938 89.9883 14.0098 89.4492C14.4316 88.9043 14.7188 88.4912 14.8711 88.21H16.1104V88.3594C15.8994 88.6641 15.5391 89.0684 15.0293 89.5723C14.5254 90.0762 13.9688 90.583 13.3594 91.0928H12.7441V90.9521ZM23.9941 102.176C22.6289 102.176 21.5596 101.745 20.7861 100.884C20.0127 100.022 19.626 98.8213 19.626 97.2803C19.626 95.6982 20.0273 94.4678 20.8301 93.5889C21.6328 92.7041 22.7314 92.2617 24.126 92.2617C24.9521 92.2617 25.7432 92.4053 26.499 92.6924L26.2617 93.4658C25.4355 93.1904 24.7178 93.0527 24.1084 93.0527C22.9365 93.0527 22.0488 93.416 21.4453 94.1426C20.8418 94.8633 20.54 95.9033 20.54 97.2627C20.54 98.5518 20.8418 99.5625 21.4453 100.295C22.0488 101.021 22.8926 101.385 23.9766 101.385C24.8438 101.385 25.6494 101.229 26.3936 100.919V101.728C25.7842 102.026 24.9844 102.176 23.9941 102.176ZM29.6104 102H28.7402V92.4463H29.6104V102ZM28.6172 89.792C28.6172 89.2295 28.8018 88.9482 29.1709 88.9482C29.3525 88.9482 29.4932 89.0215 29.5928 89.168C29.6982 89.3145 29.751 89.5225 29.751 89.792C29.751 90.0557 29.6982 90.2637 29.5928 90.416C29.4932 90.5684 29.3525 90.6445 29.1709 90.6445C28.8018 90.6445 28.6172 90.3604 28.6172 89.792ZM33.6885 102H32.8184V88.3242H33.6885V102ZM45.0703 92.2617C45.7617 92.2617 46.3594 92.3877 46.8633 92.6396C47.3672 92.8916 47.8184 93.3223 48.2168 93.9316H48.2695C48.2344 93.1934 48.2168 92.4697 48.2168 91.7607V88.3242H49.0781V102H48.5068L48.2871 100.541H48.2168C47.4902 101.631 46.4473 102.176 45.0879 102.176C43.7695 102.176 42.7617 101.766 42.0645 100.945C41.3672 100.125 41.0186 98.9297 41.0186 97.3594C41.0186 95.707 41.3643 94.4443 42.0557 93.5713C42.7471 92.6982 43.752 92.2617 45.0703 92.2617ZM45.0703 93.0527C44.0273 93.0527 43.2422 93.4189 42.7148 94.1514C42.1934 94.8838 41.9326 95.9473 41.9326 97.3418C41.9326 100.049 42.9844 101.402 45.0879 101.402C46.166 101.402 46.957 101.089 47.4609 100.462C47.9648 99.835 48.2168 98.8008 48.2168 97.3594V97.21C48.2168 95.7334 47.9678 94.6729 47.4697 94.0283C46.9775 93.3779 46.1777 93.0527 45.0703 93.0527ZM56.1533 102.176C54.7646 102.176 53.6807 101.748 52.9014 100.893C52.1279 100.037 51.7412 98.8389 51.7412 97.2979C51.7412 95.7744 52.1162 94.5557 52.8662 93.6416C53.6162 92.7217 54.627 92.2617 55.8984 92.2617C57.0234 92.2617 57.9111 92.6543 58.5615 93.4395C59.2119 94.2246 59.5371 95.291 59.5371 96.6387V97.3418H52.6553C52.667 98.6543 52.9717 99.6562 53.5693 100.348C54.1729 101.039 55.0342 101.385 56.1533 101.385C56.6982 101.385 57.1758 101.347 57.5859 101.271C58.002 101.194 58.5264 101.03 59.1592 100.778V101.569C58.6201 101.804 58.1221 101.962 57.665 102.044C57.208 102.132 56.7041 102.176 56.1533 102.176ZM55.8984 93.0352C54.9785 93.0352 54.2402 93.3398 53.6836 93.9492C53.127 94.5527 52.8018 95.4258 52.708 96.5684H58.6143C58.6143 95.4609 58.374 94.5967 57.8936 93.9756C57.4131 93.3486 56.748 93.0352 55.8984 93.0352ZM67.7197 102H66.8496V88.3242H67.7197V102ZM71.7979 102H70.9277V92.4463H71.7979V102ZM70.8047 89.792C70.8047 89.2295 70.9893 88.9482 71.3584 88.9482C71.54 88.9482 71.6807 89.0215 71.7803 89.168C71.8857 89.3145 71.9385 89.5225 71.9385 89.792C71.9385 90.0557 71.8857 90.2637 71.7803 90.416C71.6807 90.5684 71.54 90.6445 71.3584 90.6445C70.9893 90.6445 70.8047 90.3604 70.8047 89.792ZM86.9414 102V95.7334C86.9414 94.8018 86.7598 94.1221 86.3965 93.6943C86.0332 93.2666 85.4766 93.0527 84.7266 93.0527C83.748 93.0527 83.0244 93.3223 82.5557 93.8613C82.0869 94.4004 81.8525 95.2471 81.8525 96.4014V102H80.9648V95.4697C80.9648 93.8584 80.2266 93.0527 78.75 93.0527C77.748 93.0527 77.0186 93.3457 76.5615 93.9316C76.1045 94.5117 75.876 95.4434 75.876 96.7266V102H75.0059V92.4463H75.7266L75.9111 93.7559H75.9639C76.2275 93.2812 76.6025 92.915 77.0889 92.6572C77.5752 92.3936 78.1113 92.2617 78.6973 92.2617C80.2031 92.2617 81.1699 92.8271 81.5977 93.958H81.6328C81.9434 93.4131 82.3594 92.9941 82.8809 92.7012C83.4082 92.4082 84.0059 92.2617 84.6738 92.2617C85.7168 92.2617 86.499 92.54 87.0205 93.0967C87.542 93.6533 87.8027 94.5381 87.8027 95.751V102H86.9414ZM94.9834 102.176C93.5127 102.176 92.4404 101.625 91.7666 100.523H91.7051L91.7314 101.262C91.7549 101.695 91.7666 102.17 91.7666 102.686V106.324H90.8965V92.4463H91.6348L91.8018 93.8086H91.8545C92.5107 92.7773 93.5596 92.2617 95.001 92.2617C96.29 92.2617 97.2715 92.6865 97.9453 93.5361C98.625 94.3799 98.9648 95.6104 98.9648 97.2275C98.9648 98.7979 98.6074 100.017 97.8926 100.884C97.1836 101.745 96.2139 102.176 94.9834 102.176ZM94.9658 101.402C95.9443 101.402 96.7002 101.039 97.2334 100.312C97.7725 99.5859 98.042 98.5693 98.042 97.2627C98.042 94.4561 97.0283 93.0527 95.001 93.0527C93.8877 93.0527 93.0703 93.3604 92.5488 93.9756C92.0273 94.585 91.7666 95.5811 91.7666 96.9639V97.2451C91.7666 98.7393 92.0156 99.8057 92.5137 100.444C93.0176 101.083 93.835 101.402 94.9658 101.402ZM102.489 102H101.619V92.4463H102.489V102ZM101.496 89.792C101.496 89.2295 101.681 88.9482 102.05 88.9482C102.231 88.9482 102.372 89.0215 102.472 89.168C102.577 89.3145 102.63 89.5225 102.63 89.792C102.63 90.0557 102.577 90.2637 102.472 90.416C102.372 90.5684 102.231 90.6445 102.05 90.6445C101.681 90.6445 101.496 90.3604 101.496 89.792ZM111.498 102L111.278 100.488H111.208C110.728 101.104 110.232 101.54 109.723 101.798C109.219 102.05 108.621 102.176 107.93 102.176C106.992 102.176 106.263 101.936 105.741 101.455C105.22 100.975 104.959 100.31 104.959 99.46C104.959 98.5283 105.346 97.8047 106.119 97.2891C106.898 96.7734 108.023 96.501 109.494 96.4717L111.313 96.4189V95.7861C111.313 94.8779 111.129 94.1924 110.76 93.7295C110.391 93.2666 109.796 93.0352 108.976 93.0352C108.091 93.0352 107.174 93.2812 106.225 93.7734L105.899 93.0176C106.948 92.5254 107.985 92.2793 109.011 92.2793C110.06 92.2793 110.842 92.5518 111.357 93.0967C111.879 93.6416 112.14 94.4912 112.14 95.6455V102H111.498ZM107.982 101.385C109.002 101.385 109.805 101.095 110.391 100.515C110.982 99.9287 111.278 99.1172 111.278 98.0801V97.1396L109.608 97.21C108.267 97.2744 107.309 97.4854 106.734 97.8428C106.166 98.1943 105.882 98.7451 105.882 99.4951C105.882 100.093 106.063 100.559 106.427 100.893C106.796 101.221 107.314 101.385 107.982 101.385ZM119.004 92.2617C119.408 92.2617 119.842 92.3027 120.305 92.3848L120.138 93.2197C119.739 93.1201 119.326 93.0703 118.898 93.0703C118.084 93.0703 117.416 93.416 116.895 94.1074C116.373 94.7988 116.112 95.6719 116.112 96.7266V102H115.242V92.4463H115.98L116.068 94.1689H116.13C116.522 93.4658 116.941 92.9736 117.387 92.6924C117.832 92.4053 118.371 92.2617 119.004 92.2617Z" fill="#00020D"/>
<path d="M8.8418 142H1.81934V129.15H8.8418V129.977H2.71582V134.837H8.49902V135.663H2.71582V141.174H8.8418V142ZM15.293 132.262C15.6973 132.262 16.1309 132.303 16.5938 132.385L16.4268 133.22C16.0283 133.12 15.6152 133.07 15.1875 133.07C14.373 133.07 13.7051 133.416 13.1836 134.107C12.6621 134.799 12.4014 135.672 12.4014 136.727V142H11.5312V132.446H12.2695L12.3574 134.169H12.4189C12.8115 133.466 13.2305 132.974 13.6758 132.692C14.1211 132.405 14.6602 132.262 15.293 132.262ZM25.998 132.446V133.053L24.0205 133.176C24.5479 133.832 24.8115 134.553 24.8115 135.338C24.8115 136.258 24.5039 137.005 23.8887 137.579C23.2793 138.147 22.459 138.432 21.4277 138.432C20.9941 138.432 20.6895 138.414 20.5137 138.379C20.168 138.561 19.9043 138.774 19.7227 139.021C19.541 139.267 19.4502 139.527 19.4502 139.803C19.4502 140.107 19.5645 140.33 19.793 140.471C20.0273 140.611 20.417 140.682 20.9619 140.682H22.6318C23.6689 140.682 24.4629 140.893 25.0137 141.314C25.5645 141.73 25.8398 142.349 25.8398 143.169C25.8398 144.177 25.4297 144.953 24.6094 145.498C23.7949 146.049 22.6318 146.324 21.1201 146.324C19.9189 146.324 18.9873 146.093 18.3252 145.63C17.6689 145.167 17.3408 144.522 17.3408 143.696C17.3408 143.04 17.543 142.495 17.9473 142.062C18.3574 141.628 18.9111 141.332 19.6084 141.174C19.3213 141.051 19.0898 140.878 18.9141 140.655C18.7441 140.427 18.6592 140.166 18.6592 139.873C18.6592 139.234 19.0664 138.672 19.8809 138.186C19.3242 137.957 18.8906 137.6 18.5801 137.113C18.2695 136.621 18.1143 136.059 18.1143 135.426C18.1143 134.471 18.416 133.706 19.0195 133.132C19.6289 132.552 20.4492 132.262 21.4805 132.262C22.1074 132.262 22.5938 132.323 22.9395 132.446H25.998ZM18.2637 143.617C18.2637 144.93 19.2393 145.586 21.1904 145.586C23.6982 145.586 24.9521 144.786 24.9521 143.187C24.9521 142.612 24.7559 142.196 24.3633 141.938C23.9707 141.681 23.335 141.552 22.4561 141.552H20.8916C19.1396 141.552 18.2637 142.24 18.2637 143.617ZM18.9932 135.426C18.9932 136.164 19.2158 136.738 19.6611 137.148C20.1123 137.553 20.7129 137.755 21.4629 137.755C22.2598 137.755 22.8691 137.553 23.291 137.148C23.7188 136.744 23.9326 136.158 23.9326 135.391C23.9326 134.576 23.7129 133.967 23.2734 133.562C22.8398 133.152 22.2305 132.947 21.4453 132.947C20.6836 132.947 20.083 133.167 19.6436 133.606C19.21 134.04 18.9932 134.646 18.9932 135.426ZM35.8682 137.21C35.8682 138.769 35.4902 139.987 34.7344 140.866C33.9785 141.739 32.9355 142.176 31.6055 142.176C30.7676 142.176 30.0293 141.974 29.3906 141.569C28.752 141.165 28.2627 140.585 27.9229 139.829C27.583 139.073 27.4131 138.2 27.4131 137.21C27.4131 135.651 27.791 134.438 28.5469 133.571C29.3027 132.698 30.3398 132.262 31.6582 132.262C32.9707 132.262 33.999 132.704 34.7432 133.589C35.4932 134.468 35.8682 135.675 35.8682 137.21ZM28.3271 137.21C28.3271 138.522 28.6143 139.548 29.1885 140.286C29.7686 141.019 30.5859 141.385 31.6406 141.385C32.6953 141.385 33.5098 141.019 34.084 140.286C34.6641 139.548 34.9541 138.522 34.9541 137.21C34.9541 135.892 34.6611 134.869 34.0752 134.143C33.4951 133.416 32.6777 133.053 31.623 133.053C30.5684 133.053 29.7539 133.416 29.1797 134.143C28.6113 134.863 28.3271 135.886 28.3271 137.21ZM45.1758 142V135.804C45.1758 134.843 44.9736 134.146 44.5693 133.712C44.165 133.272 43.5381 133.053 42.6885 133.053C41.5459 133.053 40.708 133.343 40.1748 133.923C39.6475 134.497 39.3838 135.432 39.3838 136.727V142H38.5137V132.446H39.252L39.4189 133.756H39.4717C40.0928 132.76 41.1973 132.262 42.7852 132.262C44.9531 132.262 46.0371 133.425 46.0371 135.751V142H45.1758ZM57.0322 137.21C57.0322 138.769 56.6543 139.987 55.8984 140.866C55.1426 141.739 54.0996 142.176 52.7695 142.176C51.9316 142.176 51.1934 141.974 50.5547 141.569C49.916 141.165 49.4268 140.585 49.0869 139.829C48.7471 139.073 48.5771 138.2 48.5771 137.21C48.5771 135.651 48.9551 134.438 49.7109 133.571C50.4668 132.698 51.5039 132.262 52.8223 132.262C54.1348 132.262 55.1631 132.704 55.9072 133.589C56.6572 134.468 57.0322 135.675 57.0322 137.21ZM49.4912 137.21C49.4912 138.522 49.7783 139.548 50.3525 140.286C50.9326 141.019 51.75 141.385 52.8047 141.385C53.8594 141.385 54.6738 141.019 55.248 140.286C55.8281 139.548 56.1182 138.522 56.1182 137.21C56.1182 135.892 55.8252 134.869 55.2393 134.143C54.6592 133.416 53.8418 133.053 52.7871 133.053C51.7324 133.053 50.918 133.416 50.3438 134.143C49.7754 134.863 49.4912 135.886 49.4912 137.21ZM51.917 130.952C52.3447 130.489 52.7666 129.988 53.1826 129.449C53.6045 128.904 53.8916 128.491 54.0439 128.21H55.2832V128.359C55.0723 128.664 54.7119 129.068 54.2021 129.572C53.6982 130.076 53.1416 130.583 52.5322 131.093H51.917V130.952ZM71.6133 142V135.733C71.6133 134.802 71.4316 134.122 71.0684 133.694C70.7051 133.267 70.1484 133.053 69.3984 133.053C68.4199 133.053 67.6963 133.322 67.2275 133.861C66.7588 134.4 66.5244 135.247 66.5244 136.401V142H65.6367V135.47C65.6367 133.858 64.8984 133.053 63.4219 133.053C62.4199 133.053 61.6904 133.346 61.2334 133.932C60.7764 134.512 60.5479 135.443 60.5479 136.727V142H59.6777V132.446H60.3984L60.583 133.756H60.6357C60.8994 133.281 61.2744 132.915 61.7607 132.657C62.2471 132.394 62.7832 132.262 63.3691 132.262C64.875 132.262 65.8418 132.827 66.2695 133.958H66.3047C66.6152 133.413 67.0312 132.994 67.5527 132.701C68.0801 132.408 68.6777 132.262 69.3457 132.262C70.3887 132.262 71.1709 132.54 71.6924 133.097C72.2139 133.653 72.4746 134.538 72.4746 135.751V142H71.6133ZM76.4385 142H75.5684V132.446H76.4385V142ZM75.4453 129.792C75.4453 129.229 75.6299 128.948 75.999 128.948C76.1807 128.948 76.3213 129.021 76.4209 129.168C76.5264 129.314 76.5791 129.522 76.5791 129.792C76.5791 130.056 76.5264 130.264 76.4209 130.416C76.3213 130.568 76.1807 130.645 75.999 130.645C75.6299 130.645 75.4453 130.36 75.4453 129.792ZM83.4609 142.176C82.0957 142.176 81.0264 141.745 80.2529 140.884C79.4795 140.022 79.0928 138.821 79.0928 137.28C79.0928 135.698 79.4941 134.468 80.2969 133.589C81.0996 132.704 82.1982 132.262 83.5928 132.262C84.4189 132.262 85.21 132.405 85.9658 132.692L85.7285 133.466C84.9023 133.19 84.1846 133.053 83.5752 133.053C82.4033 133.053 81.5156 133.416 80.9121 134.143C80.3086 134.863 80.0068 135.903 80.0068 137.263C80.0068 138.552 80.3086 139.562 80.9121 140.295C81.5156 141.021 82.3594 141.385 83.4434 141.385C84.3105 141.385 85.1162 141.229 85.8604 140.919V141.728C85.251 142.026 84.4512 142.176 83.4609 142.176ZM96.1084 137.21C96.1084 138.769 95.7305 139.987 94.9746 140.866C94.2188 141.739 93.1758 142.176 91.8457 142.176C91.0078 142.176 90.2695 141.974 89.6309 141.569C88.9922 141.165 88.5029 140.585 88.1631 139.829C87.8232 139.073 87.6533 138.2 87.6533 137.21C87.6533 135.651 88.0312 134.438 88.7871 133.571C89.543 132.698 90.5801 132.262 91.8984 132.262C93.2109 132.262 94.2393 132.704 94.9834 133.589C95.7334 134.468 96.1084 135.675 96.1084 137.21ZM88.5674 137.21C88.5674 138.522 88.8545 139.548 89.4287 140.286C90.0088 141.019 90.8262 141.385 91.8809 141.385C92.9355 141.385 93.75 141.019 94.3242 140.286C94.9043 139.548 95.1943 138.522 95.1943 137.21C95.1943 135.892 94.9014 134.869 94.3154 134.143C93.7354 133.416 92.918 133.053 91.8633 133.053C90.8086 133.053 89.9941 133.416 89.4199 134.143C88.8516 134.863 88.5674 135.886 88.5674 137.21Z" fill="#00020D"/>
<path d="M8.91211 178.687C8.91211 179.759 8.5166 180.608 7.72559 181.235C6.94043 181.862 5.89453 182.176 4.58789 182.176C3.01758 182.176 1.81348 182.003 0.975586 181.657V180.761C1.90137 181.153 3.08203 181.35 4.51758 181.35C5.57227 181.35 6.40723 181.109 7.02246 180.629C7.64355 180.143 7.9541 179.507 7.9541 178.722C7.9541 178.235 7.85156 177.834 7.64648 177.518C7.44141 177.195 7.10742 176.902 6.64453 176.639C6.18164 176.375 5.50195 176.091 4.60547 175.786C3.29297 175.335 2.38477 174.849 1.88086 174.327C1.38281 173.8 1.13379 173.1 1.13379 172.227C1.13379 171.266 1.50879 170.483 2.25879 169.88C3.01465 169.271 3.98438 168.966 5.16797 168.966C6.375 168.966 7.50879 169.194 8.56934 169.651L8.24414 170.425C7.17773 169.979 6.1582 169.757 5.18555 169.757C4.23633 169.757 3.48047 169.977 2.91797 170.416C2.35547 170.855 2.07422 171.453 2.07422 172.209C2.07422 172.684 2.15918 173.073 2.3291 173.378C2.50488 173.683 2.78906 173.958 3.18164 174.204C3.57422 174.444 4.24805 174.734 5.20312 175.074C6.20508 175.42 6.95801 175.757 7.46191 176.085C7.96582 176.407 8.33203 176.776 8.56055 177.192C8.79492 177.603 8.91211 178.101 8.91211 178.687ZM15.2666 182.176C13.8779 182.176 12.7939 181.748 12.0146 180.893C11.2412 180.037 10.8545 178.839 10.8545 177.298C10.8545 175.774 11.2295 174.556 11.9795 173.642C12.7295 172.722 13.7402 172.262 15.0117 172.262C16.1367 172.262 17.0244 172.654 17.6748 173.439C18.3252 174.225 18.6504 175.291 18.6504 176.639V177.342H11.7686C11.7803 178.654 12.085 179.656 12.6826 180.348C13.2861 181.039 14.1475 181.385 15.2666 181.385C15.8115 181.385 16.2891 181.347 16.6992 181.271C17.1152 181.194 17.6396 181.03 18.2725 180.778V181.569C17.7334 181.804 17.2354 181.962 16.7783 182.044C16.3213 182.132 15.8174 182.176 15.2666 182.176ZM15.0117 173.035C14.0918 173.035 13.3535 173.34 12.7969 173.949C12.2402 174.553 11.915 175.426 11.8213 176.568H17.7275C17.7275 175.461 17.4873 174.597 17.0068 173.976C16.5264 173.349 15.8613 173.035 15.0117 173.035ZM28.7402 172.446V173.053L26.7627 173.176C27.29 173.832 27.5537 174.553 27.5537 175.338C27.5537 176.258 27.2461 177.005 26.6309 177.579C26.0215 178.147 25.2012 178.432 24.1699 178.432C23.7363 178.432 23.4316 178.414 23.2559 178.379C22.9102 178.561 22.6465 178.774 22.4648 179.021C22.2832 179.267 22.1924 179.527 22.1924 179.803C22.1924 180.107 22.3066 180.33 22.5352 180.471C22.7695 180.611 23.1592 180.682 23.7041 180.682H25.374C26.4111 180.682 27.2051 180.893 27.7559 181.314C28.3066 181.73 28.582 182.349 28.582 183.169C28.582 184.177 28.1719 184.953 27.3516 185.498C26.5371 186.049 25.374 186.324 23.8623 186.324C22.6611 186.324 21.7295 186.093 21.0674 185.63C20.4111 185.167 20.083 184.522 20.083 183.696C20.083 183.04 20.2852 182.495 20.6895 182.062C21.0996 181.628 21.6533 181.332 22.3506 181.174C22.0635 181.051 21.832 180.878 21.6562 180.655C21.4863 180.427 21.4014 180.166 21.4014 179.873C21.4014 179.234 21.8086 178.672 22.623 178.186C22.0664 177.957 21.6328 177.6 21.3223 177.113C21.0117 176.621 20.8564 176.059 20.8564 175.426C20.8564 174.471 21.1582 173.706 21.7617 173.132C22.3711 172.552 23.1914 172.262 24.2227 172.262C24.8496 172.262 25.3359 172.323 25.6816 172.446H28.7402ZM21.0059 183.617C21.0059 184.93 21.9814 185.586 23.9326 185.586C26.4404 185.586 27.6943 184.786 27.6943 183.187C27.6943 182.612 27.498 182.196 27.1055 181.938C26.7129 181.681 26.0771 181.552 25.1982 181.552H23.6338C21.8818 181.552 21.0059 182.24 21.0059 183.617ZM21.7354 175.426C21.7354 176.164 21.958 176.738 22.4033 177.148C22.8545 177.553 23.4551 177.755 24.2051 177.755C25.002 177.755 25.6113 177.553 26.0332 177.148C26.4609 176.744 26.6748 176.158 26.6748 175.391C26.6748 174.576 26.4551 173.967 26.0156 173.562C25.582 173.152 24.9727 172.947 24.1875 172.947C23.4258 172.947 22.8252 173.167 22.3857 173.606C21.9521 174.04 21.7354 174.646 21.7354 175.426ZM31.4648 172.446V178.634C31.4648 179.595 31.667 180.295 32.0713 180.734C32.4756 181.168 33.1025 181.385 33.9521 181.385C35.0889 181.385 35.9238 181.098 36.457 180.523C36.9961 179.949 37.2656 179.015 37.2656 177.72V172.446H38.127V182H37.3887L37.2305 180.682H37.1777C36.5566 181.678 35.4521 182.176 33.8643 182.176C31.6904 182.176 30.6035 181.013 30.6035 178.687V172.446H31.4648ZM45.0879 172.262C45.4922 172.262 45.9258 172.303 46.3887 172.385L46.2217 173.22C45.8232 173.12 45.4102 173.07 44.9824 173.07C44.168 173.07 43.5 173.416 42.9785 174.107C42.457 174.799 42.1963 175.672 42.1963 176.727V182H41.3262V172.446H42.0645L42.1523 174.169H42.2139C42.6064 173.466 43.0254 172.974 43.4707 172.692C43.916 172.405 44.4551 172.262 45.0879 172.262ZM56.2412 177.21C56.2412 178.769 55.8633 179.987 55.1074 180.866C54.3516 181.739 53.3086 182.176 51.9785 182.176C51.1406 182.176 50.4023 181.974 49.7637 181.569C49.125 181.165 48.6357 180.585 48.2959 179.829C47.9561 179.073 47.7861 178.2 47.7861 177.21C47.7861 175.651 48.1641 174.438 48.9199 173.571C49.6758 172.698 50.7129 172.262 52.0312 172.262C53.3438 172.262 54.3721 172.704 55.1162 173.589C55.8662 174.468 56.2412 175.675 56.2412 177.21ZM48.7002 177.21C48.7002 178.522 48.9873 179.548 49.5615 180.286C50.1416 181.019 50.959 181.385 52.0137 181.385C53.0684 181.385 53.8828 181.019 54.457 180.286C55.0371 179.548 55.3271 178.522 55.3271 177.21C55.3271 175.892 55.0342 174.869 54.4482 174.143C53.8682 173.416 53.0508 173.053 51.9961 173.053C50.9414 173.053 50.127 173.416 49.5527 174.143C48.9844 174.863 48.7002 175.886 48.7002 177.21Z" fill="#00020D"/>
<circle cx="190" cy="13" r="13" fill="#EAD360"/>
<circle cx="230" cy="13" r="13" fill="#EAD360"/>
<circle cx="270" cy="13" r="13" fill="#EAD360"/>
<circle cx="310" cy="13" r="13" fill="#EAD360"/>
<circle cx="350" cy="13" r="13" fill="#D7D7DE"/>
<circle cx="190" cy="53" r="13" fill="#EAD360"/>
<circle cx="230" cy="53" r="13" fill="#EAD360"/>
<circle cx="270" cy="53" r="13" fill="#EAD360"/>
<circle cx="310" cy="53" r="13" fill="#EAD360"/>
<circle cx="350" cy="53" r="13" fill="#EAD360"/>
<circle cx="190" cy="93" r="13" fill="#EAD360"/>
<circle cx="230" cy="93" r="13" fill="#EAD360"/>
<circle cx="270" cy="93" r="13" fill="#EAD360"/>
<circle cx="310" cy="93" r="13" fill="#EAD360"/>
<circle cx="350" cy="93" r="13" fill="#EAD360"/>
<circle cx="190" cy="133" r="13" fill="#EAD360"/>
<circle cx="230" cy="133" r="13" fill="#EAD360"/>
<circle cx="270" cy="133" r="13" fill="#EAD360"/>
<circle cx="310" cy="133" r="13" fill="#D7D7DE"/>
<circle cx="350" cy="133" r="13" fill="#D7D7DE"/>
<circle cx="190" cy="173" r="13" fill="#EAD360"/>
<circle cx="230" cy="173" r="13" fill="#EAD360"/>
<circle cx="270" cy="173" r="13" fill="#EAD360"/>
<circle cx="310" cy="173" r="13" fill="#EAD360"/>
<circle cx="350" cy="173" r="13" fill="#EAD360"/>
</svg>
