<svg width="509" height="212" viewBox="0 0 509 212" fill="none" xmlns="http://www.w3.org/2000/svg">
<rect width="509" height="212" fill="#F7F7F8"/>
<path d="M130.013 65.7449L127.214 56.617C126.715 54.9847 124.982 54.063 123.35 54.5627C122.694 54.7626 122.128 55.1734 121.74 55.7178C121.373 55.1513 120.84 54.7292 120.207 54.4963C121.451 52.042 122.095 49.3214 122.095 46.5674C122.095 36.8843 114.211 29 104.528 29C98.6421 29 93.1453 31.9427 89.8916 36.8621C89.4916 36.729 89.07 36.6622 88.6367 36.6622C86.4049 36.6622 84.5835 38.4831 84.5835 40.7153C84.5835 42.4031 85.6276 43.858 87.0933 44.4688C87.0157 45.1684 86.971 45.8677 86.971 46.5674C86.971 56.2505 94.8552 64.1347 104.538 64.1347C105.605 64.1347 106.682 64.035 107.726 63.8463L108.592 66.6667C106.626 66.1114 104.528 66.9556 103.517 68.7323C103.339 69.0433 103.439 69.432 103.739 69.6207L111.612 74.5956C113.833 77.4828 117.62 78.6817 121.107 77.616L124.205 76.6721C128.824 75.2619 131.423 70.3646 130.013 65.7449ZM85.916 40.7266C85.916 39.2275 87.1376 38.006 88.6367 38.006C90.1358 38.006 91.3573 39.2275 91.3573 40.7266C91.3573 42.2257 90.1358 43.4472 88.6367 43.4472C87.1376 43.4581 85.916 42.2257 85.916 40.7266ZM104.538 62.8022C95.5883 62.8022 88.3035 55.5178 88.3035 46.5674C88.3035 45.9679 88.3369 45.368 88.4037 44.7685C88.4814 44.7685 88.559 44.7798 88.6367 44.7798C90.8689 44.7798 92.6898 42.9584 92.6898 40.7266C92.6898 39.4049 92.057 38.2281 91.0797 37.495C94.1 33.0089 99.1418 30.3326 104.538 30.3438C113.489 30.3438 120.774 37.6282 120.774 46.5786C120.774 49.288 120.096 51.9531 118.808 54.3297C117.664 54.4516 116.687 55.2068 116.265 56.2839C116.165 56.2175 116.065 56.1507 115.954 56.0952C114.633 55.3955 113 55.7399 112.079 56.9168L111.812 56.0509C117.042 52.0307 118.02 44.5464 114 39.316C109.98 34.086 102.495 33.1087 97.2648 37.1285C92.0348 41.1482 91.0576 48.633 95.0773 53.863C95.9657 55.0181 97.054 55.9954 98.2868 56.7615C98.2534 56.9393 98.2313 57.128 98.2313 57.3167C98.2313 58.9269 99.5413 60.2373 101.151 60.2373C102.34 60.2373 103.362 59.5263 103.817 58.5048V58.5161C104.05 58.5269 104.294 58.5382 104.538 58.5382C105.049 58.5382 105.56 58.5048 106.06 58.4384L107.337 62.5914C106.415 62.7245 105.482 62.8022 104.538 62.8022ZM103.306 49.3882L105.671 57.1059C105.138 57.1614 104.616 57.1835 104.083 57.1614V57.1835C104.028 55.6176 102.739 54.374 101.174 54.374C100.23 54.374 99.386 54.8294 98.8529 55.5287V55.5178C93.9113 52.3752 92.4678 45.8234 95.6104 40.8819C98.7531 35.9404 105.305 34.4968 110.246 37.6395C115.188 40.7821 116.631 47.3338 113.489 52.2754C112.911 53.1746 112.212 53.974 111.401 54.6629L109.236 47.5781C108.736 45.9458 107.004 45.024 105.371 45.5237C103.717 46.0343 102.806 47.7555 103.306 49.3882ZM102.739 57.2946C102.739 58.1717 102.029 58.8826 101.151 58.8826C100.274 58.8826 99.5638 58.1717 99.5638 57.2946C99.5638 56.417 100.274 55.7065 101.151 55.7065C102.029 55.7065 102.739 56.417 102.739 57.2946ZM105.049 68.8767C106.027 67.7771 107.637 67.5108 108.914 68.2326L109.114 68.3436L110.18 71.8195C110.224 71.9413 110.257 72.0745 110.302 72.1968L105.049 68.8767ZM123.816 75.4059L120.718 76.3498C117.753 77.2607 114.532 76.2166 112.645 73.7515C112.623 73.7181 112.612 73.696 112.589 73.6738C112.089 72.9963 111.701 72.2411 111.457 71.4308L104.583 48.9995C104.294 48.0665 104.816 47.0892 105.749 46.8007C106.682 46.5118 107.659 47.0337 107.948 47.9667L110.402 55.9841L111.546 59.7263L113.2 65.1454C113.211 65.1788 113.222 65.2122 113.233 65.2343C113.233 65.2452 113.233 65.2452 113.245 65.2565C113.255 65.2899 113.278 65.312 113.289 65.3341L113.3 65.3454C113.322 65.3675 113.334 65.3896 113.356 65.4118C113.356 65.4118 113.356 65.4118 113.366 65.423C113.389 65.4452 113.411 65.4673 113.433 65.4786L113.445 65.4898C113.467 65.512 113.5 65.5228 113.522 65.5341H113.533C113.556 65.5454 113.589 65.5562 113.611 65.5675H113.622C113.655 65.5783 113.678 65.5896 113.711 65.5896H113.733C113.766 65.5896 113.8 65.6009 113.833 65.6009C113.866 65.6009 113.889 65.6009 113.922 65.5896H113.944C114.31 65.5341 114.555 65.2009 114.5 64.8344C114.5 64.801 114.488 64.768 114.477 64.7346L112.823 59.3155C112.534 58.3829 113.056 57.4056 113.989 57.1167C114.921 56.8283 115.898 57.3501 116.187 58.2827L117.842 63.7018C117.853 63.7352 117.864 63.7686 117.875 63.7907C117.875 63.8016 117.875 63.8016 117.886 63.8129C117.897 63.835 117.919 63.8684 117.931 63.8905L117.942 63.9018C117.964 63.9239 117.975 63.946 117.997 63.9682C117.997 63.9682 117.997 63.9682 118.008 63.9794C118.03 64.0016 118.053 64.0237 118.075 64.035L118.086 64.0462C118.108 64.0684 118.141 64.0792 118.164 64.0905H118.175C118.197 64.1018 118.23 64.1126 118.253 64.1239H118.264C118.297 64.1347 118.319 64.1347 118.353 64.146H118.375C118.408 64.146 118.442 64.1573 118.464 64.1573C118.486 64.1573 118.519 64.1573 118.541 64.146H118.564C118.597 64.146 118.619 64.1347 118.652 64.1239C119.008 64.0128 119.208 63.6463 119.097 63.291L117.464 57.9162C117.175 56.9948 117.697 56.0063 118.619 55.7178C118.775 55.6731 118.93 55.6397 119.085 55.6397C119.152 55.651 119.23 55.651 119.297 55.6397C120.018 55.6952 120.618 56.195 120.829 56.8725L121.306 58.4159L122.495 62.2804C122.583 62.558 122.839 62.7467 123.128 62.7467C123.194 62.7467 123.261 62.7358 123.328 62.7137C123.55 62.6469 123.716 62.469 123.783 62.2361C123.805 62.1585 123.805 62.0804 123.805 62.014C123.805 61.9693 123.794 61.9251 123.783 61.8808L122.595 58.0164C122.306 57.0833 122.828 56.1065 123.761 55.8176C124.693 55.5287 125.67 56.0509 125.959 56.9836L128.758 66.1114C129.935 70.0536 127.736 74.2069 123.816 75.4059Z" fill="black"/>
<g clip-path="url(#clip0)">
<path d="M244.911 49.1113C248.093 48.9102 250.643 46.3597 250.844 43.1784C251.086 39.3579 247.935 36.1794 244.088 36.4222C240.907 36.6232 238.356 39.1738 238.155 42.3551C237.913 46.1905 241.082 49.3541 244.911 49.1113ZM239.586 42.4455C239.742 39.9832 241.716 38.0089 244.179 37.8533C247.149 37.6665 249.601 40.1148 249.413 43.0879C249.257 45.5502 247.283 47.5245 244.821 47.6801C241.853 47.867 239.398 45.421 239.586 42.4455Z" fill="black"/>
<path d="M233.548 39.3891C233.542 39.389 233.537 39.3891 233.532 39.3891C231.994 39.3891 230.733 40.5875 230.733 42.1359V43.3298C230.733 44.8818 231.996 46.1445 233.548 46.1445C234.582 46.1445 235.101 47.3891 234.367 48.1227C233.27 49.2202 233.27 51.0059 234.367 52.1033L235.163 52.8996C236.263 53.9995 238.044 53.9998 239.144 52.8996C239.875 52.1679 241.122 52.6816 241.122 53.719C241.122 55.271 242.384 56.5336 243.936 56.5336H245.063C246.615 56.5336 247.877 55.2709 247.877 53.719C247.877 52.6829 249.123 52.1672 249.856 52.8996C250.953 53.997 252.739 53.997 253.836 52.8996L254.632 52.1033C255.73 51.0059 255.73 49.2202 254.632 48.1227C253.898 47.3887 254.418 46.1445 255.452 46.1445H255.467C257.008 46.1445 258.266 44.9432 258.266 43.3978V42.136C258.266 40.5894 257.007 39.3891 255.467 39.3891C255.464 39.3891 255.46 39.3891 255.457 39.3891C255.455 39.3891 255.454 39.3891 255.452 39.3891C254.416 39.3891 253.899 38.1439 254.632 37.411C255.73 36.3135 255.73 34.5279 254.632 33.4304L253.788 32.5862C252.7 31.4981 250.956 31.5256 249.859 32.6306C249.127 33.3678 247.877 32.8527 247.877 31.8146C247.877 30.2626 246.615 29 245.063 29H243.937C242.385 29 241.122 30.2627 241.122 31.8146C241.122 32.8492 239.878 33.3675 239.144 32.6339C238.046 31.5365 236.261 31.5365 235.163 32.6339L234.367 33.4302C233.27 34.5276 233.27 36.3133 234.367 37.4108C235.102 38.1463 234.579 39.3891 233.548 39.3891ZM235.381 36.3968C234.843 35.8586 234.843 34.9826 235.381 34.4443L236.177 33.648C236.717 33.1085 237.59 33.1084 238.13 33.648C239.762 35.2807 242.556 34.1275 242.556 31.8146C242.556 31.0533 243.175 30.434 243.936 30.434H245.063C245.824 30.434 246.443 31.0534 246.443 31.8146C246.443 34.1286 249.244 35.2858 250.877 33.6408C251.417 33.0968 252.251 33.0769 252.774 33.6001L253.618 34.4443C254.157 34.9826 254.157 35.8585 253.618 36.3968C251.981 38.0342 253.147 40.8352 255.462 40.823H255.467C256.225 40.823 256.832 41.3914 256.832 42.1358V43.3976C256.832 44.143 256.224 44.7103 255.467 44.7103C255.462 44.7103 255.457 44.7104 255.452 44.7103C253.142 44.7103 251.983 47.5014 253.618 49.1366C254.157 49.6749 254.157 50.5508 253.618 51.0891L252.822 51.8854C252.282 52.425 251.409 52.425 250.87 51.8853C249.237 50.2525 246.443 51.4062 246.443 53.7188C246.443 54.4801 245.824 55.0994 245.063 55.0994H243.937C243.175 55.0994 242.556 54.48 242.556 53.7187C242.556 51.4096 239.765 50.2498 238.13 51.8853C237.59 52.4248 236.717 52.4249 236.177 51.8853L235.381 51.089C234.843 50.5507 234.843 49.6748 235.381 49.1365C237.014 47.5031 235.86 44.7102 233.548 44.7102C232.786 44.7102 232.167 44.0909 232.167 43.3296V42.1357C232.167 41.3902 232.776 40.8229 233.532 40.8229H233.548C235.857 40.823 237.016 38.0322 235.381 36.3968Z" fill="black"/>
<path d="M266.142 35.6726H257.884C257.488 35.6726 257.167 35.9936 257.167 36.3896C257.167 36.7856 257.488 37.1066 257.884 37.1066H266.142C266.888 37.1066 267.496 37.7141 267.496 38.4606V61.0439H221.504V38.4606C221.504 37.7141 222.111 37.1066 222.858 37.1066H231.131C231.527 37.1066 231.848 36.7856 231.848 36.3896C231.848 35.9936 231.527 35.6726 231.131 35.6726H222.858C221.321 35.6726 220.07 36.9234 220.07 38.4606V64.9863C220.07 66.5236 221.321 67.7743 222.858 67.7743H239.229V67.9175C239.229 69.8299 238.343 71.6495 236.848 72.8311H234.481C233.056 72.8311 231.896 73.9905 231.896 75.4156C231.896 76.8407 233.056 78.0001 234.481 78.0001H254.519C255.944 78.0001 257.103 76.8406 257.103 75.4156C257.103 73.9905 255.944 72.8311 254.519 72.8311H252.152C250.657 71.6494 249.771 69.8298 249.771 67.9175V67.7743H266.142C267.679 67.7743 268.93 66.5236 268.93 64.9863C268.93 63.6281 268.93 39.334 268.93 38.4606C268.93 36.9233 267.679 35.6726 266.142 35.6726ZM254.519 74.2651C255.153 74.2651 255.669 74.7812 255.669 75.4156C255.669 76.0499 255.153 76.5661 254.519 76.5661H234.481C233.846 76.5661 233.33 76.0499 233.33 75.4156C233.33 74.7812 233.846 74.2651 234.481 74.2651H254.519ZM250.113 72.8311H238.887C240.019 71.4634 240.663 69.7243 240.663 67.9175V67.7743H248.337V67.9175C248.337 69.7243 248.981 71.4634 250.113 72.8311ZM267.496 64.9863C267.496 65.7329 266.888 66.3403 266.142 66.3403H222.858C222.111 66.3403 221.504 65.7329 221.504 64.9863V62.478H267.496V64.9863Z" fill="black"/>
</g>
<g clip-path="url(#clip1)">
<path d="M409.676 71.626V67.1177V53.1848C409.676 43.7142 401.971 36.0093 392.5 36.0093C383.029 36.0093 375.325 43.7143 375.325 53.1848V67.1177V71.626H371.85V79H413.151V71.626H409.676ZM376.841 53.1848C376.841 44.5503 383.866 37.5256 392.5 37.5256C401.135 37.5256 408.159 44.5503 408.159 53.1848V67.1177H376.841V53.1848ZM376.841 68.634H408.159V71.626H376.841V68.634ZM411.634 77.4836H373.366V76.7274H384.651V75.211H373.366V73.1424H375.325H409.676H411.634V77.4836Z" fill="black"/>
<path d="M393.258 28H391.742V32.1528H393.258V28Z" fill="black"/>
<path d="M417.621 52.3628H413.468V53.8791H417.621V52.3628Z" fill="black"/>
<path d="M371.532 52.3628H367.379V53.8791H371.532V52.3628Z" fill="black"/>
<path d="M409.726 34.8209L406.79 37.7573L407.862 38.8295L410.799 35.8932L409.726 34.8209Z" fill="black"/>
<path d="M375.272 34.8218L374.2 35.894L377.137 38.8304L378.209 37.7582L375.272 34.8218Z" fill="black"/>
</g>
<path d="M85.8066 102.725H82.0361L80.7412 106H80.0239L83.7563 96.6816H84.1689L87.8252 106H87.0952L85.8066 102.725ZM82.271 102.141H85.5908L84.3276 98.7954C84.2218 98.533 84.0949 98.1691 83.9468 97.7036C83.8325 98.1099 83.7077 98.478 83.5723 98.8081L82.271 102.141ZM93.2651 104.204C93.2651 104.821 93.0303 105.298 92.5605 105.632C92.0908 105.962 91.4243 106.127 90.561 106.127C89.6385 106.127 88.9064 105.985 88.3647 105.702V105.022C89.0588 105.369 89.7909 105.543 90.561 105.543C91.2424 105.543 91.7586 105.431 92.1099 105.207C92.4653 104.978 92.6431 104.675 92.6431 104.299C92.6431 103.952 92.5013 103.66 92.2178 103.423C91.9385 103.186 91.4772 102.953 90.834 102.725C90.1442 102.475 89.6597 102.261 89.3804 102.083C89.1011 101.902 88.8895 101.698 88.7456 101.474C88.606 101.246 88.5361 100.968 88.5361 100.643C88.5361 100.126 88.752 99.7179 89.1836 99.4175C89.6195 99.117 90.2267 98.9668 91.0054 98.9668C91.7502 98.9668 92.4569 99.1064 93.1255 99.3857L92.8906 99.957C92.2135 99.6777 91.5851 99.5381 91.0054 99.5381C90.4425 99.5381 89.9961 99.6312 89.666 99.8174C89.3359 100.004 89.1709 100.262 89.1709 100.592C89.1709 100.951 89.2979 101.239 89.5518 101.455C89.8099 101.671 90.3114 101.912 91.0562 102.179C91.6782 102.403 92.131 102.606 92.4146 102.788C92.6981 102.966 92.9097 103.169 93.0493 103.397C93.1932 103.626 93.2651 103.895 93.2651 104.204ZM97.9941 106.127C96.932 106.127 96.1576 105.729 95.6709 104.934H95.6265L95.6455 105.467C95.6624 105.78 95.6709 106.123 95.6709 106.495V109.123H95.0425V99.1001H95.5757L95.6963 100.084H95.7344C96.2083 99.3392 96.9658 98.9668 98.0068 98.9668C98.9378 98.9668 99.6466 99.2736 100.133 99.8872C100.624 100.497 100.87 101.385 100.87 102.553C100.87 103.687 100.611 104.568 100.095 105.194C99.5832 105.816 98.8828 106.127 97.9941 106.127ZM97.9814 105.568C98.6882 105.568 99.234 105.306 99.6191 104.781C100.008 104.257 100.203 103.522 100.203 102.579C100.203 100.552 99.471 99.5381 98.0068 99.5381C97.2028 99.5381 96.6125 99.7603 96.2358 100.205C95.8592 100.645 95.6709 101.364 95.6709 102.363V102.566C95.6709 103.645 95.8507 104.415 96.2104 104.876C96.5744 105.338 97.1647 105.568 97.9814 105.568ZM105.573 106.127C104.57 106.127 103.787 105.818 103.225 105.2C102.666 104.582 102.387 103.717 102.387 102.604C102.387 101.504 102.658 100.624 103.199 99.9634C103.741 99.299 104.471 98.9668 105.389 98.9668C106.202 98.9668 106.843 99.2503 107.312 99.8174C107.782 100.384 108.017 101.155 108.017 102.128V102.636H103.047C103.055 103.584 103.275 104.307 103.707 104.807C104.143 105.306 104.765 105.556 105.573 105.556C105.967 105.556 106.312 105.528 106.608 105.473C106.908 105.418 107.287 105.3 107.744 105.118V105.689C107.355 105.858 106.995 105.972 106.665 106.032C106.335 106.095 105.971 106.127 105.573 106.127ZM105.389 99.5254C104.725 99.5254 104.192 99.7454 103.79 100.186C103.388 100.621 103.153 101.252 103.085 102.077H107.351C107.351 101.277 107.177 100.653 106.83 100.205C106.483 99.7518 106.003 99.5254 105.389 99.5254ZM112.676 106.127C111.69 106.127 110.918 105.816 110.359 105.194C109.801 104.572 109.521 103.704 109.521 102.591C109.521 101.449 109.811 100.56 110.391 99.9253C110.971 99.2863 111.764 98.9668 112.771 98.9668C113.368 98.9668 113.939 99.0705 114.485 99.2778L114.314 99.8364C113.717 99.6375 113.199 99.5381 112.759 99.5381C111.912 99.5381 111.271 99.8005 110.835 100.325C110.4 100.846 110.182 101.597 110.182 102.579C110.182 103.51 110.4 104.24 110.835 104.769C111.271 105.293 111.881 105.556 112.664 105.556C113.29 105.556 113.872 105.444 114.409 105.219V105.803C113.969 106.019 113.391 106.127 112.676 106.127ZM117.926 105.568C118.324 105.568 118.671 105.535 118.967 105.467V105.975C118.662 106.076 118.311 106.127 117.913 106.127C117.304 106.127 116.853 105.964 116.561 105.638C116.273 105.312 116.129 104.8 116.129 104.102V99.646H115.107V99.2778L116.129 98.9922L116.447 97.4307H116.771V99.1001H118.795V99.646H116.771V104.013C116.771 104.542 116.864 104.934 117.05 105.188C117.236 105.441 117.528 105.568 117.926 105.568ZM126.165 102.541C126.165 103.666 125.892 104.546 125.346 105.181C124.8 105.812 124.047 106.127 123.086 106.127C122.481 106.127 121.948 105.981 121.487 105.689C121.026 105.397 120.672 104.978 120.427 104.432C120.181 103.886 120.059 103.256 120.059 102.541C120.059 101.415 120.332 100.539 120.877 99.9126C121.423 99.2821 122.172 98.9668 123.125 98.9668C124.072 98.9668 124.815 99.2863 125.353 99.9253C125.894 100.56 126.165 101.432 126.165 102.541ZM120.719 102.541C120.719 103.488 120.926 104.229 121.341 104.762C121.76 105.291 122.35 105.556 123.112 105.556C123.874 105.556 124.462 105.291 124.876 104.762C125.295 104.229 125.505 103.488 125.505 102.541C125.505 101.588 125.293 100.85 124.87 100.325C124.451 99.8005 123.861 99.5381 123.099 99.5381C122.337 99.5381 121.749 99.8005 121.334 100.325C120.924 100.846 120.719 101.584 120.719 102.541ZM132.354 104.204C132.354 104.821 132.119 105.298 131.649 105.632C131.18 105.962 130.513 106.127 129.65 106.127C128.727 106.127 127.995 105.985 127.454 105.702V105.022C128.148 105.369 128.88 105.543 129.65 105.543C130.331 105.543 130.847 105.431 131.199 105.207C131.554 104.978 131.732 104.675 131.732 104.299C131.732 103.952 131.59 103.66 131.307 103.423C131.027 103.186 130.566 102.953 129.923 102.725C129.233 102.475 128.749 102.261 128.469 102.083C128.19 101.902 127.978 101.698 127.834 101.474C127.695 101.246 127.625 100.968 127.625 100.643C127.625 100.126 127.841 99.7179 128.272 99.4175C128.708 99.117 129.316 98.9668 130.094 98.9668C130.839 98.9668 131.546 99.1064 132.214 99.3857L131.979 99.957C131.302 99.6777 130.674 99.5381 130.094 99.5381C129.531 99.5381 129.085 99.6312 128.755 99.8174C128.425 100.004 128.26 100.262 128.26 100.592C128.26 100.951 128.387 101.239 128.641 101.455C128.899 101.671 129.4 101.912 130.145 102.179C130.767 102.403 131.22 102.606 131.503 102.788C131.787 102.966 131.999 103.169 132.138 103.397C132.282 103.626 132.354 103.895 132.354 104.204ZM84.6196 119.1V119.538L83.1914 119.627C83.5723 120.101 83.7627 120.621 83.7627 121.188C83.7627 121.853 83.5405 122.392 83.0962 122.807C82.6561 123.218 82.0636 123.423 81.3188 123.423C81.0057 123.423 80.7856 123.41 80.6587 123.385C80.409 123.516 80.2186 123.67 80.0874 123.848C79.9562 124.026 79.8906 124.214 79.8906 124.413C79.8906 124.633 79.9731 124.794 80.1382 124.896C80.3075 124.997 80.5889 125.048 80.9824 125.048H82.1885C82.9375 125.048 83.5109 125.2 83.9087 125.505C84.3065 125.805 84.5054 126.252 84.5054 126.844C84.5054 127.572 84.2091 128.133 83.6167 128.526C83.0285 128.924 82.1885 129.123 81.0967 129.123C80.2292 129.123 79.5563 128.956 79.0781 128.622C78.6042 128.287 78.3672 127.822 78.3672 127.225C78.3672 126.751 78.5132 126.358 78.8052 126.044C79.1014 125.731 79.5013 125.518 80.0049 125.403C79.7975 125.314 79.6304 125.19 79.5034 125.029C79.3807 124.864 79.3193 124.675 79.3193 124.464C79.3193 124.003 79.6134 123.596 80.2017 123.245C79.7996 123.08 79.4865 122.822 79.2622 122.471C79.0379 122.115 78.9258 121.709 78.9258 121.252C78.9258 120.562 79.1437 120.01 79.5796 119.595C80.0197 119.176 80.6121 118.967 81.3569 118.967C81.8097 118.967 82.161 119.011 82.4106 119.1H84.6196ZM79.0337 127.168C79.0337 128.116 79.7383 128.59 81.1475 128.59C82.9587 128.59 83.8643 128.012 83.8643 126.857C83.8643 126.442 83.7225 126.142 83.439 125.956C83.1554 125.769 82.6963 125.676 82.0615 125.676H80.9316C79.6663 125.676 79.0337 126.174 79.0337 127.168ZM79.5605 121.252C79.5605 121.785 79.7214 122.2 80.043 122.496C80.3688 122.788 80.8026 122.934 81.3442 122.934C81.9198 122.934 82.3599 122.788 82.6646 122.496C82.9735 122.204 83.1279 121.781 83.1279 121.227C83.1279 120.638 82.9692 120.198 82.6519 119.906C82.3387 119.61 81.8986 119.462 81.3315 119.462C80.7814 119.462 80.3477 119.621 80.0303 119.938C79.7171 120.251 79.5605 120.689 79.5605 121.252ZM88.8281 126.127C87.8252 126.127 87.0423 125.818 86.4795 125.2C85.9209 124.582 85.6416 123.717 85.6416 122.604C85.6416 121.504 85.9124 120.624 86.4541 119.963C86.9958 119.299 87.7257 118.967 88.644 118.967C89.4565 118.967 90.0977 119.25 90.5674 119.817C91.0371 120.384 91.272 121.155 91.272 122.128V122.636H86.3018C86.3102 123.584 86.5303 124.307 86.9619 124.807C87.3978 125.306 88.0199 125.556 88.8281 125.556C89.2217 125.556 89.5666 125.528 89.8628 125.473C90.1632 125.418 90.542 125.3 90.999 125.118V125.689C90.6097 125.858 90.25 125.972 89.9199 126.032C89.5898 126.095 89.2259 126.127 88.8281 126.127ZM88.644 119.525C87.9797 119.525 87.4465 119.745 87.0444 120.186C86.6424 120.621 86.4076 121.252 86.3398 122.077H90.6055C90.6055 121.277 90.432 120.653 90.085 120.205C89.738 119.752 89.2576 119.525 88.644 119.525ZM97.9878 126V121.525C97.9878 120.831 97.8418 120.327 97.5498 120.014C97.2578 119.697 96.805 119.538 96.1914 119.538C95.3662 119.538 94.7611 119.748 94.376 120.167C93.9951 120.581 93.8047 121.256 93.8047 122.191V126H93.1763V119.1H93.7095L93.8301 120.046H93.8682C94.3167 119.326 95.1144 118.967 96.2612 118.967C97.827 118.967 98.6099 119.807 98.6099 121.487V126H97.9878ZM103.631 126.127C102.628 126.127 101.845 125.818 101.282 125.2C100.724 124.582 100.444 123.717 100.444 122.604C100.444 121.504 100.715 120.624 101.257 119.963C101.799 119.299 102.528 118.967 103.447 118.967C104.259 118.967 104.9 119.25 105.37 119.817C105.84 120.384 106.075 121.155 106.075 122.128V122.636H101.104C101.113 123.584 101.333 124.307 101.765 124.807C102.201 125.306 102.823 125.556 103.631 125.556C104.024 125.556 104.369 125.528 104.666 125.473C104.966 125.418 105.345 125.3 105.802 125.118V125.689C105.412 125.858 105.053 125.972 104.723 126.032C104.393 126.095 104.029 126.127 103.631 126.127ZM103.447 119.525C102.782 119.525 102.249 119.745 101.847 120.186C101.445 120.621 101.21 121.252 101.143 122.077H105.408C105.408 121.277 105.235 120.653 104.888 120.205C104.541 119.752 104.06 119.525 103.447 119.525ZM110.696 118.967C110.988 118.967 111.301 118.996 111.635 119.056L111.515 119.659C111.227 119.587 110.929 119.551 110.62 119.551C110.031 119.551 109.549 119.8 109.172 120.3C108.796 120.799 108.607 121.43 108.607 122.191V126H107.979V119.1H108.512L108.576 120.344H108.62C108.904 119.836 109.206 119.481 109.528 119.278C109.849 119.07 110.239 118.967 110.696 118.967ZM117.234 126L117.075 124.908H117.024C116.677 125.353 116.32 125.668 115.952 125.854C115.588 126.036 115.156 126.127 114.657 126.127C113.98 126.127 113.453 125.953 113.076 125.606C112.7 125.259 112.511 124.779 112.511 124.166C112.511 123.493 112.791 122.97 113.349 122.598C113.912 122.225 114.724 122.028 115.787 122.007L117.101 121.969V121.512C117.101 120.856 116.967 120.361 116.701 120.027C116.434 119.693 116.005 119.525 115.412 119.525C114.773 119.525 114.111 119.703 113.425 120.059L113.19 119.513C113.948 119.157 114.697 118.979 115.438 118.979C116.195 118.979 116.76 119.176 117.132 119.57C117.509 119.963 117.697 120.577 117.697 121.411V126H117.234ZM114.695 125.556C115.431 125.556 116.011 125.346 116.434 124.927C116.861 124.504 117.075 123.918 117.075 123.169V122.49L115.869 122.541C114.9 122.587 114.208 122.739 113.793 122.998C113.383 123.251 113.178 123.649 113.178 124.191C113.178 124.623 113.309 124.959 113.571 125.2C113.838 125.437 114.212 125.556 114.695 125.556ZM120.566 126H119.938V116.123H120.566V126ZM125.67 126.127C124.667 126.127 123.884 125.818 123.321 125.2C122.763 124.582 122.483 123.717 122.483 122.604C122.483 121.504 122.754 120.624 123.296 119.963C123.838 119.299 124.568 118.967 125.486 118.967C126.298 118.967 126.939 119.25 127.409 119.817C127.879 120.384 128.114 121.155 128.114 122.128V122.636H123.144C123.152 123.584 123.372 124.307 123.804 124.807C124.24 125.306 124.862 125.556 125.67 125.556C126.063 125.556 126.408 125.528 126.705 125.473C127.005 125.418 127.384 125.3 127.841 125.118V125.689C127.451 125.858 127.092 125.972 126.762 126.032C126.432 126.095 126.068 126.127 125.67 126.127ZM125.486 119.525C124.821 119.525 124.288 119.745 123.886 120.186C123.484 120.621 123.249 121.252 123.182 122.077H127.447C127.447 121.277 127.274 120.653 126.927 120.205C126.58 119.752 126.099 119.525 125.486 119.525ZM134.296 124.204C134.296 124.821 134.062 125.298 133.592 125.632C133.122 125.962 132.456 126.127 131.592 126.127C130.67 126.127 129.938 125.985 129.396 125.702V125.022C130.09 125.369 130.822 125.543 131.592 125.543C132.274 125.543 132.79 125.431 133.141 125.207C133.497 124.978 133.674 124.675 133.674 124.299C133.674 123.952 133.533 123.66 133.249 123.423C132.97 123.186 132.508 122.953 131.865 122.725C131.175 122.475 130.691 122.261 130.412 122.083C130.132 121.902 129.921 121.698 129.777 121.474C129.637 121.246 129.567 120.968 129.567 120.643C129.567 120.126 129.783 119.718 130.215 119.417C130.651 119.117 131.258 118.967 132.037 118.967C132.781 118.967 133.488 119.106 134.157 119.386L133.922 119.957C133.245 119.678 132.616 119.538 132.037 119.538C131.474 119.538 131.027 119.631 130.697 119.817C130.367 120.004 130.202 120.262 130.202 120.592C130.202 120.951 130.329 121.239 130.583 121.455C130.841 121.671 131.343 121.912 132.087 122.179C132.709 122.403 133.162 122.606 133.446 122.788C133.729 122.966 133.941 123.169 134.081 123.397C134.224 123.626 134.296 123.895 134.296 124.204Z" fill="black"/>
<path d="M89.4617 179.456C88.6937 179.456 88.0617 179.296 87.5657 178.976C87.0697 178.64 86.7017 178.224 86.4617 177.728C86.2377 177.216 86.1257 176.696 86.1257 176.168C86.1257 175.448 86.3097 174.808 86.6777 174.248C87.0617 173.672 87.5897 173.224 88.2617 172.904C88.9497 172.584 89.7257 172.424 90.5897 172.424C92.1417 172.424 93.3657 172.92 94.2617 173.912C95.1737 174.904 95.6297 176.24 95.6297 177.92C95.6297 179.376 95.2857 180.816 94.5977 182.24C93.9097 183.68 92.9097 184.96 91.5977 186.08C90.3017 187.216 88.7657 188.056 86.9897 188.6C86.9417 188.616 86.8937 188.584 86.8457 188.504C86.8137 188.424 86.8297 188.368 86.8937 188.336C88.3017 187.712 89.5017 186.848 90.4937 185.744C91.4857 184.656 92.2297 183.464 92.7257 182.168C93.2217 180.872 93.4697 179.608 93.4697 178.376C93.4697 177.544 93.3577 176.712 93.1337 175.88C92.9257 175.032 92.5737 174.328 92.0777 173.768C91.5977 173.192 90.9817 172.904 90.2297 172.904C89.5737 172.904 89.0777 173.144 88.7417 173.624C88.4217 174.104 88.2617 174.768 88.2617 175.616C88.2617 176.528 88.4457 177.256 88.8137 177.8C89.1977 178.344 89.7497 178.616 90.4697 178.616C90.8057 178.616 91.1097 178.56 91.3817 178.448C91.6697 178.32 91.9897 178.112 92.3417 177.824C92.3577 177.808 92.3817 177.8 92.4137 177.8C92.4617 177.8 92.5017 177.824 92.5337 177.872C92.5817 177.92 92.5977 177.96 92.5817 177.992C91.8297 178.968 90.7897 179.456 89.4617 179.456ZM98.2899 185.936C98.2579 186 98.0659 185.984 97.7139 185.888C97.3619 185.792 97.1939 185.712 97.2099 185.648L103.258 164.48C103.29 164.416 103.474 164.432 103.81 164.528C104.162 164.624 104.33 164.712 104.314 164.792L98.2899 185.936ZM114.962 180.872C115.026 180.872 115.058 181.008 115.058 181.28C115.058 181.44 115.042 181.6 115.01 181.76C114.978 181.904 114.946 181.976 114.914 181.976L114.338 181.952C113.826 181.92 113.442 181.904 113.186 181.904V185.384C113.186 185.544 113.122 185.656 112.994 185.72L111.41 186.512C111.314 186.544 111.266 186.56 111.266 186.56C111.218 186.56 111.194 186.496 111.194 186.368V181.832C110.218 181.816 108.386 181.808 105.698 181.808C105.618 181.808 105.554 181.776 105.506 181.712C105.458 181.648 105.466 181.584 105.53 181.52L112.826 172.496C112.858 172.464 112.906 172.448 112.97 172.448C113.018 172.448 113.066 172.464 113.114 172.496C113.162 172.512 113.186 172.544 113.186 172.592V180.944L114.962 180.872ZM107.066 181.016C109.05 181.016 110.426 181.008 111.194 180.992V175.712L106.946 180.848C106.85 180.96 106.89 181.016 107.066 181.016ZM123.22 173.696C124.02 174.176 124.66 174.592 125.14 174.944C125.62 175.296 126.028 175.736 126.364 176.264C126.7 176.792 126.868 177.4 126.868 178.088C126.868 178.888 126.628 179.616 126.148 180.272C125.684 180.912 125.044 181.416 124.228 181.784C123.428 182.136 122.556 182.312 121.612 182.312C120.668 182.312 119.828 182.136 119.092 181.784C118.356 181.416 117.788 180.928 117.388 180.32C116.988 179.712 116.788 179.056 116.788 178.352C116.788 177.488 117.076 176.664 117.652 175.88C118.228 175.096 118.988 174.464 119.932 173.984C119.388 173.584 118.964 173.16 118.66 172.712C118.372 172.264 118.228 171.76 118.228 171.2C118.228 170.544 118.42 169.992 118.804 169.544C119.188 169.096 119.668 168.768 120.244 168.56C120.836 168.336 121.428 168.224 122.02 168.224C122.708 168.224 123.316 168.352 123.844 168.608C124.372 168.848 124.772 169.16 125.044 169.544C125.332 169.928 125.476 170.32 125.476 170.72C125.476 171.248 125.268 171.784 124.852 172.328C124.452 172.856 123.892 173.304 123.172 173.672L123.22 173.696ZM121.684 168.68C121.204 168.68 120.812 168.832 120.508 169.136C120.22 169.44 120.076 169.832 120.076 170.312C120.076 170.968 120.316 171.536 120.796 172.016C121.276 172.48 121.972 172.976 122.884 173.504C123.412 172.688 123.676 171.896 123.676 171.128C123.676 170.408 123.484 169.824 123.1 169.376C122.716 168.912 122.244 168.68 121.684 168.68ZM122.284 181.808C123.068 181.808 123.7 181.536 124.18 180.992C124.676 180.448 124.924 179.776 124.924 178.976C124.924 178.336 124.764 177.784 124.444 177.32C124.124 176.84 123.756 176.456 123.34 176.168C122.94 175.88 122.292 175.472 121.396 174.944C120.884 174.624 120.54 174.408 120.364 174.296C119.916 174.696 119.572 175.2 119.332 175.808C119.092 176.4 118.972 177.032 118.972 177.704C118.972 178.44 119.108 179.12 119.38 179.744C119.668 180.368 120.06 180.872 120.556 181.256C121.068 181.624 121.644 181.808 122.284 181.808Z" fill="#717ADB"/>
<path d="M223.098 174.68C223.098 174.184 223.05 173.824 222.954 173.6C222.874 173.376 222.706 173.224 222.45 173.144C222.194 173.064 221.77 173.024 221.178 173.024C221.146 173.024 221.13 172.976 221.13 172.88C221.13 172.784 221.146 172.736 221.178 172.736C221.69 172.736 222.09 172.744 222.378 172.76L224.082 172.784L225.762 172.76C226.066 172.744 226.474 172.736 226.986 172.736C227.034 172.736 227.058 172.784 227.058 172.88C227.058 172.976 227.034 173.024 226.986 173.024C226.426 173.024 226.01 173.064 225.738 173.144C225.482 173.224 225.306 173.384 225.21 173.624C225.114 173.848 225.066 174.2 225.066 174.68V180.056C225.066 180.552 225.106 180.912 225.186 181.136C225.282 181.36 225.458 181.512 225.714 181.592C225.97 181.672 226.394 181.712 226.986 181.712C227.034 181.712 227.058 181.76 227.058 181.856C227.058 181.952 227.034 182 226.986 182C226.474 182 226.074 181.992 225.786 181.976L224.082 181.952L222.402 181.976C222.098 181.992 221.69 182 221.178 182C221.146 182 221.13 181.952 221.13 181.856C221.13 181.76 221.146 181.712 221.178 181.712C221.738 181.712 222.146 181.672 222.402 181.592C222.674 181.512 222.858 181.36 222.954 181.136C223.05 180.896 223.098 180.536 223.098 180.056V174.68ZM233.826 182.312C232.85 182.312 231.978 182.096 231.21 181.664C230.442 181.232 229.842 180.64 229.41 179.888C228.978 179.12 228.762 178.264 228.762 177.32C228.762 176.376 228.978 175.536 229.41 174.8C229.842 174.048 230.442 173.464 231.21 173.048C231.978 172.632 232.85 172.424 233.826 172.424C234.802 172.424 235.666 172.64 236.418 173.072C237.17 173.488 237.754 174.072 238.17 174.824C238.602 175.576 238.818 176.424 238.818 177.368C238.818 178.312 238.602 179.16 238.17 179.912C237.754 180.664 237.162 181.256 236.394 181.688C235.642 182.104 234.786 182.312 233.826 182.312ZM234.066 181.856C234.882 181.856 235.498 181.488 235.914 180.752C236.33 180.016 236.538 178.992 236.538 177.68C236.538 176.08 236.258 174.88 235.698 174.08C235.138 173.28 234.442 172.88 233.61 172.88C232.794 172.88 232.154 173.264 231.69 174.032C231.242 174.784 231.018 175.8 231.018 177.08C231.018 178.488 231.298 179.64 231.858 180.536C232.418 181.416 233.154 181.856 234.066 181.856ZM241.208 185.936C241.176 186 240.984 185.984 240.632 185.888C240.28 185.792 240.112 185.712 240.128 185.648L246.176 164.48C246.208 164.416 246.392 164.432 246.728 164.528C247.08 164.624 247.248 164.712 247.232 164.792L241.208 185.936ZM248.736 181.448C250.144 180.2 251.184 179.24 251.856 178.568C252.528 177.896 253.008 177.312 253.296 176.816C253.6 176.32 253.752 175.816 253.752 175.304C253.752 174.68 253.584 174.16 253.248 173.744C252.912 173.312 252.456 173.096 251.88 173.096C251.272 173.096 250.76 173.36 250.344 173.888C249.944 174.4 249.576 175.176 249.24 176.216C249.24 176.232 249.208 176.24 249.144 176.24C249 176.24 248.936 176.216 248.952 176.168L249.96 172.208C249.96 172.176 249.992 172.16 250.056 172.16C250.104 172.16 250.144 172.176 250.176 172.208C250.224 172.224 250.24 172.24 250.224 172.256C250.208 172.336 250.2 172.432 250.2 172.544C250.2 172.8 250.32 172.928 250.56 172.928C250.704 172.928 250.944 172.872 251.28 172.76C251.984 172.536 252.6 172.424 253.128 172.424C253.992 172.424 254.664 172.64 255.144 173.072C255.64 173.488 255.888 174.04 255.888 174.728C255.888 175.304 255.712 175.856 255.36 176.384C255.008 176.912 254.576 177.4 254.064 177.848C253.568 178.28 252.888 178.824 252.024 179.48C251.832 179.624 251.664 179.752 251.52 179.864C251.376 179.976 251.248 180.072 251.136 180.152C251.072 180.2 251.048 180.24 251.064 180.272C251.096 180.304 251.152 180.32 251.232 180.32C252.688 180.32 253.744 180.296 254.4 180.248C255.056 180.2 255.56 180.088 255.912 179.912C256.264 179.736 256.496 179.432 256.608 179C256.608 178.968 256.648 178.952 256.728 178.952C256.84 178.952 256.896 178.976 256.896 179.024L256.44 181.736C256.44 181.8 256.416 181.864 256.368 181.928C256.336 181.976 256.288 182 256.224 182H248.88C248.8 182 248.736 181.928 248.688 181.784C248.656 181.624 248.672 181.512 248.736 181.448ZM262.76 178.856C263.864 179.016 264.696 179.416 265.256 180.056C265.816 180.68 266.096 181.416 266.096 182.264C266.096 183.032 265.832 183.808 265.304 184.592C264.776 185.392 263.968 186.144 262.88 186.848C261.792 187.552 260.448 188.136 258.848 188.6C258.784 188.616 258.728 188.576 258.68 188.48C258.648 188.4 258.664 188.352 258.728 188.336C260.536 187.664 261.832 186.792 262.616 185.72C263.4 184.664 263.792 183.608 263.792 182.552C263.792 181.64 263.552 180.896 263.072 180.32C262.608 179.744 261.952 179.456 261.104 179.456C260.784 179.456 260.44 179.504 260.072 179.6C260.024 179.616 259.984 179.576 259.952 179.48C259.92 179.384 259.928 179.328 259.976 179.312C261.128 179.008 261.96 178.568 262.472 177.992C263 177.4 263.264 176.592 263.264 175.568C263.264 174.768 263.12 174.152 262.832 173.72C262.56 173.272 262.152 173.048 261.608 173.048C260.936 173.048 260.336 173.28 259.808 173.744C259.28 174.208 258.848 174.896 258.512 175.808C258.496 175.824 258.464 175.832 258.416 175.832C258.272 175.832 258.208 175.8 258.224 175.736L259.112 172.232C259.144 172.2 259.176 172.184 259.208 172.184C259.256 172.184 259.304 172.2 259.352 172.232C259.4 172.248 259.416 172.264 259.4 172.28C259.368 172.408 259.352 172.496 259.352 172.544C259.352 172.816 259.488 172.952 259.76 172.952C259.952 172.952 260.216 172.888 260.552 172.76C260.92 172.648 261.232 172.568 261.488 172.52C261.76 172.456 262.064 172.424 262.4 172.424C263.328 172.424 264.056 172.696 264.584 173.24C265.112 173.768 265.376 174.408 265.376 175.16C265.376 175.928 265.144 176.656 264.68 177.344C264.216 178.016 263.576 178.52 262.76 178.856Z" fill="#717ADB"/>
<path d="M380.739 175.136C381.779 175.136 382.563 175.44 383.091 176.048C383.619 176.64 383.883 177.352 383.883 178.184C383.883 178.936 383.659 179.632 383.211 180.272C382.763 180.896 382.155 181.392 381.387 181.76C380.635 182.128 379.811 182.312 378.915 182.312C377.507 182.312 376.395 181.848 375.579 180.92C374.763 179.976 374.355 178.68 374.355 177.032C374.355 175.528 374.699 174.056 375.387 172.616C376.091 171.16 377.091 169.864 378.387 168.728C379.699 167.592 381.235 166.728 382.995 166.136C383.059 166.12 383.107 166.152 383.139 166.232C383.171 166.312 383.163 166.368 383.115 166.4C381.691 167.088 380.483 167.992 379.491 169.112C378.499 170.216 377.755 171.424 377.259 172.736C376.763 174.048 376.515 175.36 376.515 176.672C376.515 177.616 376.635 178.48 376.875 179.264C377.131 180.032 377.491 180.648 377.955 181.112C378.419 181.56 378.955 181.784 379.563 181.784C380.219 181.784 380.739 181.528 381.123 181.016C381.523 180.488 381.723 179.768 381.723 178.856C381.723 178.008 381.539 177.328 381.171 176.816C380.819 176.288 380.291 176.024 379.587 176.024C379.267 176.024 378.955 176.088 378.651 176.216C378.363 176.344 378.035 176.552 377.667 176.84C377.651 176.856 377.627 176.864 377.595 176.864C377.547 176.864 377.499 176.84 377.451 176.792C377.403 176.744 377.387 176.704 377.403 176.672C378.299 175.648 379.411 175.136 380.739 175.136ZM386.255 185.936C386.223 186 386.031 185.984 385.679 185.888C385.327 185.792 385.159 185.712 385.175 185.648L391.223 164.48C391.255 164.416 391.439 164.432 391.775 164.528C392.127 164.624 392.295 164.712 392.279 164.792L386.255 185.936ZM395.895 174.68C395.895 174.184 395.847 173.824 395.751 173.6C395.671 173.376 395.503 173.224 395.247 173.144C394.991 173.064 394.567 173.024 393.975 173.024C393.943 173.024 393.927 172.976 393.927 172.88C393.927 172.784 393.943 172.736 393.975 172.736C394.487 172.736 394.887 172.744 395.175 172.76L396.879 172.784L398.559 172.76C398.863 172.744 399.271 172.736 399.783 172.736C399.831 172.736 399.855 172.784 399.855 172.88C399.855 172.976 399.831 173.024 399.783 173.024C399.223 173.024 398.807 173.064 398.535 173.144C398.279 173.224 398.103 173.384 398.007 173.624C397.911 173.848 397.863 174.2 397.863 174.68V180.056C397.863 180.552 397.903 180.912 397.983 181.136C398.079 181.36 398.255 181.512 398.511 181.592C398.767 181.672 399.191 181.712 399.783 181.712C399.831 181.712 399.855 181.76 399.855 181.856C399.855 181.952 399.831 182 399.783 182C399.271 182 398.871 181.992 398.583 181.976L396.879 181.952L395.199 181.976C394.895 181.992 394.487 182 393.975 182C393.943 182 393.927 181.952 393.927 181.856C393.927 181.76 393.943 181.712 393.975 181.712C394.535 181.712 394.943 181.672 395.199 181.592C395.471 181.512 395.655 181.36 395.751 181.136C395.847 180.896 395.895 180.536 395.895 180.056V174.68ZM408.255 173.696C409.055 174.176 409.695 174.592 410.175 174.944C410.655 175.296 411.063 175.736 411.399 176.264C411.735 176.792 411.903 177.4 411.903 178.088C411.903 178.888 411.663 179.616 411.183 180.272C410.719 180.912 410.079 181.416 409.263 181.784C408.463 182.136 407.591 182.312 406.647 182.312C405.703 182.312 404.863 182.136 404.127 181.784C403.391 181.416 402.823 180.928 402.423 180.32C402.023 179.712 401.823 179.056 401.823 178.352C401.823 177.488 402.111 176.664 402.687 175.88C403.263 175.096 404.023 174.464 404.967 173.984C404.423 173.584 403.999 173.16 403.695 172.712C403.407 172.264 403.263 171.76 403.263 171.2C403.263 170.544 403.455 169.992 403.839 169.544C404.223 169.096 404.703 168.768 405.279 168.56C405.871 168.336 406.463 168.224 407.055 168.224C407.743 168.224 408.351 168.352 408.879 168.608C409.407 168.848 409.807 169.16 410.079 169.544C410.367 169.928 410.511 170.32 410.511 170.72C410.511 171.248 410.303 171.784 409.887 172.328C409.487 172.856 408.927 173.304 408.207 173.672L408.255 173.696ZM406.719 168.68C406.239 168.68 405.847 168.832 405.543 169.136C405.255 169.44 405.111 169.832 405.111 170.312C405.111 170.968 405.351 171.536 405.831 172.016C406.311 172.48 407.007 172.976 407.919 173.504C408.447 172.688 408.711 171.896 408.711 171.128C408.711 170.408 408.519 169.824 408.135 169.376C407.751 168.912 407.279 168.68 406.719 168.68ZM407.319 181.808C408.103 181.808 408.735 181.536 409.215 180.992C409.711 180.448 409.959 179.776 409.959 178.976C409.959 178.336 409.799 177.784 409.479 177.32C409.159 176.84 408.791 176.456 408.375 176.168C407.975 175.88 407.327 175.472 406.431 174.944C405.919 174.624 405.575 174.408 405.399 174.296C404.951 174.696 404.607 175.2 404.367 175.808C404.127 176.4 404.007 177.032 404.007 177.704C404.007 178.44 404.143 179.12 404.415 179.744C404.703 180.368 405.095 180.872 405.591 181.256C406.103 181.624 406.679 181.808 407.319 181.808Z" fill="#717ADB"/>
<path d="M234.444 103.607C234.444 104.381 234.158 104.995 233.587 105.448C233.02 105.901 232.264 106.127 231.321 106.127C230.187 106.127 229.317 106.002 228.712 105.752V105.105C229.381 105.389 230.233 105.53 231.27 105.53C232.032 105.53 232.635 105.357 233.079 105.01C233.528 104.659 233.752 104.199 233.752 103.632C233.752 103.281 233.678 102.991 233.53 102.763C233.382 102.53 233.14 102.318 232.806 102.128C232.472 101.938 231.981 101.732 231.333 101.512C230.386 101.186 229.73 100.835 229.366 100.458C229.006 100.078 228.826 99.5719 228.826 98.9414C228.826 98.2474 229.097 97.6825 229.639 97.2466C230.185 96.8065 230.885 96.5864 231.74 96.5864C232.611 96.5864 233.43 96.7515 234.196 97.0815L233.961 97.6401C233.191 97.3185 232.455 97.1577 231.752 97.1577C231.067 97.1577 230.521 97.3164 230.115 97.6338C229.708 97.9512 229.505 98.3828 229.505 98.9287C229.505 99.2715 229.567 99.5529 229.689 99.7729C229.816 99.993 230.022 100.192 230.305 100.37C230.589 100.543 231.075 100.753 231.765 100.998C232.489 101.248 233.033 101.491 233.396 101.728C233.76 101.961 234.025 102.227 234.19 102.528C234.359 102.824 234.444 103.184 234.444 103.607ZM239.033 106.127C238.03 106.127 237.247 105.818 236.685 105.2C236.126 104.582 235.847 103.717 235.847 102.604C235.847 101.504 236.118 100.624 236.659 99.9634C237.201 99.299 237.931 98.9668 238.849 98.9668C239.662 98.9668 240.303 99.2503 240.772 99.8174C241.242 100.384 241.477 101.155 241.477 102.128V102.636H236.507C236.515 103.584 236.735 104.307 237.167 104.807C237.603 105.306 238.225 105.556 239.033 105.556C239.427 105.556 239.772 105.528 240.068 105.473C240.368 105.418 240.747 105.3 241.204 105.118V105.689C240.815 105.858 240.455 105.972 240.125 106.032C239.795 106.095 239.431 106.127 239.033 106.127ZM238.849 99.5254C238.185 99.5254 237.652 99.7454 237.25 100.186C236.847 100.621 236.613 101.252 236.545 102.077H240.811C240.811 101.277 240.637 100.653 240.29 100.205C239.943 99.7518 239.463 99.5254 238.849 99.5254ZM245.203 105.568C245.601 105.568 245.948 105.535 246.244 105.467V105.975C245.939 106.076 245.588 106.127 245.19 106.127C244.581 106.127 244.13 105.964 243.838 105.638C243.551 105.312 243.407 104.8 243.407 104.102V99.646H242.385V99.2778L243.407 98.9922L243.724 97.4307H244.048V99.1001H246.073V99.646H244.048V104.013C244.048 104.542 244.141 104.934 244.327 105.188C244.513 105.441 244.805 105.568 245.203 105.568ZM248.282 99.1001V103.569C248.282 104.263 248.428 104.769 248.72 105.086C249.012 105.399 249.465 105.556 250.078 105.556C250.899 105.556 251.502 105.348 251.887 104.934C252.277 104.519 252.471 103.844 252.471 102.909V99.1001H253.093V106H252.56L252.446 105.048H252.408C251.959 105.767 251.161 106.127 250.015 106.127C248.445 106.127 247.66 105.287 247.66 103.607V99.1001H248.282ZM258.355 106.127C257.293 106.127 256.519 105.729 256.032 104.934H255.988L256.007 105.467C256.024 105.78 256.032 106.123 256.032 106.495V109.123H255.404V99.1001H255.937L256.058 100.084H256.096C256.57 99.3392 257.327 98.9668 258.368 98.9668C259.299 98.9668 260.008 99.2736 260.495 99.8872C260.986 100.497 261.231 101.385 261.231 102.553C261.231 103.687 260.973 104.568 260.457 105.194C259.944 105.816 259.244 106.127 258.355 106.127ZM258.343 105.568C259.049 105.568 259.595 105.306 259.98 104.781C260.37 104.257 260.564 103.522 260.564 102.579C260.564 100.552 259.832 99.5381 258.368 99.5381C257.564 99.5381 256.974 99.7603 256.597 100.205C256.221 100.645 256.032 101.364 256.032 102.363V102.566C256.032 103.645 256.212 104.415 256.572 104.876C256.936 105.338 257.526 105.568 258.343 105.568ZM202.007 122.439C202.007 121.318 202.17 120.268 202.496 119.291C202.826 118.313 203.3 117.456 203.918 116.72H204.635C204.009 117.49 203.529 118.364 203.194 119.341C202.86 120.315 202.693 121.343 202.693 122.426C202.693 124.47 203.336 126.347 204.623 128.057H203.918C203.296 127.337 202.822 126.497 202.496 125.537C202.17 124.576 202.007 123.543 202.007 122.439ZM204.819 128.342C204.43 128.342 204.111 128.285 203.861 128.171V127.612C204.191 127.697 204.506 127.739 204.807 127.739C205.831 127.739 206.343 127.181 206.343 126.063V116.72H206.99V126C206.99 127.562 206.267 128.342 204.819 128.342ZM215.103 122.541C215.103 123.666 214.83 124.546 214.284 125.181C213.738 125.812 212.985 126.127 212.024 126.127C211.419 126.127 210.886 125.981 210.424 125.689C209.963 125.397 209.61 124.978 209.364 124.432C209.119 123.886 208.996 123.256 208.996 122.541C208.996 121.415 209.269 120.539 209.815 119.913C210.361 119.282 211.11 118.967 212.062 118.967C213.01 118.967 213.753 119.286 214.29 119.925C214.832 120.56 215.103 121.432 215.103 122.541ZM209.656 122.541C209.656 123.488 209.864 124.229 210.278 124.762C210.697 125.291 211.288 125.556 212.049 125.556C212.811 125.556 213.399 125.291 213.814 124.762C214.233 124.229 214.442 123.488 214.442 122.541C214.442 121.588 214.231 120.85 213.808 120.325C213.389 119.8 212.798 119.538 212.037 119.538C211.275 119.538 210.687 119.8 210.272 120.325C209.861 120.846 209.656 121.584 209.656 122.541ZM219.927 118.967C220.892 118.967 221.617 119.271 222.104 119.881C222.595 120.486 222.84 121.373 222.84 122.541C222.84 123.687 222.582 124.572 222.066 125.194C221.554 125.816 220.832 126.127 219.901 126.127C219.41 126.127 218.968 126.025 218.575 125.822C218.181 125.619 217.87 125.331 217.642 124.959H217.584L217.407 126H217.013V116.123H217.642V118.605C217.642 118.977 217.633 119.32 217.616 119.633L217.597 120.173H217.642C217.904 119.758 218.219 119.453 218.587 119.259C218.96 119.064 219.406 118.967 219.927 118.967ZM219.914 119.538C219.102 119.538 218.52 119.771 218.168 120.236C217.817 120.702 217.642 121.47 217.642 122.541V122.648C217.642 123.689 217.824 124.436 218.188 124.889C218.556 125.342 219.127 125.568 219.901 125.568C220.655 125.568 221.222 125.306 221.603 124.781C221.983 124.252 222.174 123.501 222.174 122.528C222.174 120.535 221.421 119.538 219.914 119.538ZM236.754 126V121.474C236.754 120.801 236.623 120.31 236.361 120.001C236.098 119.693 235.696 119.538 235.155 119.538C234.448 119.538 233.925 119.733 233.587 120.122C233.248 120.511 233.079 121.123 233.079 121.957V126H232.438V121.284C232.438 120.12 231.905 119.538 230.838 119.538C230.115 119.538 229.588 119.75 229.258 120.173C228.928 120.592 228.763 121.265 228.763 122.191V126H228.134V119.1H228.655L228.788 120.046H228.826C229.017 119.703 229.287 119.439 229.639 119.252C229.99 119.062 230.377 118.967 230.8 118.967C231.888 118.967 232.586 119.375 232.895 120.192H232.92C233.145 119.798 233.445 119.496 233.822 119.284C234.203 119.073 234.634 118.967 235.117 118.967C235.87 118.967 236.435 119.168 236.812 119.57C237.188 119.972 237.376 120.611 237.376 121.487V126H236.754ZM243.8 126L243.642 124.908H243.591C243.244 125.353 242.886 125.668 242.518 125.854C242.154 126.036 241.722 126.127 241.223 126.127C240.546 126.127 240.019 125.953 239.643 125.606C239.266 125.259 239.078 124.779 239.078 124.166C239.078 123.493 239.357 122.97 239.916 122.598C240.478 122.225 241.291 122.028 242.353 122.007L243.667 121.969V121.512C243.667 120.856 243.534 120.361 243.267 120.027C243 119.693 242.571 119.525 241.979 119.525C241.34 119.525 240.677 119.703 239.992 120.059L239.757 119.513C240.514 119.157 241.263 118.979 242.004 118.979C242.761 118.979 243.326 119.176 243.699 119.57C244.075 119.963 244.264 120.577 244.264 121.411V126H243.8ZM241.261 125.556C241.998 125.556 242.577 125.346 243 124.927C243.428 124.504 243.642 123.918 243.642 123.169V122.49L242.436 122.541C241.466 122.587 240.775 122.739 240.36 122.998C239.949 123.251 239.744 123.649 239.744 124.191C239.744 124.623 239.875 124.959 240.138 125.2C240.404 125.437 240.779 125.556 241.261 125.556ZM251.316 126V121.525C251.316 120.831 251.17 120.327 250.878 120.014C250.586 119.697 250.133 119.538 249.52 119.538C248.694 119.538 248.089 119.748 247.704 120.167C247.323 120.581 247.133 121.256 247.133 122.191V126H246.504V119.1H247.038L247.158 120.046H247.196C247.645 119.326 248.443 118.967 249.589 118.967C251.155 118.967 251.938 119.807 251.938 121.487V126H251.316ZM258.362 126L258.203 124.908H258.152C257.805 125.353 257.448 125.668 257.08 125.854C256.716 126.036 256.284 126.127 255.785 126.127C255.108 126.127 254.581 125.953 254.204 125.606C253.827 125.259 253.639 124.779 253.639 124.166C253.639 123.493 253.918 122.97 254.477 122.598C255.04 122.225 255.852 122.028 256.915 122.007L258.229 121.969V121.512C258.229 120.856 258.095 120.361 257.829 120.027C257.562 119.693 257.132 119.525 256.54 119.525C255.901 119.525 255.239 119.703 254.553 120.059L254.318 119.513C255.076 119.157 255.825 118.979 256.565 118.979C257.323 118.979 257.888 119.176 258.26 119.57C258.637 119.963 258.825 120.577 258.825 121.411V126H258.362ZM255.823 125.556C256.559 125.556 257.139 125.346 257.562 124.927C257.989 124.504 258.203 123.918 258.203 123.169V122.49L256.997 122.541C256.028 122.587 255.336 122.739 254.921 122.998C254.511 123.251 254.306 123.649 254.306 124.191C254.306 124.623 254.437 124.959 254.699 125.2C254.966 125.437 255.34 125.556 255.823 125.556ZM266.449 119.1V119.538L265.021 119.627C265.401 120.101 265.592 120.621 265.592 121.188C265.592 121.853 265.37 122.392 264.925 122.807C264.485 123.218 263.893 123.423 263.148 123.423C262.835 123.423 262.615 123.41 262.488 123.385C262.238 123.516 262.048 123.67 261.917 123.848C261.785 124.026 261.72 124.214 261.72 124.413C261.72 124.633 261.802 124.794 261.967 124.896C262.137 124.997 262.418 125.048 262.812 125.048H264.018C264.767 125.048 265.34 125.2 265.738 125.505C266.136 125.805 266.334 126.252 266.334 126.844C266.334 127.572 266.038 128.133 265.446 128.526C264.858 128.924 264.018 129.123 262.926 129.123C262.058 129.123 261.385 128.956 260.907 128.622C260.433 128.287 260.196 127.822 260.196 127.225C260.196 126.751 260.342 126.358 260.634 126.044C260.931 125.731 261.33 125.518 261.834 125.403C261.627 125.314 261.459 125.19 261.333 125.029C261.21 124.864 261.148 124.675 261.148 124.464C261.148 124.003 261.443 123.596 262.031 123.245C261.629 123.08 261.316 122.822 261.091 122.471C260.867 122.115 260.755 121.709 260.755 121.252C260.755 120.562 260.973 120.01 261.409 119.595C261.849 119.176 262.441 118.967 263.186 118.967C263.639 118.967 263.99 119.011 264.24 119.1H266.449ZM260.863 127.168C260.863 128.116 261.567 128.59 262.977 128.59C264.788 128.59 265.693 128.012 265.693 126.857C265.693 126.442 265.552 126.142 265.268 125.956C264.985 125.769 264.525 125.676 263.891 125.676H262.761C261.495 125.676 260.863 126.174 260.863 127.168ZM261.39 121.252C261.39 121.785 261.55 122.2 261.872 122.496C262.198 122.788 262.632 122.934 263.173 122.934C263.749 122.934 264.189 122.788 264.494 122.496C264.803 122.204 264.957 121.781 264.957 121.227C264.957 120.638 264.798 120.198 264.481 119.906C264.168 119.61 263.728 119.462 263.161 119.462C262.611 119.462 262.177 119.621 261.859 119.938C261.546 120.251 261.39 120.689 261.39 121.252ZM270.657 126.127C269.654 126.127 268.871 125.818 268.309 125.2C267.75 124.582 267.471 123.717 267.471 122.604C267.471 121.504 267.742 120.624 268.283 119.963C268.825 119.299 269.555 118.967 270.473 118.967C271.286 118.967 271.927 119.25 272.396 119.817C272.866 120.384 273.101 121.155 273.101 122.128V122.636H268.131C268.139 123.584 268.359 124.307 268.791 124.807C269.227 125.306 269.849 125.556 270.657 125.556C271.051 125.556 271.396 125.528 271.692 125.473C271.992 125.418 272.371 125.3 272.828 125.118V125.689C272.439 125.858 272.079 125.972 271.749 126.032C271.419 126.095 271.055 126.127 270.657 126.127ZM270.473 119.525C269.809 119.525 269.276 119.745 268.874 120.186C268.472 120.621 268.237 121.252 268.169 122.077H272.435C272.435 121.277 272.261 120.653 271.914 120.205C271.567 119.752 271.087 119.525 270.473 119.525ZM277.722 118.967C278.014 118.967 278.327 118.996 278.662 119.056L278.541 119.659C278.253 119.587 277.955 119.551 277.646 119.551C277.058 119.551 276.575 119.8 276.199 120.3C275.822 120.799 275.634 121.43 275.634 122.191V126H275.005V119.1H275.539L275.602 120.344H275.646C275.93 119.836 276.233 119.481 276.554 119.278C276.876 119.07 277.265 118.967 277.722 118.967ZM284.349 124.204C284.349 124.821 284.114 125.298 283.645 125.632C283.175 125.962 282.508 126.127 281.645 126.127C280.722 126.127 279.99 125.985 279.449 125.702V125.022C280.143 125.369 280.875 125.543 281.645 125.543C282.326 125.543 282.843 125.431 283.194 125.207C283.549 124.978 283.727 124.675 283.727 124.299C283.727 123.952 283.585 123.66 283.302 123.423C283.022 123.186 282.561 122.953 281.918 122.725C281.228 122.475 280.744 122.261 280.464 122.083C280.185 121.902 279.973 121.698 279.83 121.474C279.69 121.246 279.62 120.968 279.62 120.643C279.62 120.126 279.836 119.718 280.268 119.417C280.703 119.117 281.311 118.967 282.089 118.967C282.834 118.967 283.541 119.106 284.209 119.386L283.975 119.957C283.298 119.678 282.669 119.538 282.089 119.538C281.527 119.538 281.08 119.631 280.75 119.817C280.42 120.004 280.255 120.262 280.255 120.592C280.255 120.951 280.382 121.239 280.636 121.455C280.894 121.671 281.395 121.912 282.14 122.179C282.762 122.403 283.215 122.606 283.499 122.788C283.782 122.966 283.994 123.169 284.133 123.397C284.277 123.626 284.349 123.895 284.349 124.204ZM287.986 122.439C287.986 123.552 287.821 124.589 287.491 125.549C287.165 126.51 286.694 127.346 286.076 128.057H285.371C286.658 126.347 287.301 124.47 287.301 122.426C287.301 121.339 287.134 120.308 286.799 119.335C286.465 118.357 285.985 117.486 285.358 116.72H286.076C286.698 117.46 287.172 118.321 287.498 119.303C287.823 120.281 287.986 121.326 287.986 122.439Z" fill="black"/>
<path d="M329.849 106L326.389 97.4307H326.338C326.372 97.9554 326.389 98.4928 326.389 99.043V106H325.767V96.7197H326.77L330.058 104.883H330.096L333.384 96.7197H334.362V106H333.708V98.9668C333.708 98.4759 333.733 97.9681 333.784 97.4434H333.733L330.261 106H329.849ZM342.538 102.541C342.538 103.666 342.265 104.546 341.719 105.181C341.173 105.812 340.42 106.127 339.459 106.127C338.854 106.127 338.321 105.981 337.859 105.689C337.398 105.397 337.045 104.978 336.799 104.432C336.554 103.886 336.431 103.256 336.431 102.541C336.431 101.415 336.704 100.539 337.25 99.9126C337.796 99.2821 338.545 98.9668 339.497 98.9668C340.445 98.9668 341.188 99.2863 341.725 99.9253C342.267 100.56 342.538 101.432 342.538 102.541ZM337.091 102.541C337.091 103.488 337.299 104.229 337.713 104.762C338.132 105.291 338.723 105.556 339.484 105.556C340.246 105.556 340.834 105.291 341.249 104.762C341.668 104.229 341.877 103.488 341.877 102.541C341.877 101.588 341.666 100.85 341.243 100.325C340.824 99.8005 340.233 99.5381 339.472 99.5381C338.71 99.5381 338.122 99.8005 337.707 100.325C337.297 100.846 337.091 101.584 337.091 102.541ZM349.26 106V101.525C349.26 100.831 349.114 100.327 348.822 100.014C348.53 99.6968 348.077 99.5381 347.463 99.5381C346.638 99.5381 346.033 99.7476 345.648 100.167C345.267 100.581 345.077 101.256 345.077 102.191V106H344.448V99.1001H344.981L345.102 100.046H345.14C345.589 99.3265 346.386 98.9668 347.533 98.9668C349.099 98.9668 349.882 99.8068 349.882 101.487V106H349.26ZM352.745 106H352.116V99.1001H352.745V106ZM352.027 97.1831C352.027 96.7769 352.161 96.5737 352.427 96.5737C352.558 96.5737 352.66 96.6266 352.732 96.7324C352.808 96.8382 352.846 96.9884 352.846 97.1831C352.846 97.3735 352.808 97.5238 352.732 97.6338C352.66 97.7438 352.558 97.7988 352.427 97.7988C352.161 97.7988 352.027 97.5936 352.027 97.1831ZM356.883 105.568C357.281 105.568 357.628 105.535 357.924 105.467V105.975C357.62 106.076 357.268 106.127 356.871 106.127C356.261 106.127 355.811 105.964 355.519 105.638C355.231 105.312 355.087 104.8 355.087 104.102V99.646H354.065V99.2778L355.087 98.9922L355.404 97.4307H355.728V99.1001H357.753V99.646H355.728V104.013C355.728 104.542 355.821 104.934 356.007 105.188C356.194 105.441 356.486 105.568 356.883 105.568ZM365.123 102.541C365.123 103.666 364.85 104.546 364.304 105.181C363.758 105.812 363.005 106.127 362.044 106.127C361.439 106.127 360.906 105.981 360.444 105.689C359.983 105.397 359.63 104.978 359.384 104.432C359.139 103.886 359.016 103.256 359.016 102.541C359.016 101.415 359.289 100.539 359.835 99.9126C360.381 99.2821 361.13 98.9668 362.082 98.9668C363.03 98.9668 363.773 99.2863 364.31 99.9253C364.852 100.56 365.123 101.432 365.123 102.541ZM359.676 102.541C359.676 103.488 359.884 104.229 360.298 104.762C360.717 105.291 361.308 105.556 362.069 105.556C362.831 105.556 363.419 105.291 363.834 104.762C364.253 104.229 364.462 103.488 364.462 102.541C364.462 101.588 364.251 100.85 363.828 100.325C363.409 99.8005 362.818 99.5381 362.057 99.5381C361.295 99.5381 360.707 99.8005 360.292 100.325C359.882 100.846 359.676 101.584 359.676 102.541ZM369.75 98.9668C370.042 98.9668 370.355 98.9964 370.689 99.0557L370.569 99.6587C370.281 99.5868 369.983 99.5508 369.674 99.5508C369.086 99.5508 368.603 99.8005 368.227 100.3C367.85 100.799 367.662 101.43 367.662 102.191V106H367.033V99.1001H367.566L367.63 100.344H367.674C367.958 99.8364 368.26 99.481 368.582 99.2778C368.904 99.0705 369.293 98.9668 369.75 98.9668ZM372.727 106H372.099V99.1001H372.727V106ZM372.01 97.1831C372.01 96.7769 372.143 96.5737 372.41 96.5737C372.541 96.5737 372.642 96.6266 372.714 96.7324C372.791 96.8382 372.829 96.9884 372.829 97.1831C372.829 97.3735 372.791 97.5238 372.714 97.6338C372.642 97.7438 372.541 97.7988 372.41 97.7988C372.143 97.7988 372.01 97.5936 372.01 97.1831ZM379.855 106V101.525C379.855 100.831 379.709 100.327 379.417 100.014C379.125 99.6968 378.673 99.5381 378.059 99.5381C377.234 99.5381 376.629 99.7476 376.244 100.167C375.863 100.581 375.672 101.256 375.672 102.191V106H375.044V99.1001H375.577L375.698 100.046H375.736C376.184 99.3265 376.982 98.9668 378.129 98.9668C379.695 98.9668 380.478 99.8068 380.478 101.487V106H379.855ZM388.095 99.1001V99.5381L386.667 99.627C387.047 100.101 387.238 100.621 387.238 101.188C387.238 101.853 387.016 102.392 386.571 102.807C386.131 103.218 385.539 103.423 384.794 103.423C384.481 103.423 384.261 103.41 384.134 103.385C383.884 103.516 383.694 103.67 383.562 103.848C383.431 104.026 383.366 104.214 383.366 104.413C383.366 104.633 383.448 104.794 383.613 104.896C383.783 104.997 384.064 105.048 384.458 105.048H385.664C386.413 105.048 386.986 105.2 387.384 105.505C387.782 105.805 387.98 106.252 387.98 106.844C387.98 107.572 387.684 108.133 387.092 108.526C386.504 108.924 385.664 109.123 384.572 109.123C383.704 109.123 383.031 108.956 382.553 108.622C382.079 108.287 381.842 107.822 381.842 107.225C381.842 106.751 381.988 106.358 382.28 106.044C382.576 105.731 382.976 105.518 383.48 105.403C383.273 105.314 383.105 105.19 382.979 105.029C382.856 104.864 382.794 104.675 382.794 104.464C382.794 104.003 383.089 103.596 383.677 103.245C383.275 103.08 382.962 102.822 382.737 102.471C382.513 102.115 382.401 101.709 382.401 101.252C382.401 100.562 382.619 100.01 383.055 99.5952C383.495 99.1763 384.087 98.9668 384.832 98.9668C385.285 98.9668 385.636 99.0112 385.886 99.1001H388.095ZM382.509 107.168C382.509 108.116 383.213 108.59 384.623 108.59C386.434 108.59 387.339 108.012 387.339 106.857C387.339 106.442 387.198 106.142 386.914 105.956C386.631 105.769 386.171 105.676 385.537 105.676H384.407C383.141 105.676 382.509 106.174 382.509 107.168ZM383.036 101.252C383.036 101.785 383.196 102.2 383.518 102.496C383.844 102.788 384.278 102.934 384.819 102.934C385.395 102.934 385.835 102.788 386.14 102.496C386.449 102.204 386.603 101.781 386.603 101.227C386.603 100.638 386.444 100.198 386.127 99.9062C385.814 99.61 385.374 99.4619 384.807 99.4619C384.257 99.4619 383.823 99.6206 383.505 99.938C383.192 100.251 383.036 100.689 383.036 101.252ZM392.519 103.645C392.519 103.061 392.674 102.564 392.982 102.153C393.296 101.743 393.877 101.309 394.728 100.852L394.252 100.332C393.973 100.031 393.765 99.737 393.63 99.4492C393.494 99.1615 393.427 98.861 393.427 98.5479C393.427 97.9427 393.628 97.4624 394.03 97.1069C394.436 96.7515 394.98 96.5737 395.661 96.5737C396.317 96.5737 396.835 96.7451 397.216 97.0879C397.601 97.4307 397.794 97.9046 397.794 98.5098C397.794 98.9541 397.646 99.3625 397.35 99.7349C397.053 100.103 396.518 100.514 395.744 100.966L398.613 103.867C398.871 103.562 399.091 103.23 399.273 102.871C399.455 102.511 399.614 102.086 399.749 101.595H400.358C400.092 102.636 399.65 103.537 399.032 104.299L400.72 106H399.863L398.638 104.75C398.249 105.13 397.902 105.41 397.597 105.587C397.292 105.761 396.958 105.894 396.594 105.987C396.235 106.08 395.824 106.127 395.363 106.127C394.478 106.127 393.782 105.909 393.274 105.473C392.771 105.037 392.519 104.428 392.519 103.645ZM395.407 105.556C395.949 105.556 396.444 105.465 396.893 105.283C397.345 105.097 397.79 104.785 398.226 104.35L395.16 101.271C394.584 101.576 394.167 101.836 393.909 102.052C393.655 102.263 393.469 102.494 393.351 102.744C393.236 102.993 393.179 103.285 393.179 103.62C393.179 104.225 393.376 104.699 393.77 105.042C394.163 105.384 394.709 105.556 395.407 105.556ZM394.106 98.5352C394.106 98.8695 394.191 99.1784 394.36 99.4619C394.529 99.7454 394.851 100.114 395.325 100.566C395.998 100.207 396.465 99.8703 396.728 99.5571C396.99 99.244 397.121 98.8864 397.121 98.4844C397.121 98.0866 396.99 97.765 396.728 97.5195C396.465 97.2699 396.11 97.145 395.661 97.145C395.179 97.145 394.798 97.2677 394.519 97.5132C394.243 97.7586 394.106 98.0993 394.106 98.5352ZM412.743 101.271C412.743 102.828 412.334 104.007 411.518 104.807C410.701 105.602 409.501 106 407.918 106H405.697V96.7197H408.204C409.685 96.7197 410.811 97.1069 411.581 97.8813C412.355 98.6558 412.743 99.7856 412.743 101.271ZM412.038 101.296C412.038 99.9676 411.7 98.9689 411.022 98.3003C410.35 97.6274 409.359 97.291 408.052 97.291H406.344V105.429H407.88C410.652 105.429 412.038 104.051 412.038 101.296ZM415.345 106H414.717V99.1001H415.345V106ZM414.628 97.1831C414.628 96.7769 414.761 96.5737 415.028 96.5737C415.159 96.5737 415.261 96.6266 415.333 96.7324C415.409 96.8382 415.447 96.9884 415.447 97.1831C415.447 97.3735 415.409 97.5238 415.333 97.6338C415.261 97.7438 415.159 97.7988 415.028 97.7988C414.761 97.7988 414.628 97.5936 414.628 97.1831ZM421.852 106L421.693 104.908H421.642C421.295 105.353 420.938 105.668 420.569 105.854C420.205 106.036 419.774 106.127 419.274 106.127C418.597 106.127 418.07 105.953 417.694 105.606C417.317 105.259 417.129 104.779 417.129 104.166C417.129 103.493 417.408 102.97 417.967 102.598C418.53 102.225 419.342 102.028 420.404 102.007L421.718 101.969V101.512C421.718 100.856 421.585 100.361 421.318 100.027C421.052 99.6925 420.622 99.5254 420.03 99.5254C419.391 99.5254 418.729 99.7031 418.043 100.059L417.808 99.5127C418.566 99.1572 419.315 98.9795 420.055 98.9795C420.813 98.9795 421.378 99.1763 421.75 99.5698C422.127 99.9634 422.315 100.577 422.315 101.411V106H421.852ZM419.312 105.556C420.049 105.556 420.629 105.346 421.052 104.927C421.479 104.504 421.693 103.918 421.693 103.169V102.49L420.487 102.541C419.518 102.587 418.826 102.739 418.411 102.998C418.001 103.251 417.795 103.649 417.795 104.191C417.795 104.623 417.927 104.959 418.189 105.2C418.456 105.437 418.83 105.556 419.312 105.556ZM429.938 99.1001V99.5381L428.51 99.627C428.891 100.101 429.082 100.621 429.082 101.188C429.082 101.853 428.859 102.392 428.415 102.807C427.975 103.218 427.382 103.423 426.638 103.423C426.325 103.423 426.104 103.41 425.978 103.385C425.728 103.516 425.537 103.67 425.406 103.848C425.275 104.026 425.209 104.214 425.209 104.413C425.209 104.633 425.292 104.794 425.457 104.896C425.626 104.997 425.908 105.048 426.301 105.048H427.507C428.256 105.048 428.83 105.2 429.228 105.505C429.625 105.805 429.824 106.252 429.824 106.844C429.824 107.572 429.528 108.133 428.936 108.526C428.347 108.924 427.507 109.123 426.416 109.123C425.548 109.123 424.875 108.956 424.397 108.622C423.923 108.287 423.686 107.822 423.686 107.225C423.686 106.751 423.832 106.358 424.124 106.044C424.42 105.731 424.82 105.518 425.324 105.403C425.116 105.314 424.949 105.19 424.822 105.029C424.7 104.864 424.638 104.675 424.638 104.464C424.638 104.003 424.932 103.596 425.521 103.245C425.118 103.08 424.805 102.822 424.581 102.471C424.357 102.115 424.245 101.709 424.245 101.252C424.245 100.562 424.463 100.01 424.898 99.5952C425.339 99.1763 425.931 98.9668 426.676 98.9668C427.129 98.9668 427.48 99.0112 427.729 99.1001H429.938ZM424.353 107.168C424.353 108.116 425.057 108.59 426.466 108.59C428.278 108.59 429.183 108.012 429.183 106.857C429.183 106.442 429.041 106.142 428.758 105.956C428.474 105.769 428.015 105.676 427.38 105.676H426.25C424.985 105.676 424.353 106.174 424.353 107.168ZM424.879 101.252C424.879 101.785 425.04 102.2 425.362 102.496C425.688 102.788 426.121 102.934 426.663 102.934C427.239 102.934 427.679 102.788 427.983 102.496C428.292 102.204 428.447 101.781 428.447 101.227C428.447 100.638 428.288 100.198 427.971 99.9062C427.658 99.61 427.217 99.4619 426.65 99.4619C426.1 99.4619 425.667 99.6206 425.349 99.938C425.036 100.251 424.879 100.689 424.879 101.252ZM436.172 106V101.525C436.172 100.831 436.026 100.327 435.734 100.014C435.442 99.6968 434.989 99.5381 434.375 99.5381C433.55 99.5381 432.945 99.7476 432.56 100.167C432.179 100.581 431.989 101.256 431.989 102.191V106H431.36V99.1001H431.894L432.014 100.046H432.052C432.501 99.3265 433.299 98.9668 434.445 98.9668C436.011 98.9668 436.794 99.8068 436.794 101.487V106H436.172ZM444.735 102.541C444.735 103.666 444.462 104.546 443.916 105.181C443.37 105.812 442.617 106.127 441.656 106.127C441.051 106.127 440.518 105.981 440.057 105.689C439.595 105.397 439.242 104.978 438.997 104.432C438.751 103.886 438.628 103.256 438.628 102.541C438.628 101.415 438.901 100.539 439.447 99.9126C439.993 99.2821 440.742 98.9668 441.694 98.9668C442.642 98.9668 443.385 99.2863 443.922 99.9253C444.464 100.56 444.735 101.432 444.735 102.541ZM439.289 102.541C439.289 103.488 439.496 104.229 439.911 104.762C440.33 105.291 440.92 105.556 441.682 105.556C442.443 105.556 443.032 105.291 443.446 104.762C443.865 104.229 444.075 103.488 444.075 102.541C444.075 101.588 443.863 100.85 443.44 100.325C443.021 99.8005 442.431 99.5381 441.669 99.5381C440.907 99.5381 440.319 99.8005 439.904 100.325C439.494 100.846 439.289 101.584 439.289 102.541ZM450.924 104.204C450.924 104.821 450.689 105.298 450.219 105.632C449.75 105.962 449.083 106.127 448.22 106.127C447.297 106.127 446.565 105.985 446.023 105.702V105.022C446.717 105.369 447.45 105.543 448.22 105.543C448.901 105.543 449.417 105.431 449.769 105.207C450.124 104.978 450.302 104.675 450.302 104.299C450.302 103.952 450.16 103.66 449.876 103.423C449.597 103.186 449.136 102.953 448.493 102.725C447.803 102.475 447.318 102.261 447.039 102.083C446.76 101.902 446.548 101.698 446.404 101.474C446.265 101.246 446.195 100.968 446.195 100.643C446.195 100.126 446.411 99.7179 446.842 99.4175C447.278 99.117 447.885 98.9668 448.664 98.9668C449.409 98.9668 450.116 99.1064 450.784 99.3857L450.549 99.957C449.872 99.6777 449.244 99.5381 448.664 99.5381C448.101 99.5381 447.655 99.6312 447.325 99.8174C446.995 100.004 446.83 100.262 446.83 100.592C446.83 100.951 446.957 101.239 447.21 101.455C447.469 101.671 447.97 101.912 448.715 102.179C449.337 102.403 449.79 102.606 450.073 102.788C450.357 102.966 450.568 103.169 450.708 103.397C450.852 103.626 450.924 103.895 450.924 104.204ZM453.33 106H452.701V99.1001H453.33V106ZM452.612 97.1831C452.612 96.7769 452.746 96.5737 453.012 96.5737C453.143 96.5737 453.245 96.6266 453.317 96.7324C453.393 96.8382 453.431 96.9884 453.431 97.1831C453.431 97.3735 453.393 97.5238 453.317 97.6338C453.245 97.7438 453.143 97.7988 453.012 97.7988C452.746 97.7988 452.612 97.5936 452.612 97.1831ZM459.925 104.204C459.925 104.821 459.69 105.298 459.22 105.632C458.75 105.962 458.084 106.127 457.221 106.127C456.298 106.127 455.566 105.985 455.024 105.702V105.022C455.718 105.369 456.451 105.543 457.221 105.543C457.902 105.543 458.418 105.431 458.77 105.207C459.125 104.978 459.303 104.675 459.303 104.299C459.303 103.952 459.161 103.66 458.877 103.423C458.598 103.186 458.137 102.953 457.494 102.725C456.804 102.475 456.319 102.261 456.04 102.083C455.761 101.902 455.549 101.698 455.405 101.474C455.266 101.246 455.196 100.968 455.196 100.643C455.196 100.126 455.412 99.7179 455.843 99.4175C456.279 99.117 456.886 98.9668 457.665 98.9668C458.41 98.9668 459.117 99.1064 459.785 99.3857L459.55 99.957C458.873 99.6777 458.245 99.5381 457.665 99.5381C457.102 99.5381 456.656 99.6312 456.326 99.8174C455.996 100.004 455.831 100.262 455.831 100.592C455.831 100.951 455.958 101.239 456.211 101.455C456.47 101.671 456.971 101.912 457.716 102.179C458.338 102.403 458.791 102.606 459.074 102.788C459.358 102.966 459.569 103.169 459.709 103.397C459.853 103.626 459.925 103.895 459.925 104.204ZM326.561 122.439C326.561 121.318 326.723 120.268 327.049 119.291C327.379 118.313 327.853 117.456 328.471 116.72H329.188C328.562 117.49 328.082 118.364 327.748 119.341C327.413 120.315 327.246 121.343 327.246 122.426C327.246 124.47 327.889 126.347 329.176 128.057H328.471C327.849 127.337 327.375 126.497 327.049 125.537C326.723 124.576 326.561 123.543 326.561 122.439ZM336.482 119.386C336.482 120.283 336.177 120.971 335.568 121.449C334.958 121.927 334.095 122.166 332.978 122.166H331.543V126H330.896V116.72H333.168C335.377 116.72 336.482 117.608 336.482 119.386ZM331.543 121.607H332.819C333.865 121.607 334.62 121.436 335.085 121.093C335.551 120.746 335.784 120.186 335.784 119.411C335.784 118.696 335.564 118.167 335.124 117.824C334.683 117.477 334.002 117.304 333.08 117.304H331.543V121.607ZM341.059 118.967C341.351 118.967 341.664 118.996 341.998 119.056L341.877 119.659C341.59 119.587 341.291 119.551 340.982 119.551C340.394 119.551 339.912 119.8 339.535 120.3C339.159 120.799 338.97 121.43 338.97 122.191V126H338.342V119.1H338.875L338.938 120.344H338.983C339.266 119.836 339.569 119.481 339.891 119.278C340.212 119.07 340.602 118.967 341.059 118.967ZM349.114 122.541C349.114 123.666 348.841 124.546 348.295 125.181C347.749 125.812 346.996 126.127 346.035 126.127C345.43 126.127 344.897 125.981 344.436 125.689C343.974 125.397 343.621 124.978 343.375 124.432C343.13 123.886 343.007 123.256 343.007 122.541C343.007 121.415 343.28 120.539 343.826 119.913C344.372 119.282 345.121 118.967 346.073 118.967C347.021 118.967 347.764 119.286 348.301 119.925C348.843 120.56 349.114 121.432 349.114 122.541ZM343.667 122.541C343.667 123.488 343.875 124.229 344.29 124.762C344.708 125.291 345.299 125.556 346.061 125.556C346.822 125.556 347.41 125.291 347.825 124.762C348.244 124.229 348.454 123.488 348.454 122.541C348.454 121.588 348.242 120.85 347.819 120.325C347.4 119.8 346.81 119.538 346.048 119.538C345.286 119.538 344.698 119.8 344.283 120.325C343.873 120.846 343.667 121.584 343.667 122.541ZM353.551 118.967C354.05 118.967 354.482 119.058 354.846 119.24C355.21 119.422 355.535 119.733 355.823 120.173H355.861C355.836 119.64 355.823 119.117 355.823 118.605V116.123H356.445V126H356.033L355.874 124.946H355.823C355.299 125.733 354.545 126.127 353.563 126.127C352.611 126.127 351.883 125.831 351.38 125.238C350.876 124.646 350.625 123.783 350.625 122.648C350.625 121.455 350.874 120.543 351.374 119.913C351.873 119.282 352.599 118.967 353.551 118.967ZM353.551 119.538C352.798 119.538 352.23 119.803 351.85 120.332C351.473 120.861 351.285 121.629 351.285 122.636C351.285 124.591 352.044 125.568 353.563 125.568C354.342 125.568 354.913 125.342 355.277 124.889C355.641 124.436 355.823 123.689 355.823 122.648V122.541C355.823 121.474 355.643 120.708 355.284 120.243C354.928 119.773 354.351 119.538 353.551 119.538ZM359.314 119.1V123.569C359.314 124.263 359.46 124.769 359.752 125.086C360.044 125.399 360.497 125.556 361.111 125.556C361.932 125.556 362.535 125.348 362.92 124.934C363.309 124.519 363.504 123.844 363.504 122.909V119.1H364.126V126H363.593L363.479 125.048H363.44C362.992 125.767 362.194 126.127 361.047 126.127C359.477 126.127 358.692 125.287 358.692 123.607V119.1H359.314ZM369.191 126.127C368.205 126.127 367.433 125.816 366.875 125.194C366.316 124.572 366.037 123.704 366.037 122.591C366.037 121.449 366.326 120.56 366.906 119.925C367.486 119.286 368.279 118.967 369.287 118.967C369.883 118.967 370.455 119.07 371 119.278L370.829 119.836C370.232 119.638 369.714 119.538 369.274 119.538C368.428 119.538 367.786 119.8 367.351 120.325C366.915 120.846 366.697 121.597 366.697 122.579C366.697 123.51 366.915 124.24 367.351 124.769C367.786 125.293 368.396 125.556 369.179 125.556C369.805 125.556 370.387 125.444 370.924 125.219V125.803C370.484 126.019 369.907 126.127 369.191 126.127ZM374.441 125.568C374.839 125.568 375.186 125.535 375.482 125.467V125.975C375.177 126.076 374.826 126.127 374.428 126.127C373.819 126.127 373.368 125.964 373.076 125.638C372.788 125.312 372.645 124.8 372.645 124.102V119.646H371.623V119.278L372.645 118.992L372.962 117.431H373.286V119.1H375.311V119.646H373.286V124.013C373.286 124.542 373.379 124.934 373.565 125.188C373.751 125.441 374.043 125.568 374.441 125.568ZM377.602 126H376.974V119.1H377.602V126ZM376.885 117.183C376.885 116.777 377.018 116.574 377.285 116.574C377.416 116.574 377.517 116.627 377.589 116.732C377.666 116.838 377.704 116.988 377.704 117.183C377.704 117.374 377.666 117.524 377.589 117.634C377.517 117.744 377.416 117.799 377.285 117.799C377.018 117.799 376.885 117.594 376.885 117.183ZM385.625 122.541C385.625 123.666 385.353 124.546 384.807 125.181C384.261 125.812 383.507 126.127 382.547 126.127C381.942 126.127 381.409 125.981 380.947 125.689C380.486 125.397 380.133 124.978 379.887 124.432C379.642 123.886 379.519 123.256 379.519 122.541C379.519 121.415 379.792 120.539 380.338 119.913C380.884 119.282 381.633 118.967 382.585 118.967C383.533 118.967 384.276 119.286 384.813 119.925C385.355 120.56 385.625 121.432 385.625 122.541ZM380.179 122.541C380.179 123.488 380.387 124.229 380.801 124.762C381.22 125.291 381.811 125.556 382.572 125.556C383.334 125.556 383.922 125.291 384.337 124.762C384.756 124.229 384.965 123.488 384.965 122.541C384.965 121.588 384.754 120.85 384.331 120.325C383.912 119.8 383.321 119.538 382.56 119.538C381.798 119.538 381.21 119.8 380.795 120.325C380.384 120.846 380.179 121.584 380.179 122.541ZM392.348 126V121.525C392.348 120.831 392.202 120.327 391.91 120.014C391.618 119.697 391.165 119.538 390.551 119.538C389.726 119.538 389.121 119.748 388.736 120.167C388.355 120.581 388.165 121.256 388.165 122.191V126H387.536V119.1H388.069L388.19 120.046H388.228C388.677 119.326 389.474 118.967 390.621 118.967C392.187 118.967 392.97 119.807 392.97 121.487V126H392.348ZM407.201 126V121.474C407.201 120.801 407.07 120.31 406.808 120.001C406.545 119.693 406.143 119.538 405.602 119.538C404.895 119.538 404.372 119.733 404.034 120.122C403.695 120.511 403.526 121.123 403.526 121.957V126H402.885V121.284C402.885 120.12 402.352 119.538 401.285 119.538C400.562 119.538 400.035 119.75 399.705 120.173C399.375 120.592 399.209 121.265 399.209 122.191V126H398.581V119.1H399.102L399.235 120.046H399.273C399.463 119.703 399.734 119.439 400.085 119.252C400.437 119.062 400.824 118.967 401.247 118.967C402.335 118.967 403.033 119.375 403.342 120.192H403.367C403.591 119.798 403.892 119.496 404.269 119.284C404.649 119.073 405.081 118.967 405.563 118.967C406.317 118.967 406.882 119.168 407.258 119.57C407.635 119.972 407.823 120.611 407.823 121.487V126H407.201ZM414.247 126L414.088 124.908H414.038C413.691 125.353 413.333 125.668 412.965 125.854C412.601 126.036 412.169 126.127 411.67 126.127C410.993 126.127 410.466 125.953 410.089 125.606C409.713 125.259 409.524 124.779 409.524 124.166C409.524 123.493 409.804 122.97 410.362 122.598C410.925 122.225 411.738 122.028 412.8 122.007L414.114 121.969V121.512C414.114 120.856 413.98 120.361 413.714 120.027C413.447 119.693 413.018 119.525 412.425 119.525C411.786 119.525 411.124 119.703 410.438 120.059L410.204 119.513C410.961 119.157 411.71 118.979 412.451 118.979C413.208 118.979 413.773 119.176 414.146 119.57C414.522 119.963 414.71 120.577 414.71 121.411V126H414.247ZM411.708 125.556C412.444 125.556 413.024 125.346 413.447 124.927C413.875 124.504 414.088 123.918 414.088 123.169V122.49L412.882 122.541C411.913 122.587 411.221 122.739 410.807 122.998C410.396 123.251 410.191 123.649 410.191 124.191C410.191 124.623 410.322 124.959 410.584 125.2C410.851 125.437 411.226 125.556 411.708 125.556ZM421.763 126V121.525C421.763 120.831 421.617 120.327 421.325 120.014C421.033 119.697 420.58 119.538 419.966 119.538C419.141 119.538 418.536 119.748 418.151 120.167C417.77 120.581 417.58 121.256 417.58 122.191V126H416.951V119.1H417.484L417.605 120.046H417.643C418.092 119.326 418.889 118.967 420.036 118.967C421.602 118.967 422.385 119.807 422.385 121.487V126H421.763ZM428.809 126L428.65 124.908H428.599C428.252 125.353 427.895 125.668 427.526 125.854C427.162 126.036 426.731 126.127 426.231 126.127C425.554 126.127 425.028 125.953 424.651 125.606C424.274 125.259 424.086 124.779 424.086 124.166C424.086 123.493 424.365 122.97 424.924 122.598C425.487 122.225 426.299 122.028 427.361 122.007L428.675 121.969V121.512C428.675 120.856 428.542 120.361 428.275 120.027C428.009 119.693 427.579 119.525 426.987 119.525C426.348 119.525 425.686 119.703 425 120.059L424.765 119.513C425.523 119.157 426.272 118.979 427.012 118.979C427.77 118.979 428.335 119.176 428.707 119.57C429.084 119.963 429.272 120.577 429.272 121.411V126H428.809ZM426.27 125.556C427.006 125.556 427.586 125.346 428.009 124.927C428.436 124.504 428.65 123.918 428.65 123.169V122.49L427.444 122.541C426.475 122.587 425.783 122.739 425.368 122.998C424.958 123.251 424.752 123.649 424.752 124.191C424.752 124.623 424.884 124.959 425.146 125.2C425.413 125.437 425.787 125.556 426.27 125.556ZM436.896 119.1V119.538L435.467 119.627C435.848 120.101 436.039 120.621 436.039 121.188C436.039 121.853 435.816 122.392 435.372 122.807C434.932 123.218 434.34 123.423 433.595 123.423C433.282 123.423 433.062 123.41 432.935 123.385C432.685 123.516 432.494 123.67 432.363 123.848C432.232 124.026 432.167 124.214 432.167 124.413C432.167 124.633 432.249 124.794 432.414 124.896C432.583 124.997 432.865 125.048 433.258 125.048H434.464C435.213 125.048 435.787 125.2 436.185 125.505C436.582 125.805 436.781 126.252 436.781 126.844C436.781 127.572 436.485 128.133 435.893 128.526C435.304 128.924 434.464 129.123 433.373 129.123C432.505 129.123 431.832 128.956 431.354 128.622C430.88 128.287 430.643 127.822 430.643 127.225C430.643 126.751 430.789 126.358 431.081 126.044C431.377 125.731 431.777 125.518 432.281 125.403C432.073 125.314 431.906 125.19 431.779 125.029C431.657 124.864 431.595 124.675 431.595 124.464C431.595 124.003 431.889 123.596 432.478 123.245C432.076 123.08 431.762 122.822 431.538 122.471C431.314 122.115 431.202 121.709 431.202 121.252C431.202 120.562 431.42 120.01 431.855 119.595C432.296 119.176 432.888 118.967 433.633 118.967C434.086 118.967 434.437 119.011 434.687 119.1H436.896ZM431.31 127.168C431.31 128.116 432.014 128.59 433.423 128.59C435.235 128.59 436.14 128.012 436.14 126.857C436.14 126.442 435.998 126.142 435.715 125.956C435.431 125.769 434.972 125.676 434.337 125.676H433.208C431.942 125.676 431.31 126.174 431.31 127.168ZM431.836 121.252C431.836 121.785 431.997 122.2 432.319 122.496C432.645 122.788 433.078 122.934 433.62 122.934C434.196 122.934 434.636 122.788 434.94 122.496C435.249 122.204 435.404 121.781 435.404 121.227C435.404 120.638 435.245 120.198 434.928 119.906C434.615 119.61 434.174 119.462 433.607 119.462C433.057 119.462 432.624 119.621 432.306 119.938C431.993 120.251 431.836 120.689 431.836 121.252ZM441.104 126.127C440.101 126.127 439.318 125.818 438.755 125.2C438.197 124.582 437.917 123.717 437.917 122.604C437.917 121.504 438.188 120.624 438.73 119.963C439.272 119.299 440.002 118.967 440.92 118.967C441.732 118.967 442.374 119.25 442.843 119.817C443.313 120.384 443.548 121.155 443.548 122.128V122.636H438.578C438.586 123.584 438.806 124.307 439.238 124.807C439.674 125.306 440.296 125.556 441.104 125.556C441.498 125.556 441.842 125.528 442.139 125.473C442.439 125.418 442.818 125.3 443.275 125.118V125.689C442.886 125.858 442.526 125.972 442.196 126.032C441.866 126.095 441.502 126.127 441.104 126.127ZM440.92 119.525C440.256 119.525 439.722 119.745 439.32 120.186C438.918 120.621 438.683 121.252 438.616 122.077H442.881C442.881 121.277 442.708 120.653 442.361 120.205C442.014 119.752 441.534 119.525 440.92 119.525ZM448.169 118.967C448.461 118.967 448.774 118.996 449.108 119.056L448.988 119.659C448.7 119.587 448.402 119.551 448.093 119.551C447.505 119.551 447.022 119.8 446.646 120.3C446.269 120.799 446.081 121.43 446.081 122.191V126H445.452V119.1H445.985L446.049 120.344H446.093C446.377 119.836 446.679 119.481 447.001 119.278C447.323 119.07 447.712 118.967 448.169 118.967ZM454.796 124.204C454.796 124.821 454.561 125.298 454.091 125.632C453.622 125.962 452.955 126.127 452.092 126.127C451.169 126.127 450.437 125.985 449.896 125.702V125.022C450.59 125.369 451.322 125.543 452.092 125.543C452.773 125.543 453.289 125.431 453.641 125.207C453.996 124.978 454.174 124.675 454.174 124.299C454.174 123.952 454.032 123.66 453.749 123.423C453.469 123.186 453.008 122.953 452.365 122.725C451.675 122.475 451.19 122.261 450.911 122.083C450.632 121.902 450.42 121.698 450.276 121.474C450.137 121.246 450.067 120.968 450.067 120.643C450.067 120.126 450.283 119.718 450.714 119.417C451.15 119.117 451.757 118.967 452.536 118.967C453.281 118.967 453.988 119.106 454.656 119.386L454.421 119.957C453.744 119.678 453.116 119.538 452.536 119.538C451.973 119.538 451.527 119.631 451.197 119.817C450.867 120.004 450.702 120.262 450.702 120.592C450.702 120.951 450.829 121.239 451.083 121.455C451.341 121.671 451.842 121.912 452.587 122.179C453.209 122.403 453.662 122.606 453.945 122.788C454.229 122.966 454.44 123.169 454.58 123.397C454.724 123.626 454.796 123.895 454.796 124.204ZM458.433 122.439C458.433 123.552 458.268 124.589 457.938 125.549C457.612 126.51 457.14 127.346 456.522 128.057H455.818C457.104 126.347 457.748 124.47 457.748 122.426C457.748 121.339 457.58 120.308 457.246 119.335C456.912 118.357 456.431 117.486 455.805 116.72H456.522C457.145 117.46 457.618 118.321 457.944 119.303C458.27 120.281 458.433 121.326 458.433 122.439Z" fill="black"/>
<defs>
<clipPath id="clip0">
<rect x="220" y="29" width="49" height="49" fill="white"/>
</clipPath>
<clipPath id="clip1">
<rect x="367" y="28" width="51" height="51" fill="white"/>
</clipPath>
</defs>
</svg>
