<svg width="459" height="85" viewBox="0 0 459 85" fill="none" xmlns="http://www.w3.org/2000/svg">
<path d="M15.6731 54.8621C13.8545 54.8621 12.339 54.4833 11.1266 53.7255C9.95203 52.9299 9.0806 51.9448 8.51228 50.7702C7.94396 49.5957 7.6598 48.3833 7.6598 47.133C7.6598 45.428 8.11446 43.9125 9.02377 42.5864C9.93308 41.2604 11.1834 40.2184 12.7747 39.4607C14.366 38.7029 16.1467 38.324 18.1169 38.324C21.6405 38.324 24.4442 39.5364 26.528 41.9613C28.6119 44.3482 29.6538 47.5308 29.6538 51.5091C29.6538 54.9569 28.8392 58.3668 27.21 61.7388C25.6187 65.1108 23.2886 68.1229 20.2197 70.7751C17.1886 73.4273 13.6082 75.3785 9.47843 76.6288C9.36476 76.6667 9.2511 76.5909 9.13744 76.4015C9.06166 76.212 9.09955 76.0794 9.2511 76.0036C12.7368 74.5639 15.711 72.5558 18.1737 69.9795C20.6364 67.4031 22.493 64.5804 23.7433 61.5115C24.9936 58.4804 25.6187 55.5252 25.6187 52.6457C25.6187 50.6376 25.3156 48.6296 24.7094 46.6215C24.1411 44.5756 23.2318 42.8706 21.9815 41.5066C20.7312 40.1048 19.1399 39.4038 17.2076 39.4038C15.4647 39.4038 14.1008 39.9911 13.1157 41.1656C12.1685 42.3402 11.6949 43.9504 11.6949 45.9964C11.6949 48.0802 12.2064 49.8041 13.2293 51.1681C14.2523 52.4941 15.7299 53.1572 17.6622 53.1572C18.5715 53.1572 19.4051 53.0056 20.1628 52.7025C20.9206 52.3994 21.7541 51.869 22.6635 51.1112C22.7013 51.0733 22.7582 51.0544 22.8339 51.0544C22.9476 51.0544 23.0613 51.1112 23.1749 51.2249C23.2886 51.3386 23.3265 51.4333 23.2886 51.5091C21.3563 53.7444 18.8178 54.8621 15.6731 54.8621ZM45.842 61.7388C43.6066 61.7388 41.5796 61.2273 39.761 60.2044C37.9803 59.1814 36.5784 57.7795 35.5554 55.9988C34.5703 54.1802 34.0778 52.1342 34.0778 49.8609C34.0778 47.6255 34.5703 45.6364 35.5554 43.8936C36.5784 42.1507 37.9803 40.7868 39.761 39.8017C41.5796 38.8166 43.6256 38.324 45.8989 38.324C48.1343 38.324 50.1234 38.8355 51.8662 39.8585C53.6091 40.8436 54.973 42.2265 55.9581 44.0072C56.9432 45.788 57.4358 47.796 57.4358 50.0314C57.4358 52.2668 56.9432 54.2749 55.9581 56.0556C54.973 57.8364 53.5901 59.2382 51.8094 60.2612C50.0665 61.2463 48.0774 61.7388 45.842 61.7388ZM46.4672 60.8863C48.6268 60.8863 50.256 59.977 51.3547 58.1584C52.4914 56.3398 53.0597 53.8771 53.0597 50.7702C53.0597 46.9436 52.3209 44.0641 50.8432 42.1318C49.3656 40.1616 47.528 39.1765 45.3305 39.1765C43.133 39.1765 41.4281 40.1237 40.2157 42.0181C39.0032 43.8746 38.397 46.3184 38.397 49.3494C38.397 52.7594 39.1359 55.5441 40.6135 57.7037C42.0911 59.8255 44.0423 60.8863 46.4672 60.8863ZM67.8111 43.7799C65.7652 43.7799 64.0602 43.079 62.6963 41.6771C61.3702 40.2374 60.7071 38.4756 60.7071 36.3917C60.7071 34.3837 61.3891 32.6787 62.7531 31.2769C64.1171 29.875 65.8031 29.1741 67.8111 29.1741C69.8192 29.1741 71.4673 29.894 72.7555 31.3337C74.0816 32.7356 74.7447 34.4784 74.7447 36.5622C74.7447 38.6082 74.0816 40.3321 72.7555 41.734C71.4673 43.0979 69.8192 43.7799 67.8111 43.7799ZM65.3105 61.341C65.1211 61.341 64.8369 61.2273 64.4581 61C64.0792 60.8106 63.9087 60.659 63.9466 60.5453L85.0312 29.6287L85.1449 29.5719C85.3343 29.5719 85.5996 29.7045 85.9406 29.9697C86.3194 30.1971 86.4899 30.3676 86.452 30.4812L65.3674 61.341H65.3105ZM68.209 43.0979C69.4214 43.0979 70.217 42.5864 70.5959 41.5635C70.9748 40.5405 71.1642 39.006 71.1642 36.9601C71.1642 32.2241 69.9329 29.8561 67.4702 29.8561C66.2577 29.8561 65.4242 30.4244 64.9695 31.561C64.5149 32.6598 64.2876 34.2132 64.2876 36.2212C64.2876 38.343 64.5717 40.029 65.14 41.2793C65.7463 42.4917 66.7692 43.0979 68.209 43.0979ZM83.5536 61.2842C81.5077 61.2842 79.8027 60.5832 78.4387 59.1814C77.1127 57.7416 76.4496 55.9798 76.4496 53.896C76.4496 51.8879 77.1316 50.183 78.4956 48.7811C79.8595 47.3414 81.5455 46.6215 83.5536 46.6215C85.5617 46.6215 87.2098 47.3414 88.498 48.7811C89.8241 50.2209 90.4871 51.9637 90.4871 54.0097C90.4871 56.0556 89.8241 57.7795 88.498 59.1814C87.2098 60.5832 85.5617 61.2842 83.5536 61.2842ZM83.9514 60.5453C85.1639 60.5453 85.9595 60.0339 86.3384 59.0109C86.7173 57.9879 86.9067 56.4534 86.9067 54.4075C86.9067 49.7094 85.6753 47.3603 83.2126 47.3603C82.0002 47.3603 81.1667 47.9286 80.712 49.0653C80.2574 50.164 80.03 51.6985 80.03 53.6687C80.03 58.2531 81.3372 60.5453 83.9514 60.5453ZM117.309 59.4404C117.357 59.4404 117.397 59.4804 117.429 59.5604C117.477 59.6403 117.485 59.6883 117.453 59.7043L114.142 61.3119L114.022 61.3359C113.878 61.3359 113.742 61.184 113.614 60.88C113.502 60.5761 113.43 60.1602 113.398 59.6323C112.215 60.7521 111.007 61.3119 109.775 61.3119C109.071 61.3119 108.432 61.128 107.856 60.7601C107.296 60.3922 106.848 59.8563 106.512 59.1525C106.176 58.4326 106.008 57.5929 106.008 56.6331C106.008 55.4174 106.288 54.4256 106.848 53.6578C107.424 52.874 108.128 52.3062 108.959 51.9543C109.807 51.6023 110.655 51.4264 111.503 51.4264C112.095 51.4264 112.718 51.5224 113.374 51.7143V46.8675C113.374 46.3077 113.318 45.9078 113.206 45.6678C113.11 45.4279 112.934 45.3079 112.678 45.3079C112.471 45.3079 112.175 45.3959 111.791 45.5719H111.767C111.703 45.5719 111.647 45.5319 111.599 45.4519C111.567 45.3559 111.567 45.2999 111.599 45.2839L115.126 43.6283L115.222 43.6043C115.302 43.6043 115.39 43.6443 115.486 43.7243C115.582 43.7883 115.63 43.8523 115.63 43.9163V58.2167C115.63 58.7606 115.678 59.1445 115.774 59.3684C115.886 59.5924 116.062 59.7043 116.302 59.7043C116.51 59.7043 116.837 59.6163 117.285 59.4404H117.309ZM111.095 60.1602C111.895 60.1602 112.654 59.8243 113.374 59.1525V59.0325V53.2019C113.086 52.802 112.758 52.5141 112.391 52.3382C112.039 52.1462 111.623 52.0502 111.143 52.0502C110.279 52.0502 109.615 52.3542 109.151 52.962C108.703 53.5539 108.48 54.5216 108.48 55.8653C108.48 57.2089 108.719 58.2647 109.199 59.0325C109.679 59.7843 110.311 60.1602 111.095 60.1602ZM126.781 59.4164C126.813 59.4164 126.845 59.4484 126.877 59.5124C126.925 59.5764 126.933 59.6243 126.901 59.6563C126.309 60.2322 125.71 60.6481 125.102 60.904C124.494 61.16 123.83 61.2879 123.11 61.2879C122.103 61.2879 121.231 61.08 120.495 60.6641C119.759 60.2322 119.199 59.6643 118.815 58.9605C118.431 58.2407 118.239 57.4649 118.239 56.6331C118.239 55.7053 118.471 54.8495 118.935 54.0657C119.399 53.2819 120.039 52.6661 120.855 52.2182C121.687 51.7543 122.622 51.5224 123.662 51.5224C124.654 51.5224 125.422 51.7463 125.966 52.1942C126.509 52.6421 126.781 53.3379 126.781 54.2817C126.781 54.7776 126.693 55.0255 126.517 55.0255L120.687 55.0495C120.671 55.1615 120.663 55.3454 120.663 55.6013C120.663 57.009 120.983 58.1127 121.623 58.9125C122.278 59.7123 123.214 60.1122 124.43 60.1122C124.862 60.1122 125.23 60.0642 125.534 59.9683C125.838 59.8723 126.237 59.6963 126.733 59.4404L126.781 59.4164ZM122.75 52.0022C122.222 52.0022 121.783 52.2342 121.431 52.6981C121.079 53.146 120.847 53.7698 120.735 54.5696L124.214 54.5216C124.198 53.7058 124.078 53.082 123.854 52.6501C123.63 52.2182 123.262 52.0022 122.75 52.0022ZM133.964 61C133.932 61 133.916 60.952 133.916 60.856C133.916 60.7601 133.932 60.7121 133.964 60.7121C134.46 60.7121 134.796 60.6001 134.972 60.3762C135.163 60.1362 135.259 59.6963 135.259 59.0565L135.283 46.8675C135.283 46.3077 135.227 45.9078 135.115 45.6678C135.02 45.4279 134.844 45.3079 134.588 45.3079C134.38 45.3079 134.076 45.3959 133.676 45.5719H133.652C133.604 45.5719 133.556 45.5319 133.508 45.4519C133.476 45.3559 133.476 45.2999 133.508 45.2839L137.035 43.6283L137.131 43.6043C137.211 43.6043 137.299 43.6443 137.395 43.7243C137.491 43.7883 137.539 43.8523 137.539 43.9163V59.0565C137.539 59.6963 137.627 60.1362 137.803 60.3762C137.979 60.6001 138.315 60.7121 138.811 60.7121C138.875 60.7121 138.907 60.7601 138.907 60.856C138.907 60.952 138.875 61 138.811 61C138.411 61 138.091 60.992 137.851 60.976L136.387 60.952L134.948 60.976C134.708 60.992 134.38 61 133.964 61ZM149.598 59.7043C149.662 59.7043 149.702 59.7443 149.718 59.8243C149.75 59.8883 149.734 59.9363 149.67 59.9683L147.198 61.144C147.134 61.176 147.054 61.192 146.958 61.192C146.702 61.192 146.455 61.056 146.215 60.7841C145.991 60.5121 145.831 60.1442 145.735 59.6803L144.703 60.4002C144.335 60.6721 143.991 60.872 143.671 61C143.351 61.112 142.991 61.168 142.592 61.168C141.904 61.168 141.384 61.016 141.032 60.7121C140.68 60.4081 140.504 59.9843 140.504 59.4404C140.504 59.0085 140.608 58.6646 140.816 58.4086C141.024 58.1367 141.28 57.9288 141.584 57.7848C141.904 57.6248 142.344 57.4489 142.903 57.2569L143.503 57.041L145.663 56.2492V54.8815C145.663 53.8578 145.575 53.114 145.399 52.6501C145.239 52.1862 144.959 51.9543 144.559 51.9543C143.711 51.9543 143.231 52.6101 143.119 53.9218C143.071 54.4016 142.927 54.7456 142.687 54.9535C142.464 55.1615 142.144 55.2654 141.728 55.2654C141.328 55.2654 141.032 55.1855 140.84 55.0255C140.664 54.8495 140.576 54.6256 140.576 54.3537C140.576 53.8738 140.856 53.4179 141.416 52.986C141.976 52.5381 142.647 52.1782 143.431 51.9063C144.231 51.6343 144.935 51.4984 145.543 51.4984C146.247 51.4984 146.814 51.7223 147.246 52.1702C147.694 52.6021 147.918 53.2659 147.918 54.1617V58.4086C147.918 58.8725 147.998 59.2324 148.158 59.4884C148.334 59.7443 148.574 59.8723 148.878 59.8723C149.102 59.8723 149.334 59.8163 149.574 59.7043H149.598ZM145.687 59.2724C145.671 59.2084 145.663 59.1045 145.663 58.9605V56.6571L144.631 57.137C144.583 57.153 144.423 57.2169 144.151 57.3289C143.879 57.4249 143.639 57.5929 143.431 57.8328C143.239 58.0727 143.143 58.3527 143.143 58.6726C143.143 59.0565 143.263 59.3604 143.503 59.5844C143.759 59.7923 144.047 59.8963 144.367 59.8963C144.623 59.8963 144.887 59.8083 145.159 59.6323L145.687 59.2724ZM162.441 51.4984C162.809 51.4984 163.161 51.6343 163.497 51.9063C163.849 52.1622 164.025 52.4741 164.025 52.842C164.025 53.178 163.921 53.4579 163.713 53.6818C163.505 53.8898 163.233 53.9938 162.897 53.9938C162.657 53.9938 162.457 53.9458 162.297 53.8498C162.153 53.7538 162.001 53.6098 161.841 53.4179C161.697 53.2579 161.569 53.146 161.457 53.082C161.361 53.002 161.241 52.962 161.097 52.962C160.937 52.962 160.762 53.026 160.57 53.154C160.394 53.2659 160.114 53.5139 159.73 53.8978V59.0565C159.73 59.6963 159.882 60.1362 160.186 60.3762C160.49 60.6001 161.049 60.7121 161.865 60.7121C161.929 60.7121 161.961 60.7601 161.961 60.856C161.961 60.952 161.929 61 161.865 61C161.305 61 160.866 60.992 160.546 60.976L158.602 60.952L157.186 60.976C156.946 60.992 156.619 61 156.203 61C156.155 61 156.131 60.952 156.131 60.856C156.131 60.7601 156.155 60.7121 156.203 60.7121C156.699 60.7121 157.034 60.6001 157.21 60.3762C157.386 60.1362 157.474 59.6963 157.474 59.0565V54.5456C157.474 54.0497 157.41 53.6898 157.282 53.4659C157.17 53.2259 156.986 53.106 156.731 53.106C156.459 53.106 156.075 53.2179 155.579 53.4419H155.531C155.483 53.4419 155.443 53.4019 155.411 53.3219C155.395 53.2419 155.403 53.194 155.435 53.178L158.77 51.5464C158.866 51.5144 158.922 51.4984 158.938 51.4984C159.114 51.4984 159.274 51.6663 159.418 52.0022C159.578 52.3222 159.674 52.7621 159.706 53.3219C160.362 52.6501 160.897 52.1782 161.313 51.9063C161.745 51.6343 162.121 51.4984 162.441 51.4984ZM173.387 59.4164C173.419 59.4164 173.451 59.4484 173.483 59.5124C173.531 59.5764 173.539 59.6243 173.507 59.6563C172.915 60.2322 172.315 60.6481 171.707 60.904C171.099 61.16 170.436 61.2879 169.716 61.2879C168.708 61.2879 167.836 61.08 167.1 60.6641C166.365 60.2322 165.805 59.6643 165.421 58.9605C165.037 58.2407 164.845 57.4649 164.845 56.6331C164.845 55.7053 165.077 54.8495 165.541 54.0657C166.005 53.2819 166.645 52.6661 167.46 52.2182C168.292 51.7543 169.228 51.5224 170.268 51.5224C171.259 51.5224 172.027 51.7463 172.571 52.1942C173.115 52.6421 173.387 53.3379 173.387 54.2817C173.387 54.7776 173.299 55.0255 173.123 55.0255L167.292 55.0495C167.276 55.1615 167.268 55.3454 167.268 55.6013C167.268 57.009 167.588 58.1127 168.228 58.9125C168.884 59.7123 169.82 60.1122 171.035 60.1122C171.467 60.1122 171.835 60.0642 172.139 59.9683C172.443 59.8723 172.843 59.6963 173.339 59.4404L173.387 59.4164ZM169.356 52.0022C168.828 52.0022 168.388 52.2342 168.036 52.6981C167.684 53.146 167.452 53.7698 167.34 54.5696L170.82 54.5216C170.804 53.7058 170.684 53.082 170.46 52.6501C170.236 52.2182 169.868 52.0022 169.356 52.0022ZM179.58 61.2879C178.524 61.2879 177.628 61.064 176.893 60.6161C176.173 60.1522 175.629 59.5604 175.261 58.8405C174.909 58.1047 174.733 57.3369 174.733 56.5371C174.733 55.5294 175.013 54.6496 175.573 53.8978C176.133 53.13 176.845 52.5461 177.708 52.1462C178.588 51.7303 179.484 51.5224 180.396 51.5224C181.164 51.5224 181.851 51.6823 182.459 52.0022C183.083 52.3222 183.395 52.7621 183.395 53.3219C183.395 53.6258 183.275 53.8898 183.035 54.1137C182.811 54.3217 182.491 54.4256 182.075 54.4256C181.691 54.4256 181.387 54.3297 181.164 54.1377C180.94 53.9298 180.756 53.6178 180.612 53.2019C180.468 52.7541 180.324 52.4501 180.18 52.2902C180.052 52.1142 179.812 52.0262 179.46 52.0262C178.772 52.0262 178.22 52.3702 177.804 53.058C177.404 53.7298 177.205 54.6256 177.205 55.7453C177.205 57.073 177.5 58.1367 178.092 58.9365C178.684 59.7203 179.628 60.1122 180.924 60.1122C181.355 60.1122 181.723 60.0642 182.027 59.9683C182.347 59.8723 182.747 59.7123 183.227 59.4884H183.251C183.299 59.4884 183.339 59.5124 183.371 59.5604C183.419 59.6083 183.427 59.6483 183.395 59.6803C182.803 60.2242 182.211 60.6321 181.619 60.904C181.028 61.16 180.348 61.2879 179.58 61.2879ZM189.704 61.3119C188.712 61.3119 187.841 61.088 187.089 60.6401C186.353 60.1762 185.785 59.5604 185.385 58.7926C184.985 58.0087 184.785 57.161 184.785 56.2492C184.785 55.2094 185.049 54.3297 185.577 53.6098C186.105 52.874 186.777 52.3302 187.593 51.9783C188.408 51.6103 189.248 51.4264 190.112 51.4264C191.104 51.4264 191.968 51.6583 192.703 52.1222C193.439 52.5861 193.999 53.2019 194.383 53.9698C194.783 54.7216 194.983 55.5294 194.983 56.3932C194.983 57.3529 194.743 58.2087 194.263 58.9605C193.783 59.6963 193.135 60.2722 192.319 60.6881C191.52 61.104 190.648 61.3119 189.704 61.3119ZM190.424 60.808C191.048 60.808 191.52 60.5041 191.84 59.8963C192.175 59.2724 192.343 58.3847 192.343 57.2329C192.343 56.1132 192.199 55.1535 191.912 54.3537C191.624 53.5539 191.248 52.954 190.784 52.5541C190.32 52.1382 189.824 51.9303 189.296 51.9303C188.017 51.9303 187.377 53.074 187.377 55.3614C187.377 56.4331 187.513 57.3849 187.785 58.2167C188.057 59.0325 188.424 59.6723 188.888 60.1362C189.352 60.5841 189.864 60.808 190.424 60.808ZM201.755 60.0162C202.699 60.0322 203.467 60.0882 204.059 60.1842C204.667 60.2802 205.17 60.5201 205.57 60.904C205.986 61.2719 206.194 61.8398 206.194 62.6076C206.194 63.5034 205.914 64.3432 205.354 65.127C204.811 65.9268 204.067 66.5666 203.123 67.0465C202.195 67.5264 201.195 67.7663 200.124 67.7663C199.02 67.7663 198.116 67.5104 197.412 66.9985C196.709 66.5026 196.357 65.8468 196.357 65.031C196.357 63.9113 197.164 62.8235 198.78 61.7678C197.628 61.5439 197.052 60.968 197.052 60.0402C197.052 59.0485 197.612 58.1767 198.732 57.4249C198.124 57.137 197.644 56.7371 197.292 56.2252C196.956 55.6973 196.789 55.1455 196.789 54.5696C196.789 53.9298 196.996 53.3859 197.412 52.938C197.828 52.4901 198.356 52.1542 198.996 51.9303C199.652 51.6903 200.316 51.5704 200.987 51.5704C201.995 51.5704 202.859 51.8263 203.579 52.3382C204.411 51.7783 205.274 51.4984 206.17 51.4984C206.298 51.4984 206.362 51.7223 206.362 52.1702C206.362 52.4101 206.33 52.6661 206.266 52.938C206.202 53.194 206.138 53.2979 206.074 53.2499C205.418 52.978 204.827 52.842 204.299 52.842H204.107C204.539 53.3539 204.755 53.9298 204.755 54.5696C204.755 55.2094 204.547 55.7773 204.131 56.2732C203.715 56.7691 203.179 57.153 202.523 57.4249C201.883 57.6808 201.219 57.8088 200.532 57.8088C200.036 57.8088 199.58 57.7368 199.164 57.5929C198.908 57.8648 198.78 58.2087 198.78 58.6246C198.78 59.0565 198.892 59.3684 199.116 59.5604C199.356 59.7523 199.668 59.8723 200.052 59.9203C200.436 59.9683 201.003 60.0002 201.755 60.0162ZM200.196 52.0262C199.476 52.0262 199.116 52.6341 199.116 53.8498C199.116 54.5216 199.212 55.1295 199.404 55.6733C199.596 56.2012 199.844 56.6171 200.148 56.921C200.468 57.2249 200.804 57.3769 201.155 57.3769C201.507 57.3769 201.803 57.2009 202.043 56.849C202.283 56.4971 202.403 55.9613 202.403 55.2414C202.403 54.5536 202.291 53.9698 202.067 53.4899C201.843 52.994 201.555 52.6261 201.203 52.3862C200.867 52.1462 200.532 52.0262 200.196 52.0262ZM201.563 66.9985C202.379 66.9985 203.027 66.7426 203.507 66.2307C203.987 65.7188 204.227 65.023 204.227 64.1432C204.227 63.4554 204.075 62.9515 203.771 62.6316C203.483 62.3277 203.099 62.1357 202.619 62.0557C202.155 61.9918 201.475 61.9518 200.58 61.9358C200.436 61.9358 200.236 61.9278 199.98 61.9118C199.724 61.8958 199.508 61.8798 199.332 61.8638C198.788 62.2637 198.516 62.9035 198.516 63.7833C198.516 64.807 198.812 65.5989 199.404 66.1587C200.012 66.7186 200.732 66.9985 201.563 66.9985ZM209.821 49.123C209.358 49.123 208.998 48.995 208.742 48.7391C208.486 48.4831 208.358 48.1232 208.358 47.6593C208.358 47.2434 208.486 46.9155 208.742 46.6756C209.014 46.4196 209.374 46.2917 209.821 46.2917C210.269 46.2917 210.613 46.4116 210.853 46.6516C211.093 46.8915 211.213 47.2274 211.213 47.6593C211.213 48.1232 211.093 48.4831 210.853 48.7391C210.613 48.995 210.269 49.123 209.821 49.123ZM207.518 61C207.47 61 207.446 60.952 207.446 60.856C207.446 60.7601 207.47 60.7121 207.518 60.7121C208.014 60.7121 208.35 60.6001 208.526 60.3762C208.702 60.1362 208.79 59.6963 208.79 59.0565V54.7616C208.79 54.2177 208.734 53.8258 208.622 53.5859C208.51 53.3459 208.326 53.2259 208.07 53.2259C207.862 53.2259 207.566 53.3139 207.182 53.4899H207.158C207.094 53.4899 207.046 53.4499 207.014 53.3699C206.982 53.2739 206.99 53.2179 207.038 53.2019L210.661 51.5224L210.733 51.4984C210.813 51.4984 210.893 51.5384 210.973 51.6183C211.053 51.6983 211.093 51.7703 211.093 51.8343V52.3622C211.061 53.002 211.045 53.7858 211.045 54.7136V59.0565C211.045 59.6963 211.133 60.1362 211.309 60.3762C211.501 60.6001 211.845 60.7121 212.341 60.7121C212.389 60.7121 212.413 60.7601 212.413 60.856C212.413 60.952 212.389 61 212.341 61C211.925 61 211.597 60.992 211.357 60.976L209.917 60.952L208.502 60.976C208.262 60.992 207.934 61 207.518 61ZM224.954 59.4404C225.002 59.4404 225.042 59.4804 225.074 59.5604C225.122 59.6403 225.13 59.6883 225.098 59.7043L221.787 61.3119L221.667 61.3359C221.523 61.3359 221.387 61.184 221.259 60.88C221.147 60.5761 221.075 60.1602 221.043 59.6323C219.86 60.7521 218.652 61.3119 217.42 61.3119C216.716 61.3119 216.077 61.128 215.501 60.7601C214.941 60.3922 214.493 59.8563 214.157 59.1525C213.821 58.4326 213.653 57.5929 213.653 56.6331C213.653 55.4174 213.933 54.4256 214.493 53.6578C215.069 52.874 215.773 52.3062 216.604 51.9543C217.452 51.6023 218.3 51.4264 219.148 51.4264C219.74 51.4264 220.363 51.5224 221.019 51.7143V46.8675C221.019 46.3077 220.963 45.9078 220.851 45.6678C220.755 45.4279 220.579 45.3079 220.323 45.3079C220.115 45.3079 219.82 45.3959 219.436 45.5719H219.412C219.348 45.5719 219.292 45.5319 219.244 45.4519C219.212 45.3559 219.212 45.2999 219.244 45.2839L222.771 43.6283L222.867 43.6043C222.947 43.6043 223.035 43.6443 223.131 43.7243C223.227 43.7883 223.275 43.8523 223.275 43.9163V58.2167C223.275 58.7606 223.323 59.1445 223.419 59.3684C223.531 59.5924 223.707 59.7043 223.947 59.7043C224.154 59.7043 224.482 59.6163 224.93 59.4404H224.954ZM218.74 60.1602C219.54 60.1602 220.299 59.8243 221.019 59.1525V59.0325V53.2019C220.731 52.802 220.403 52.5141 220.036 52.3382C219.684 52.1462 219.268 52.0502 218.788 52.0502C217.924 52.0502 217.26 52.3542 216.796 52.962C216.348 53.5539 216.124 54.5216 216.124 55.8653C216.124 57.2089 216.364 58.2647 216.844 59.0325C217.324 59.7843 217.956 60.1602 218.74 60.1602ZM235.17 59.7043C235.234 59.7043 235.274 59.7443 235.29 59.8243C235.322 59.8883 235.306 59.9363 235.242 59.9683L232.771 61.144C232.707 61.176 232.627 61.192 232.531 61.192C232.275 61.192 232.027 61.056 231.787 60.7841C231.563 60.5121 231.403 60.1442 231.307 59.6803L230.275 60.4002C229.907 60.6721 229.564 60.872 229.244 61C228.924 61.112 228.564 61.168 228.164 61.168C227.476 61.168 226.956 61.016 226.604 60.7121C226.252 60.4081 226.076 59.9843 226.076 59.4404C226.076 59.0085 226.18 58.6646 226.388 58.4086C226.596 58.1367 226.852 57.9288 227.156 57.7848C227.476 57.6248 227.916 57.4489 228.476 57.2569L229.076 57.041L231.235 56.2492V54.8815C231.235 53.8578 231.147 53.114 230.971 52.6501C230.811 52.1862 230.531 51.9543 230.131 51.9543C229.284 51.9543 228.804 52.6101 228.692 53.9218C228.644 54.4016 228.5 54.7456 228.26 54.9535C228.036 55.1615 227.716 55.2654 227.3 55.2654C226.9 55.2654 226.604 55.1855 226.412 55.0255C226.236 54.8495 226.148 54.6256 226.148 54.3537C226.148 53.8738 226.428 53.4179 226.988 52.986C227.548 52.5381 228.22 52.1782 229.004 51.9063C229.803 51.6343 230.507 51.4984 231.115 51.4984C231.819 51.4984 232.387 51.7223 232.819 52.1702C233.267 52.6021 233.491 53.2659 233.491 54.1617V58.4086C233.491 58.8725 233.571 59.2324 233.73 59.4884C233.906 59.7443 234.146 59.8723 234.45 59.8723C234.674 59.8723 234.906 59.8163 235.146 59.7043H235.17ZM231.259 59.2724C231.243 59.2084 231.235 59.1045 231.235 58.9605V56.6571L230.203 57.137C230.155 57.153 229.995 57.2169 229.723 57.3289C229.452 57.4249 229.212 57.5929 229.004 57.8328C228.812 58.0727 228.716 58.3527 228.716 58.6726C228.716 59.0565 228.836 59.3604 229.076 59.5844C229.332 59.7923 229.619 59.8963 229.939 59.8963C230.195 59.8963 230.459 59.8083 230.731 59.6323L231.259 59.2724Z" fill="black"/>
<line x1="262" y1="4" x2="262" y2="85" stroke="black" stroke-width="2"/>
<path d="M299.069 27.4404C299.117 27.4404 299.157 27.4804 299.189 27.5604C299.237 27.6403 299.245 27.6883 299.213 27.7043L295.902 29.3119L295.782 29.3359C295.638 29.3359 295.502 29.184 295.374 28.88C295.262 28.5761 295.19 28.1602 295.158 27.6323C293.974 28.7521 292.767 29.3119 291.535 29.3119C290.831 29.3119 290.191 29.128 289.615 28.7601C289.055 28.3922 288.608 27.8563 288.272 27.1525C287.936 26.4326 287.768 25.5929 287.768 24.6331C287.768 23.4174 288.048 22.4256 288.608 21.6578C289.183 20.874 289.887 20.3062 290.719 19.9543C291.567 19.6023 292.415 19.4264 293.262 19.4264C293.854 19.4264 294.478 19.5224 295.134 19.7143V14.8675C295.134 14.3077 295.078 13.9078 294.966 13.6678C294.87 13.4279 294.694 13.3079 294.438 13.3079C294.23 13.3079 293.934 13.3959 293.55 13.5719H293.526C293.462 13.5719 293.406 13.5319 293.358 13.4519C293.326 13.3559 293.326 13.2999 293.358 13.2839L296.886 11.6283L296.982 11.6043C297.061 11.6043 297.149 11.6443 297.245 11.7243C297.341 11.7883 297.389 11.8523 297.389 11.9163V26.2167C297.389 26.7606 297.437 27.1445 297.533 27.3684C297.645 27.5924 297.821 27.7043 298.061 27.7043C298.269 27.7043 298.597 27.6163 299.045 27.4404H299.069ZM292.855 28.1602C293.654 28.1602 294.414 27.8243 295.134 27.1525V27.0325V21.2019C294.846 20.802 294.518 20.5141 294.15 20.3382C293.798 20.1462 293.382 20.0502 292.903 20.0502C292.039 20.0502 291.375 20.3542 290.911 20.962C290.463 21.5539 290.239 22.5216 290.239 23.8653C290.239 25.2089 290.479 26.2647 290.959 27.0325C291.439 27.7843 292.071 28.1602 292.855 28.1602ZM308.541 27.4164C308.573 27.4164 308.605 27.4484 308.637 27.5124C308.685 27.5764 308.693 27.6243 308.661 27.6563C308.069 28.2322 307.469 28.6481 306.861 28.904C306.254 29.16 305.59 29.2879 304.87 29.2879C303.862 29.2879 302.99 29.08 302.255 28.6641C301.519 28.2322 300.959 27.6643 300.575 26.9605C300.191 26.2407 299.999 25.4649 299.999 24.6331C299.999 23.7053 300.231 22.8495 300.695 22.0657C301.159 21.2819 301.799 20.6661 302.614 20.2182C303.446 19.7543 304.382 19.5224 305.422 19.5224C306.414 19.5224 307.181 19.7463 307.725 20.1942C308.269 20.6421 308.541 21.3379 308.541 22.2817C308.541 22.7776 308.453 23.0255 308.277 23.0255L302.447 23.0495C302.431 23.1615 302.423 23.3454 302.423 23.6013C302.423 25.009 302.742 26.1127 303.382 26.9125C304.038 27.7123 304.974 28.1122 306.19 28.1122C306.621 28.1122 306.989 28.0642 307.293 27.9683C307.597 27.8723 307.997 27.6963 308.493 27.4404L308.541 27.4164ZM304.51 20.0022C303.982 20.0022 303.542 20.2342 303.19 20.6981C302.838 21.146 302.606 21.7698 302.495 22.5696L305.974 22.5216C305.958 21.7058 305.838 21.082 305.614 20.6501C305.39 20.2182 305.022 20.0022 304.51 20.0022ZM327.472 28.7121C327.535 28.7121 327.567 28.7601 327.567 28.856C327.567 28.952 327.535 29 327.472 29C327.056 29 326.728 28.992 326.488 28.976L325.048 28.952L323.656 28.976C323.401 28.992 323.065 29 322.649 29C322.601 29 322.577 28.952 322.577 28.856C322.577 28.7601 322.601 28.7121 322.649 28.7121C323.145 28.7121 323.481 28.6001 323.656 28.3762C323.848 28.1362 323.944 27.6963 323.944 27.0565V23.6013C323.944 22.7376 323.792 22.0977 323.489 21.6818C323.201 21.2659 322.753 21.058 322.145 21.058C321.729 21.058 321.321 21.146 320.921 21.3219C320.521 21.4979 320.177 21.7378 319.889 22.0417V22.1857V27.0565C319.889 27.6963 319.977 28.1362 320.153 28.3762C320.345 28.6001 320.689 28.7121 321.185 28.7121C321.249 28.7121 321.281 28.7601 321.281 28.856C321.281 28.952 321.249 29 321.185 29C320.769 29 320.441 28.992 320.201 28.976L318.762 28.952L317.37 28.976C317.114 28.992 316.778 29 316.362 29C316.314 29 316.29 28.952 316.29 28.856C316.29 28.7601 316.314 28.7121 316.362 28.7121C316.858 28.7121 317.194 28.6001 317.37 28.3762C317.562 28.1362 317.658 27.6963 317.658 27.0565V23.6013C317.658 22.7376 317.506 22.0977 317.202 21.6818C316.914 21.2659 316.466 21.058 315.858 21.058C315.475 21.058 315.091 21.138 314.707 21.2979C314.339 21.4419 314.011 21.6498 313.723 21.9218V27.0565C313.723 27.6963 313.811 28.1362 313.987 28.3762C314.179 28.6001 314.523 28.7121 315.019 28.7121C315.067 28.7121 315.091 28.7601 315.091 28.856C315.091 28.952 315.067 29 315.019 29C314.603 29 314.275 28.992 314.035 28.976L312.595 28.952L311.18 28.976C310.94 28.992 310.612 29 310.196 29C310.148 29 310.124 28.952 310.124 28.856C310.124 28.7601 310.148 28.7121 310.196 28.7121C310.692 28.7121 311.028 28.6001 311.204 28.3762C311.38 28.1362 311.468 27.6963 311.468 27.0565V22.5456C311.468 22.0497 311.404 21.6898 311.276 21.4659C311.164 21.2259 310.98 21.106 310.724 21.106C310.452 21.106 310.068 21.2179 309.572 21.4419H309.524C309.476 21.4419 309.436 21.4019 309.404 21.3219C309.388 21.2419 309.396 21.194 309.428 21.178L312.763 19.5464C312.859 19.5144 312.915 19.4984 312.931 19.4984C313.107 19.4984 313.275 19.6743 313.435 20.0262C313.595 20.3622 313.691 20.818 313.723 21.3939C314.811 20.0982 315.978 19.4504 317.226 19.4504C317.978 19.4504 318.578 19.6343 319.026 20.0022C319.474 20.3702 319.745 20.898 319.841 21.5859C320.945 20.1622 322.169 19.4504 323.512 19.4504C324.376 19.4504 325.032 19.6983 325.48 20.1942C325.944 20.6901 326.176 21.4419 326.176 22.4496V27.0565C326.176 27.6963 326.264 28.1362 326.44 28.3762C326.632 28.6001 326.976 28.7121 327.472 28.7121ZM337.965 27.7043C338.029 27.7043 338.069 27.7443 338.085 27.8243C338.117 27.8883 338.101 27.9363 338.037 27.9683L335.566 29.144C335.502 29.176 335.422 29.192 335.326 29.192C335.07 29.192 334.822 29.056 334.582 28.7841C334.358 28.5121 334.198 28.1442 334.102 27.6803L333.07 28.4002C332.702 28.6721 332.359 28.872 332.039 29C331.719 29.112 331.359 29.168 330.959 29.168C330.271 29.168 329.751 29.016 329.399 28.7121C329.047 28.4081 328.871 27.9843 328.871 27.4404C328.871 27.0085 328.975 26.6646 329.183 26.4086C329.391 26.1367 329.647 25.9288 329.951 25.7848C330.271 25.6248 330.711 25.4489 331.271 25.2569L331.871 25.041L334.03 24.2492V22.8815C334.03 21.8578 333.942 21.114 333.766 20.6501C333.606 20.1862 333.326 19.9543 332.926 19.9543C332.079 19.9543 331.599 20.6101 331.487 21.9218C331.439 22.4016 331.295 22.7456 331.055 22.9535C330.831 23.1615 330.511 23.2654 330.095 23.2654C329.695 23.2654 329.399 23.1855 329.207 23.0255C329.031 22.8495 328.943 22.6256 328.943 22.3537C328.943 21.8738 329.223 21.4179 329.783 20.986C330.343 20.5381 331.015 20.1782 331.799 19.9063C332.598 19.6343 333.302 19.4984 333.91 19.4984C334.614 19.4984 335.182 19.7223 335.614 20.1702C336.062 20.6021 336.286 21.2659 336.286 22.1617V26.4086C336.286 26.8725 336.366 27.2324 336.525 27.4884C336.701 27.7443 336.941 27.8723 337.245 27.8723C337.469 27.8723 337.701 27.8163 337.941 27.7043H337.965ZM334.054 27.2724C334.038 27.2084 334.03 27.1045 334.03 26.9605V24.6571L332.998 25.137C332.95 25.153 332.79 25.2169 332.518 25.3289C332.247 25.4249 332.007 25.5929 331.799 25.8328C331.607 26.0727 331.511 26.3527 331.511 26.6726C331.511 27.0565 331.631 27.3604 331.871 27.5844C332.127 27.7923 332.415 27.8963 332.734 27.8963C332.99 27.8963 333.254 27.8083 333.526 27.6323L334.054 27.2724ZM340.842 20.89C340.842 21.3539 341.002 21.7538 341.322 22.0897C341.658 22.4256 342.138 22.7776 342.761 23.1455C343.369 23.4974 343.817 23.7773 344.105 23.9853C344.409 24.1772 344.681 24.4571 344.921 24.825C345.161 25.177 345.281 25.6088 345.281 26.1207C345.281 26.6646 345.145 27.1765 344.873 27.6563C344.601 28.1362 344.193 28.5281 343.649 28.832C343.105 29.12 342.458 29.2639 341.706 29.2639C340.826 29.2639 339.994 29.048 339.21 28.6161C339.114 28.5201 339.066 28.4241 339.066 28.3282L339.018 25.9528C339.018 25.9048 339.058 25.8808 339.138 25.8808C339.234 25.8648 339.29 25.8728 339.306 25.9048C339.562 26.7046 339.986 27.3844 340.578 27.9443C341.17 28.5041 341.77 28.7841 342.378 28.7841C342.714 28.7841 342.977 28.6801 343.169 28.4721C343.377 28.2642 343.481 27.9603 343.481 27.5604C343.481 26.9685 343.313 26.5046 342.977 26.1687C342.642 25.8168 342.146 25.4569 341.49 25.089C340.93 24.7851 340.506 24.5371 340.218 24.3452C339.93 24.1532 339.674 23.8813 339.45 23.5294C339.226 23.1775 339.114 22.7456 339.114 22.2337C339.114 21.2899 339.45 20.6021 340.122 20.1702C340.794 19.7223 341.618 19.4984 342.594 19.4984C342.961 19.4984 343.289 19.5224 343.577 19.5704C343.881 19.6183 344.217 19.7143 344.585 19.8583C344.729 19.9063 344.801 19.9943 344.801 20.1222C344.801 20.5221 344.793 20.834 344.777 21.058L344.753 22.2577C344.753 22.3057 344.705 22.3297 344.609 22.3297C344.513 22.3297 344.465 22.3057 344.465 22.2577C344.465 21.9538 344.337 21.6258 344.081 21.2739C343.825 20.906 343.489 20.5941 343.073 20.3382C342.674 20.0822 342.258 19.9543 341.826 19.9543C341.17 19.9543 340.842 20.2662 340.842 20.89ZM349.334 17.123C348.87 17.123 348.51 16.995 348.254 16.7391C347.998 16.4831 347.87 16.1232 347.87 15.6593C347.87 15.2434 347.998 14.9155 348.254 14.6756C348.526 14.4196 348.886 14.2917 349.334 14.2917C349.782 14.2917 350.126 14.4116 350.366 14.6516C350.605 14.8915 350.725 15.2274 350.725 15.6593C350.725 16.1232 350.605 16.4831 350.366 16.7391C350.126 16.995 349.782 17.123 349.334 17.123ZM347.03 29C346.982 29 346.958 28.952 346.958 28.856C346.958 28.7601 346.982 28.7121 347.03 28.7121C347.526 28.7121 347.862 28.6001 348.038 28.3762C348.214 28.1362 348.302 27.6963 348.302 27.0565V22.7616C348.302 22.2177 348.246 21.8258 348.134 21.5859C348.022 21.3459 347.838 21.2259 347.582 21.2259C347.374 21.2259 347.078 21.3139 346.694 21.4899H346.67C346.606 21.4899 346.558 21.4499 346.526 21.3699C346.494 21.2739 346.502 21.2179 346.55 21.2019L350.174 19.5224L350.246 19.4984C350.326 19.4984 350.406 19.5384 350.485 19.6183C350.565 19.6983 350.605 19.7703 350.605 19.8343V20.3622C350.573 21.002 350.557 21.7858 350.557 22.7136V27.0565C350.557 27.6963 350.645 28.1362 350.821 28.3762C351.013 28.6001 351.357 28.7121 351.853 28.7121C351.901 28.7121 351.925 28.7601 351.925 28.856C351.925 28.952 351.901 29 351.853 29C351.437 29 351.109 28.992 350.869 28.976L349.43 28.952L348.014 28.976C347.774 28.992 347.446 29 347.03 29ZM362.451 27.7043C362.515 27.7043 362.555 27.7443 362.571 27.8243C362.603 27.8883 362.587 27.9363 362.523 27.9683L360.052 29.144C359.988 29.176 359.908 29.192 359.812 29.192C359.556 29.192 359.308 29.056 359.068 28.7841C358.844 28.5121 358.684 28.1442 358.588 27.6803L357.556 28.4002C357.189 28.6721 356.845 28.872 356.525 29C356.205 29.112 355.845 29.168 355.445 29.168C354.757 29.168 354.237 29.016 353.885 28.7121C353.533 28.4081 353.357 27.9843 353.357 27.4404C353.357 27.0085 353.461 26.6646 353.669 26.4086C353.877 26.1367 354.133 25.9288 354.437 25.7848C354.757 25.6248 355.197 25.4489 355.757 25.2569L356.357 25.041L358.516 24.2492V22.8815C358.516 21.8578 358.428 21.114 358.252 20.6501C358.092 20.1862 357.812 19.9543 357.412 19.9543C356.565 19.9543 356.085 20.6101 355.973 21.9218C355.925 22.4016 355.781 22.7456 355.541 22.9535C355.317 23.1615 354.997 23.2654 354.581 23.2654C354.181 23.2654 353.885 23.1855 353.693 23.0255C353.517 22.8495 353.429 22.6256 353.429 22.3537C353.429 21.8738 353.709 21.4179 354.269 20.986C354.829 20.5381 355.501 20.1782 356.285 19.9063C357.085 19.6343 357.788 19.4984 358.396 19.4984C359.1 19.4984 359.668 19.7223 360.1 20.1702C360.548 20.6021 360.772 21.2659 360.772 22.1617V26.4086C360.772 26.8725 360.852 27.2324 361.012 27.4884C361.188 27.7443 361.427 27.8723 361.731 27.8723C361.955 27.8723 362.187 27.8163 362.427 27.7043H362.451ZM358.54 27.2724C358.524 27.2084 358.516 27.1045 358.516 26.9605V24.6571L357.484 25.137C357.436 25.153 357.276 25.2169 357.005 25.3289C356.733 25.4249 356.493 25.5929 356.285 25.8328C356.093 26.0727 355.997 26.3527 355.997 26.6726C355.997 27.0565 356.117 27.3604 356.357 27.5844C356.613 27.7923 356.901 27.8963 357.22 27.8963C357.476 27.8963 357.74 27.8083 358.012 27.6323L358.54 27.2724ZM374.566 27.4404C374.614 27.4404 374.654 27.4804 374.686 27.5604C374.734 27.6403 374.742 27.6883 374.71 27.7043L371.399 29.3119L371.279 29.3359C371.135 29.3359 370.999 29.184 370.871 28.88C370.759 28.5761 370.687 28.1602 370.655 27.6323C369.471 28.7521 368.263 29.3119 367.032 29.3119C366.328 29.3119 365.688 29.128 365.112 28.7601C364.552 28.3922 364.104 27.8563 363.768 27.1525C363.433 26.4326 363.265 25.5929 363.265 24.6331C363.265 23.4174 363.544 22.4256 364.104 21.6578C364.68 20.874 365.384 20.3062 366.216 19.9543C367.064 19.6023 367.911 19.4264 368.759 19.4264C369.351 19.4264 369.975 19.5224 370.631 19.7143V14.8675C370.631 14.3077 370.575 13.9078 370.463 13.6678C370.367 13.4279 370.191 13.3079 369.935 13.3079C369.727 13.3079 369.431 13.3959 369.047 13.5719H369.023C368.959 13.5719 368.903 13.5319 368.855 13.4519C368.823 13.3559 368.823 13.2999 368.855 13.2839L372.382 11.6283L372.478 11.6043C372.558 11.6043 372.646 11.6443 372.742 11.7243C372.838 11.7883 372.886 11.8523 372.886 11.9163V26.2167C372.886 26.7606 372.934 27.1445 373.03 27.3684C373.142 27.5924 373.318 27.7043 373.558 27.7043C373.766 27.7043 374.094 27.6163 374.542 27.4404H374.566ZM368.351 28.1602C369.151 28.1602 369.911 27.8243 370.631 27.1525V27.0325V21.2019C370.343 20.802 370.015 20.5141 369.647 20.3382C369.295 20.1462 368.879 20.0502 368.399 20.0502C367.535 20.0502 366.872 20.3542 366.408 20.962C365.96 21.5539 365.736 22.5216 365.736 23.8653C365.736 25.2089 365.976 26.2647 366.456 27.0325C366.936 27.7843 367.567 28.1602 368.351 28.1602ZM380.415 29.3119C379.423 29.3119 378.551 29.088 377.799 28.6401C377.063 28.1762 376.496 27.5604 376.096 26.7926C375.696 26.0087 375.496 25.161 375.496 24.2492C375.496 23.2094 375.76 22.3297 376.288 21.6098C376.816 20.874 377.487 20.3302 378.303 19.9783C379.119 19.6103 379.959 19.4264 380.823 19.4264C381.814 19.4264 382.678 19.6583 383.414 20.1222C384.15 20.5861 384.71 21.2019 385.093 21.9698C385.493 22.7216 385.693 23.5294 385.693 24.3932C385.693 25.3529 385.453 26.2087 384.973 26.9605C384.494 27.6963 383.846 28.2722 383.03 28.6881C382.23 29.104 381.358 29.3119 380.415 29.3119ZM381.134 28.808C381.758 28.808 382.23 28.5041 382.55 27.8963C382.886 27.2724 383.054 26.3847 383.054 25.2329C383.054 24.1132 382.91 23.1535 382.622 22.3537C382.334 21.5539 381.958 20.954 381.494 20.5541C381.03 20.1382 380.535 19.9303 380.007 19.9303C378.727 19.9303 378.087 21.074 378.087 23.3614C378.087 24.4331 378.223 25.3849 378.495 26.2167C378.767 27.0325 379.135 27.6723 379.599 28.1362C380.063 28.5841 380.575 28.808 381.134 28.808ZM398.353 29.3119C397.57 29.3119 396.882 29.2239 396.29 29.048V33.6548C396.29 34.1347 396.338 34.4866 396.434 34.7106C396.546 34.9345 396.746 35.0865 397.034 35.1665C397.338 35.2624 397.801 35.3104 398.425 35.3104C398.473 35.3104 398.497 35.3584 398.497 35.4544C398.497 35.5504 398.473 35.5984 398.425 35.5984C397.833 35.5984 397.37 35.5904 397.034 35.5744L395.138 35.5504L393.722 35.5744C393.483 35.5904 393.147 35.5984 392.715 35.5984C392.667 35.5984 392.643 35.5504 392.643 35.4544C392.643 35.3584 392.667 35.3104 392.715 35.3104C393.099 35.3104 393.379 35.2624 393.555 35.1665C393.746 35.0865 393.874 34.9345 393.938 34.7106C394.018 34.4866 394.058 34.1347 394.058 33.6548V22.5456C394.058 22.0337 394.002 21.6658 393.89 21.4419C393.778 21.2179 393.579 21.106 393.291 21.106C393.035 21.106 392.667 21.2179 392.187 21.4419H392.139C392.091 21.4419 392.051 21.4019 392.019 21.3219C391.971 21.2419 391.963 21.194 391.995 21.178L395.402 19.5224C395.434 19.5064 395.474 19.4984 395.522 19.4984C395.682 19.4984 395.826 19.6343 395.954 19.9063C396.098 20.1782 396.194 20.5461 396.242 21.01C397.41 19.9543 398.609 19.4264 399.841 19.4264C400.513 19.4264 401.137 19.6023 401.712 19.9543C402.304 20.3062 402.776 20.818 403.128 21.4899C403.48 22.1617 403.656 22.9455 403.656 23.8413C403.656 25.121 403.392 26.1767 402.864 27.0085C402.336 27.8243 401.665 28.4161 400.849 28.7841C400.049 29.136 399.217 29.3119 398.353 29.3119ZM398.257 20.7701C397.538 20.7701 396.882 21.026 396.29 21.5379V21.7298V27.5124C396.642 27.9123 397.01 28.2162 397.394 28.4241C397.777 28.6161 398.249 28.7121 398.809 28.7121C400.425 28.7121 401.233 27.3364 401.233 24.5851C401.233 23.3694 400.945 22.4336 400.369 21.7778C399.809 21.106 399.105 20.7701 398.257 20.7701ZM411.567 19.4984C411.935 19.4984 412.287 19.6343 412.622 19.9063C412.974 20.1622 413.15 20.4741 413.15 20.842C413.15 21.178 413.046 21.4579 412.838 21.6818C412.63 21.8898 412.359 21.9938 412.023 21.9938C411.783 21.9938 411.583 21.9458 411.423 21.8498C411.279 21.7538 411.127 21.6098 410.967 21.4179C410.823 21.2579 410.695 21.146 410.583 21.082C410.487 21.002 410.367 20.962 410.223 20.962C410.063 20.962 409.887 21.026 409.695 21.154C409.519 21.2659 409.239 21.5139 408.855 21.8978V27.0565C408.855 27.6963 409.007 28.1362 409.311 28.3762C409.615 28.6001 410.175 28.7121 410.991 28.7121C411.055 28.7121 411.087 28.7601 411.087 28.856C411.087 28.952 411.055 29 410.991 29C410.431 29 409.991 28.992 409.671 28.976L407.728 28.952L406.312 28.976C406.072 28.992 405.744 29 405.328 29C405.28 29 405.256 28.952 405.256 28.856C405.256 28.7601 405.28 28.7121 405.328 28.7121C405.824 28.7121 406.16 28.6001 406.336 28.3762C406.512 28.1362 406.6 27.6963 406.6 27.0565V22.5456C406.6 22.0497 406.536 21.6898 406.408 21.4659C406.296 21.2259 406.112 21.106 405.856 21.106C405.584 21.106 405.2 21.2179 404.704 21.4419H404.656C404.608 21.4419 404.568 21.4019 404.536 21.3219C404.52 21.2419 404.528 21.194 404.56 21.178L407.896 19.5464C407.992 19.5144 408.048 19.4984 408.064 19.4984C408.24 19.4984 408.4 19.6663 408.543 20.0022C408.703 20.3222 408.799 20.7621 408.831 21.3219C409.487 20.6501 410.023 20.1782 410.439 19.9063C410.871 19.6343 411.247 19.4984 411.567 19.4984ZM418.889 29.3119C417.898 29.3119 417.026 29.088 416.274 28.6401C415.538 28.1762 414.97 27.5604 414.57 26.7926C414.171 26.0087 413.971 25.161 413.971 24.2492C413.971 23.2094 414.235 22.3297 414.762 21.6098C415.29 20.874 415.962 20.3302 416.778 19.9783C417.594 19.6103 418.434 19.4264 419.297 19.4264C420.289 19.4264 421.153 19.6583 421.889 20.1222C422.624 20.5861 423.184 21.2019 423.568 21.9698C423.968 22.7216 424.168 23.5294 424.168 24.3932C424.168 25.3529 423.928 26.2087 423.448 26.9605C422.968 27.6963 422.321 28.2722 421.505 28.6881C420.705 29.104 419.833 29.3119 418.889 29.3119ZM419.609 28.808C420.233 28.808 420.705 28.5041 421.025 27.8963C421.361 27.2724 421.529 26.3847 421.529 25.2329C421.529 24.1132 421.385 23.1535 421.097 22.3537C420.809 21.5539 420.433 20.954 419.969 20.5541C419.505 20.1382 419.009 19.9303 418.481 19.9303C417.202 19.9303 416.562 21.074 416.562 23.3614C416.562 24.4331 416.698 25.3849 416.97 26.2167C417.242 27.0325 417.61 27.6723 418.074 28.1362C418.537 28.5841 419.049 28.808 419.609 28.808ZM437.155 28.7121C437.203 28.7121 437.227 28.7601 437.227 28.856C437.227 28.952 437.203 29 437.155 29C436.739 29 436.411 28.992 436.171 28.976L434.732 28.952L433.34 28.976C433.084 28.992 432.748 29 432.332 29C432.284 29 432.26 28.952 432.26 28.856C432.26 28.7601 432.284 28.7121 432.332 28.7121C432.828 28.7121 433.164 28.6001 433.34 28.3762C433.516 28.1362 433.604 27.6963 433.604 27.0565V23.6013C433.604 22.7376 433.444 22.0977 433.124 21.6818C432.82 21.2659 432.332 21.058 431.66 21.058C431.276 21.058 430.877 21.138 430.461 21.2979C430.061 21.4579 429.709 21.6738 429.405 21.9458V27.0565C429.405 27.6963 429.493 28.1362 429.669 28.3762C429.861 28.6001 430.205 28.7121 430.701 28.7121C430.749 28.7121 430.773 28.7601 430.773 28.856C430.773 28.952 430.749 29 430.701 29C430.285 29 429.957 28.992 429.717 28.976L428.277 28.952L426.862 28.976C426.622 28.992 426.294 29 425.878 29C425.83 29 425.806 28.952 425.806 28.856C425.806 28.7601 425.83 28.7121 425.878 28.7121C426.374 28.7121 426.71 28.6001 426.886 28.3762C427.062 28.1362 427.15 27.6963 427.15 27.0565V22.5456C427.15 22.0497 427.086 21.6898 426.958 21.4659C426.846 21.2259 426.662 21.106 426.406 21.106C426.134 21.106 425.75 21.2179 425.254 21.4419H425.206C425.158 21.4419 425.118 21.4019 425.086 21.3219C425.07 21.2419 425.078 21.194 425.11 21.178L428.445 19.5464C428.541 19.5144 428.597 19.4984 428.613 19.4984C428.789 19.4984 428.957 19.6743 429.117 20.0262C429.277 20.3622 429.373 20.826 429.405 21.4179C430.509 20.1062 431.724 19.4504 433.052 19.4504C433.916 19.4504 434.596 19.7303 435.092 20.2902C435.603 20.834 435.859 21.5539 435.859 22.4496V27.0565C435.859 27.6963 435.947 28.1362 436.123 28.3762C436.315 28.6001 436.659 28.7121 437.155 28.7121ZM445.346 27.3204C445.41 27.3204 445.458 27.3524 445.49 27.4164C445.538 27.4804 445.538 27.5284 445.49 27.5604C444.898 28.1522 444.322 28.5921 443.762 28.88C443.202 29.152 442.61 29.2879 441.987 29.2879C441.283 29.2879 440.683 29.12 440.187 28.7841C439.691 28.4481 439.443 27.8803 439.443 27.0805V21.7538C439.443 21.2579 439.355 20.914 439.179 20.7221C439.003 20.5301 438.683 20.4341 438.22 20.4341C438.204 20.4341 438.18 20.4101 438.148 20.3622C438.132 20.3142 438.124 20.2662 438.124 20.2182C438.124 20.1542 438.132 20.1062 438.148 20.0742C438.164 20.0262 438.188 20.0022 438.22 20.0022C439.035 19.9703 439.691 19.7943 440.187 19.4744C440.699 19.1545 441.091 18.6666 441.363 18.0107C441.395 17.9468 441.459 17.9148 441.555 17.9148C441.667 17.9148 441.723 17.9468 441.723 18.0107V19.9303C442.65 19.9143 443.69 19.8423 444.842 19.7143C444.874 19.7143 444.906 19.7783 444.938 19.9063C444.986 20.0182 445.01 20.1462 445.01 20.2902C445.01 20.4501 444.978 20.6101 444.914 20.7701C444.866 20.914 444.81 20.978 444.746 20.962C443.706 20.7381 442.698 20.6181 441.723 20.6021V26.2887C441.723 26.8965 441.875 27.3444 442.179 27.6323C442.498 27.9203 442.914 28.0642 443.426 28.0642C444.066 28.0642 444.69 27.8243 445.298 27.3444L445.346 27.3204ZM451.319 29.3119C450.327 29.3119 449.455 29.088 448.703 28.6401C447.968 28.1762 447.4 27.5604 447 26.7926C446.6 26.0087 446.4 25.161 446.4 24.2492C446.4 23.2094 446.664 22.3297 447.192 21.6098C447.72 20.874 448.392 20.3302 449.207 19.9783C450.023 19.6103 450.863 19.4264 451.727 19.4264C452.718 19.4264 453.582 19.6583 454.318 20.1222C455.054 20.5861 455.614 21.2019 455.998 21.9698C456.398 22.7216 456.597 23.5294 456.597 24.3932C456.597 25.3529 456.358 26.2087 455.878 26.9605C455.398 27.6963 454.75 28.2722 453.934 28.6881C453.134 29.104 452.263 29.3119 451.319 29.3119ZM452.039 28.808C452.662 28.808 453.134 28.5041 453.454 27.8963C453.79 27.2724 453.958 26.3847 453.958 25.2329C453.958 24.1132 453.814 23.1535 453.526 22.3537C453.238 21.5539 452.862 20.954 452.399 20.5541C451.935 20.1382 451.439 19.9303 450.911 19.9303C449.631 19.9303 448.991 21.074 448.991 23.3614C448.991 24.4331 449.127 25.3849 449.399 26.2167C449.671 27.0325 450.039 27.6723 450.503 28.1362C450.967 28.5841 451.479 28.808 452.039 28.808ZM299.069 69.4404C299.117 69.4404 299.157 69.4804 299.189 69.5604C299.237 69.6403 299.245 69.6883 299.213 69.7043L295.902 71.3119L295.782 71.3359C295.638 71.3359 295.502 71.184 295.374 70.88C295.262 70.5761 295.19 70.1602 295.158 69.6323C293.974 70.7521 292.767 71.3119 291.535 71.3119C290.831 71.3119 290.191 71.128 289.615 70.7601C289.055 70.3922 288.608 69.8563 288.272 69.1525C287.936 68.4326 287.768 67.5929 287.768 66.6331C287.768 65.4174 288.048 64.4256 288.608 63.6578C289.183 62.874 289.887 62.3062 290.719 61.9543C291.567 61.6023 292.415 61.4264 293.262 61.4264C293.854 61.4264 294.478 61.5224 295.134 61.7143V56.8675C295.134 56.3077 295.078 55.9078 294.966 55.6678C294.87 55.4279 294.694 55.3079 294.438 55.3079C294.23 55.3079 293.934 55.3959 293.55 55.5719H293.526C293.462 55.5719 293.406 55.5319 293.358 55.4519C293.326 55.3559 293.326 55.2999 293.358 55.2839L296.886 53.6283L296.982 53.6043C297.061 53.6043 297.149 53.6443 297.245 53.7243C297.341 53.7883 297.389 53.8523 297.389 53.9163V68.2167C297.389 68.7606 297.437 69.1445 297.533 69.3684C297.645 69.5924 297.821 69.7043 298.061 69.7043C298.269 69.7043 298.597 69.6163 299.045 69.4404H299.069ZM292.855 70.1602C293.654 70.1602 294.414 69.8243 295.134 69.1525V69.0325V63.2019C294.846 62.802 294.518 62.5141 294.15 62.3382C293.798 62.1462 293.382 62.0502 292.903 62.0502C292.039 62.0502 291.375 62.3542 290.911 62.962C290.463 63.5539 290.239 64.5216 290.239 65.8653C290.239 67.2089 290.479 68.2647 290.959 69.0325C291.439 69.7843 292.071 70.1602 292.855 70.1602ZM308.541 69.4164C308.573 69.4164 308.605 69.4484 308.637 69.5124C308.685 69.5764 308.693 69.6243 308.661 69.6563C308.069 70.2322 307.469 70.6481 306.861 70.904C306.254 71.16 305.59 71.2879 304.87 71.2879C303.862 71.2879 302.99 71.08 302.255 70.6641C301.519 70.2322 300.959 69.6643 300.575 68.9605C300.191 68.2407 299.999 67.4649 299.999 66.6331C299.999 65.7053 300.231 64.8495 300.695 64.0657C301.159 63.2819 301.799 62.6661 302.614 62.2182C303.446 61.7543 304.382 61.5224 305.422 61.5224C306.414 61.5224 307.181 61.7463 307.725 62.1942C308.269 62.6421 308.541 63.3379 308.541 64.2817C308.541 64.7776 308.453 65.0255 308.277 65.0255L302.447 65.0495C302.431 65.1615 302.423 65.3454 302.423 65.6013C302.423 67.009 302.742 68.1127 303.382 68.9125C304.038 69.7123 304.974 70.1122 306.19 70.1122C306.621 70.1122 306.989 70.0642 307.293 69.9683C307.597 69.8723 307.997 69.6963 308.493 69.4404L308.541 69.4164ZM304.51 62.0022C303.982 62.0022 303.542 62.2342 303.19 62.6981C302.838 63.146 302.606 63.7698 302.495 64.5696L305.974 64.5216C305.958 63.7058 305.838 63.082 305.614 62.6501C305.39 62.2182 305.022 62.0022 304.51 62.0022ZM327.472 70.7121C327.535 70.7121 327.567 70.7601 327.567 70.856C327.567 70.952 327.535 71 327.472 71C327.056 71 326.728 70.992 326.488 70.976L325.048 70.952L323.656 70.976C323.401 70.992 323.065 71 322.649 71C322.601 71 322.577 70.952 322.577 70.856C322.577 70.7601 322.601 70.7121 322.649 70.7121C323.145 70.7121 323.481 70.6001 323.656 70.3762C323.848 70.1362 323.944 69.6963 323.944 69.0565V65.6013C323.944 64.7376 323.792 64.0977 323.489 63.6818C323.201 63.2659 322.753 63.058 322.145 63.058C321.729 63.058 321.321 63.146 320.921 63.3219C320.521 63.4979 320.177 63.7378 319.889 64.0417V64.1857V69.0565C319.889 69.6963 319.977 70.1362 320.153 70.3762C320.345 70.6001 320.689 70.7121 321.185 70.7121C321.249 70.7121 321.281 70.7601 321.281 70.856C321.281 70.952 321.249 71 321.185 71C320.769 71 320.441 70.992 320.201 70.976L318.762 70.952L317.37 70.976C317.114 70.992 316.778 71 316.362 71C316.314 71 316.29 70.952 316.29 70.856C316.29 70.7601 316.314 70.7121 316.362 70.7121C316.858 70.7121 317.194 70.6001 317.37 70.3762C317.562 70.1362 317.658 69.6963 317.658 69.0565V65.6013C317.658 64.7376 317.506 64.0977 317.202 63.6818C316.914 63.2659 316.466 63.058 315.858 63.058C315.475 63.058 315.091 63.138 314.707 63.2979C314.339 63.4419 314.011 63.6498 313.723 63.9218V69.0565C313.723 69.6963 313.811 70.1362 313.987 70.3762C314.179 70.6001 314.523 70.7121 315.019 70.7121C315.067 70.7121 315.091 70.7601 315.091 70.856C315.091 70.952 315.067 71 315.019 71C314.603 71 314.275 70.992 314.035 70.976L312.595 70.952L311.18 70.976C310.94 70.992 310.612 71 310.196 71C310.148 71 310.124 70.952 310.124 70.856C310.124 70.7601 310.148 70.7121 310.196 70.7121C310.692 70.7121 311.028 70.6001 311.204 70.3762C311.38 70.1362 311.468 69.6963 311.468 69.0565V64.5456C311.468 64.0497 311.404 63.6898 311.276 63.4659C311.164 63.2259 310.98 63.106 310.724 63.106C310.452 63.106 310.068 63.2179 309.572 63.4419H309.524C309.476 63.4419 309.436 63.4019 309.404 63.3219C309.388 63.2419 309.396 63.194 309.428 63.178L312.763 61.5464C312.859 61.5144 312.915 61.4984 312.931 61.4984C313.107 61.4984 313.275 61.6743 313.435 62.0262C313.595 62.3622 313.691 62.818 313.723 63.3939C314.811 62.0982 315.978 61.4504 317.226 61.4504C317.978 61.4504 318.578 61.6343 319.026 62.0022C319.474 62.3702 319.745 62.898 319.841 63.5859C320.945 62.1622 322.169 61.4504 323.512 61.4504C324.376 61.4504 325.032 61.6983 325.48 62.1942C325.944 62.6901 326.176 63.4419 326.176 64.4496V69.0565C326.176 69.6963 326.264 70.1362 326.44 70.3762C326.632 70.6001 326.976 70.7121 327.472 70.7121ZM337.965 69.7043C338.029 69.7043 338.069 69.7443 338.085 69.8243C338.117 69.8883 338.101 69.9363 338.037 69.9683L335.566 71.144C335.502 71.176 335.422 71.192 335.326 71.192C335.07 71.192 334.822 71.056 334.582 70.7841C334.358 70.5121 334.198 70.1442 334.102 69.6803L333.07 70.4002C332.702 70.6721 332.359 70.872 332.039 71C331.719 71.112 331.359 71.168 330.959 71.168C330.271 71.168 329.751 71.016 329.399 70.7121C329.047 70.4081 328.871 69.9843 328.871 69.4404C328.871 69.0085 328.975 68.6646 329.183 68.4086C329.391 68.1367 329.647 67.9288 329.951 67.7848C330.271 67.6248 330.711 67.4489 331.271 67.2569L331.871 67.041L334.03 66.2492V64.8815C334.03 63.8578 333.942 63.114 333.766 62.6501C333.606 62.1862 333.326 61.9543 332.926 61.9543C332.079 61.9543 331.599 62.6101 331.487 63.9218C331.439 64.4016 331.295 64.7456 331.055 64.9535C330.831 65.1615 330.511 65.2654 330.095 65.2654C329.695 65.2654 329.399 65.1855 329.207 65.0255C329.031 64.8495 328.943 64.6256 328.943 64.3537C328.943 63.8738 329.223 63.4179 329.783 62.986C330.343 62.5381 331.015 62.1782 331.799 61.9063C332.598 61.6343 333.302 61.4984 333.91 61.4984C334.614 61.4984 335.182 61.7223 335.614 62.1702C336.062 62.6021 336.286 63.2659 336.286 64.1617V68.4086C336.286 68.8725 336.366 69.2324 336.525 69.4884C336.701 69.7443 336.941 69.8723 337.245 69.8723C337.469 69.8723 337.701 69.8163 337.941 69.7043H337.965ZM334.054 69.2724C334.038 69.2084 334.03 69.1045 334.03 68.9605V66.6571L332.998 67.137C332.95 67.153 332.79 67.2169 332.518 67.3289C332.247 67.4249 332.007 67.5929 331.799 67.8328C331.607 68.0727 331.511 68.3527 331.511 68.6726C331.511 69.0565 331.631 69.3604 331.871 69.5844C332.127 69.7923 332.415 69.8963 332.734 69.8963C332.99 69.8963 333.254 69.8083 333.526 69.6323L334.054 69.2724ZM340.842 62.89C340.842 63.3539 341.002 63.7538 341.322 64.0897C341.658 64.4256 342.138 64.7776 342.761 65.1455C343.369 65.4974 343.817 65.7773 344.105 65.9853C344.409 66.1772 344.681 66.4571 344.921 66.825C345.161 67.177 345.281 67.6088 345.281 68.1207C345.281 68.6646 345.145 69.1765 344.873 69.6563C344.601 70.1362 344.193 70.5281 343.649 70.832C343.105 71.12 342.458 71.2639 341.706 71.2639C340.826 71.2639 339.994 71.048 339.21 70.6161C339.114 70.5201 339.066 70.4241 339.066 70.3282L339.018 67.9528C339.018 67.9048 339.058 67.8808 339.138 67.8808C339.234 67.8648 339.29 67.8728 339.306 67.9048C339.562 68.7046 339.986 69.3844 340.578 69.9443C341.17 70.5041 341.77 70.7841 342.378 70.7841C342.714 70.7841 342.977 70.6801 343.169 70.4721C343.377 70.2642 343.481 69.9603 343.481 69.5604C343.481 68.9685 343.313 68.5046 342.977 68.1687C342.642 67.8168 342.146 67.4569 341.49 67.089C340.93 66.7851 340.506 66.5371 340.218 66.3452C339.93 66.1532 339.674 65.8813 339.45 65.5294C339.226 65.1775 339.114 64.7456 339.114 64.2337C339.114 63.2899 339.45 62.6021 340.122 62.1702C340.794 61.7223 341.618 61.4984 342.594 61.4984C342.961 61.4984 343.289 61.5224 343.577 61.5704C343.881 61.6183 344.217 61.7143 344.585 61.8583C344.729 61.9063 344.801 61.9943 344.801 62.1222C344.801 62.5221 344.793 62.834 344.777 63.058L344.753 64.2577C344.753 64.3057 344.705 64.3297 344.609 64.3297C344.513 64.3297 344.465 64.3057 344.465 64.2577C344.465 63.9538 344.337 63.6258 344.081 63.2739C343.825 62.906 343.489 62.5941 343.073 62.3382C342.674 62.0822 342.258 61.9543 341.826 61.9543C341.17 61.9543 340.842 62.2662 340.842 62.89ZM349.334 59.123C348.87 59.123 348.51 58.995 348.254 58.7391C347.998 58.4831 347.87 58.1232 347.87 57.6593C347.87 57.2434 347.998 56.9155 348.254 56.6756C348.526 56.4196 348.886 56.2917 349.334 56.2917C349.782 56.2917 350.126 56.4116 350.366 56.6516C350.605 56.8915 350.725 57.2274 350.725 57.6593C350.725 58.1232 350.605 58.4831 350.366 58.7391C350.126 58.995 349.782 59.123 349.334 59.123ZM347.03 71C346.982 71 346.958 70.952 346.958 70.856C346.958 70.7601 346.982 70.7121 347.03 70.7121C347.526 70.7121 347.862 70.6001 348.038 70.3762C348.214 70.1362 348.302 69.6963 348.302 69.0565V64.7616C348.302 64.2177 348.246 63.8258 348.134 63.5859C348.022 63.3459 347.838 63.2259 347.582 63.2259C347.374 63.2259 347.078 63.3139 346.694 63.4899H346.67C346.606 63.4899 346.558 63.4499 346.526 63.3699C346.494 63.2739 346.502 63.2179 346.55 63.2019L350.174 61.5224L350.246 61.4984C350.326 61.4984 350.406 61.5384 350.485 61.6183C350.565 61.6983 350.605 61.7703 350.605 61.8343V62.3622C350.573 63.002 350.557 63.7858 350.557 64.7136V69.0565C350.557 69.6963 350.645 70.1362 350.821 70.3762C351.013 70.6001 351.357 70.7121 351.853 70.7121C351.901 70.7121 351.925 70.7601 351.925 70.856C351.925 70.952 351.901 71 351.853 71C351.437 71 351.109 70.992 350.869 70.976L349.43 70.952L348.014 70.976C347.774 70.992 347.446 71 347.03 71ZM362.451 69.7043C362.515 69.7043 362.555 69.7443 362.571 69.8243C362.603 69.8883 362.587 69.9363 362.523 69.9683L360.052 71.144C359.988 71.176 359.908 71.192 359.812 71.192C359.556 71.192 359.308 71.056 359.068 70.7841C358.844 70.5121 358.684 70.1442 358.588 69.6803L357.556 70.4002C357.189 70.6721 356.845 70.872 356.525 71C356.205 71.112 355.845 71.168 355.445 71.168C354.757 71.168 354.237 71.016 353.885 70.7121C353.533 70.4081 353.357 69.9843 353.357 69.4404C353.357 69.0085 353.461 68.6646 353.669 68.4086C353.877 68.1367 354.133 67.9288 354.437 67.7848C354.757 67.6248 355.197 67.4489 355.757 67.2569L356.357 67.041L358.516 66.2492V64.8815C358.516 63.8578 358.428 63.114 358.252 62.6501C358.092 62.1862 357.812 61.9543 357.412 61.9543C356.565 61.9543 356.085 62.6101 355.973 63.9218C355.925 64.4016 355.781 64.7456 355.541 64.9535C355.317 65.1615 354.997 65.2654 354.581 65.2654C354.181 65.2654 353.885 65.1855 353.693 65.0255C353.517 64.8495 353.429 64.6256 353.429 64.3537C353.429 63.8738 353.709 63.4179 354.269 62.986C354.829 62.5381 355.501 62.1782 356.285 61.9063C357.085 61.6343 357.788 61.4984 358.396 61.4984C359.1 61.4984 359.668 61.7223 360.1 62.1702C360.548 62.6021 360.772 63.2659 360.772 64.1617V68.4086C360.772 68.8725 360.852 69.2324 361.012 69.4884C361.188 69.7443 361.427 69.8723 361.731 69.8723C361.955 69.8723 362.187 69.8163 362.427 69.7043H362.451ZM358.54 69.2724C358.524 69.2084 358.516 69.1045 358.516 68.9605V66.6571L357.484 67.137C357.436 67.153 357.276 67.2169 357.005 67.3289C356.733 67.4249 356.493 67.5929 356.285 67.8328C356.093 68.0727 355.997 68.3527 355.997 68.6726C355.997 69.0565 356.117 69.3604 356.357 69.5844C356.613 69.7923 356.901 69.8963 357.22 69.8963C357.476 69.8963 357.74 69.8083 358.012 69.6323L358.54 69.2724ZM374.566 69.4404C374.614 69.4404 374.654 69.4804 374.686 69.5604C374.734 69.6403 374.742 69.6883 374.71 69.7043L371.399 71.3119L371.279 71.3359C371.135 71.3359 370.999 71.184 370.871 70.88C370.759 70.5761 370.687 70.1602 370.655 69.6323C369.471 70.7521 368.263 71.3119 367.032 71.3119C366.328 71.3119 365.688 71.128 365.112 70.7601C364.552 70.3922 364.104 69.8563 363.768 69.1525C363.433 68.4326 363.265 67.5929 363.265 66.6331C363.265 65.4174 363.544 64.4256 364.104 63.6578C364.68 62.874 365.384 62.3062 366.216 61.9543C367.064 61.6023 367.911 61.4264 368.759 61.4264C369.351 61.4264 369.975 61.5224 370.631 61.7143V56.8675C370.631 56.3077 370.575 55.9078 370.463 55.6678C370.367 55.4279 370.191 55.3079 369.935 55.3079C369.727 55.3079 369.431 55.3959 369.047 55.5719H369.023C368.959 55.5719 368.903 55.5319 368.855 55.4519C368.823 55.3559 368.823 55.2999 368.855 55.2839L372.382 53.6283L372.478 53.6043C372.558 53.6043 372.646 53.6443 372.742 53.7243C372.838 53.7883 372.886 53.8523 372.886 53.9163V68.2167C372.886 68.7606 372.934 69.1445 373.03 69.3684C373.142 69.5924 373.318 69.7043 373.558 69.7043C373.766 69.7043 374.094 69.6163 374.542 69.4404H374.566ZM368.351 70.1602C369.151 70.1602 369.911 69.8243 370.631 69.1525V69.0325V63.2019C370.343 62.802 370.015 62.5141 369.647 62.3382C369.295 62.1462 368.879 62.0502 368.399 62.0502C367.535 62.0502 366.872 62.3542 366.408 62.962C365.96 63.5539 365.736 64.5216 365.736 65.8653C365.736 67.2089 365.976 68.2647 366.456 69.0325C366.936 69.7843 367.567 70.1602 368.351 70.1602ZM380.415 71.3119C379.423 71.3119 378.551 71.088 377.799 70.6401C377.063 70.1762 376.496 69.5604 376.096 68.7926C375.696 68.0087 375.496 67.161 375.496 66.2492C375.496 65.2094 375.76 64.3297 376.288 63.6098C376.816 62.874 377.487 62.3302 378.303 61.9783C379.119 61.6103 379.959 61.4264 380.823 61.4264C381.814 61.4264 382.678 61.6583 383.414 62.1222C384.15 62.5861 384.71 63.2019 385.093 63.9698C385.493 64.7216 385.693 65.5294 385.693 66.3932C385.693 67.3529 385.453 68.2087 384.973 68.9605C384.494 69.6963 383.846 70.2722 383.03 70.6881C382.23 71.104 381.358 71.3119 380.415 71.3119ZM381.134 70.808C381.758 70.808 382.23 70.5041 382.55 69.8963C382.886 69.2724 383.054 68.3847 383.054 67.2329C383.054 66.1132 382.91 65.1535 382.622 64.3537C382.334 63.5539 381.958 62.954 381.494 62.5541C381.03 62.1382 380.535 61.9303 380.007 61.9303C378.727 61.9303 378.087 63.074 378.087 65.3614C378.087 66.4331 378.223 67.3849 378.495 68.2167C378.767 69.0325 379.135 69.6723 379.599 70.1362C380.063 70.5841 380.575 70.808 381.134 70.808ZM399.865 69.3204C399.929 69.3204 399.977 69.3524 400.009 69.4164C400.057 69.4804 400.057 69.5284 400.009 69.5604C399.417 70.1522 398.841 70.5921 398.281 70.88C397.721 71.152 397.13 71.2879 396.506 71.2879C395.802 71.2879 395.202 71.12 394.706 70.7841C394.21 70.4481 393.962 69.8803 393.962 69.0805V63.7538C393.962 63.2579 393.874 62.914 393.699 62.7221C393.523 62.5301 393.203 62.4341 392.739 62.4341C392.723 62.4341 392.699 62.4101 392.667 62.3622C392.651 62.3142 392.643 62.2662 392.643 62.2182C392.643 62.1542 392.651 62.1062 392.667 62.0742C392.683 62.0262 392.707 62.0022 392.739 62.0022C393.555 61.9703 394.21 61.7943 394.706 61.4744C395.218 61.1545 395.61 60.6666 395.882 60.0107C395.914 59.9468 395.978 59.9148 396.074 59.9148C396.186 59.9148 396.242 59.9468 396.242 60.0107V61.9303C397.17 61.9143 398.209 61.8423 399.361 61.7143C399.393 61.7143 399.425 61.7783 399.457 61.9063C399.505 62.0182 399.529 62.1462 399.529 62.2902C399.529 62.4501 399.497 62.6101 399.433 62.7701C399.385 62.914 399.329 62.978 399.265 62.962C398.225 62.7381 397.218 62.6181 396.242 62.6021V68.2887C396.242 68.8965 396.394 69.3444 396.698 69.6323C397.018 69.9203 397.434 70.0642 397.945 70.0642C398.585 70.0642 399.209 69.8243 399.817 69.3444L399.865 69.3204ZM410.205 69.7043C410.269 69.7043 410.309 69.7443 410.325 69.8243C410.357 69.8883 410.341 69.9363 410.277 69.9683L407.805 71.144C407.741 71.176 407.662 71.192 407.566 71.192C407.31 71.192 407.062 71.056 406.822 70.7841C406.598 70.5121 406.438 70.1442 406.342 69.6803L405.31 70.4002C404.942 70.6721 404.598 70.872 404.278 71C403.958 71.112 403.599 71.168 403.199 71.168C402.511 71.168 401.991 71.016 401.639 70.7121C401.287 70.4081 401.111 69.9843 401.111 69.4404C401.111 69.0085 401.215 68.6646 401.423 68.4086C401.631 68.1367 401.887 67.9288 402.191 67.7848C402.511 67.6248 402.951 67.4489 403.511 67.2569L404.11 67.041L406.27 66.2492V64.8815C406.27 63.8578 406.182 63.114 406.006 62.6501C405.846 62.1862 405.566 61.9543 405.166 61.9543C404.318 61.9543 403.838 62.6101 403.726 63.9218C403.679 64.4016 403.535 64.7456 403.295 64.9535C403.071 65.1615 402.751 65.2654 402.335 65.2654C401.935 65.2654 401.639 65.1855 401.447 65.0255C401.271 64.8495 401.183 64.6256 401.183 64.3537C401.183 63.8738 401.463 63.4179 402.023 62.986C402.583 62.5381 403.255 62.1782 404.038 61.9063C404.838 61.6343 405.542 61.4984 406.15 61.4984C406.854 61.4984 407.422 61.7223 407.853 62.1702C408.301 62.6021 408.525 63.2659 408.525 64.1617V68.4086C408.525 68.8725 408.605 69.2324 408.765 69.4884C408.941 69.7443 409.181 69.8723 409.485 69.8723C409.709 69.8723 409.941 69.8163 410.181 69.7043H410.205ZM406.294 69.2724C406.278 69.2084 406.27 69.1045 406.27 68.9605V66.6571L405.238 67.137C405.19 67.153 405.03 67.2169 404.758 67.3289C404.486 67.4249 404.246 67.5929 404.038 67.8328C403.846 68.0727 403.75 68.3527 403.75 68.6726C403.75 69.0565 403.87 69.3604 404.11 69.5844C404.366 69.7923 404.654 69.8963 404.974 69.8963C405.23 69.8963 405.494 69.8083 405.766 69.6323L406.294 69.2724ZM417.425 61.4984C417.793 61.4984 418.144 61.6343 418.48 61.9063C418.832 62.1622 419.008 62.4741 419.008 62.842C419.008 63.178 418.904 63.4579 418.696 63.6818C418.488 63.8898 418.216 63.9938 417.881 63.9938C417.641 63.9938 417.441 63.9458 417.281 63.8498C417.137 63.7538 416.985 63.6098 416.825 63.4179C416.681 63.2579 416.553 63.146 416.441 63.082C416.345 63.002 416.225 62.962 416.081 62.962C415.921 62.962 415.745 63.026 415.553 63.154C415.377 63.2659 415.097 63.5139 414.713 63.8978V69.0565C414.713 69.6963 414.865 70.1362 415.169 70.3762C415.473 70.6001 416.033 70.7121 416.849 70.7121C416.913 70.7121 416.945 70.7601 416.945 70.856C416.945 70.952 416.913 71 416.849 71C416.289 71 415.849 70.992 415.529 70.976L413.586 70.952L412.17 70.976C411.93 70.992 411.602 71 411.186 71C411.138 71 411.114 70.952 411.114 70.856C411.114 70.7601 411.138 70.7121 411.186 70.7121C411.682 70.7121 412.018 70.6001 412.194 70.3762C412.37 70.1362 412.458 69.6963 412.458 69.0565V64.5456C412.458 64.0497 412.394 63.6898 412.266 63.4659C412.154 63.2259 411.97 63.106 411.714 63.106C411.442 63.106 411.058 63.2179 410.562 63.4419H410.514C410.466 63.4419 410.426 63.4019 410.394 63.3219C410.378 63.2419 410.386 63.194 410.418 63.178L413.754 61.5464C413.85 61.5144 413.906 61.4984 413.922 61.4984C414.097 61.4984 414.257 61.6663 414.401 62.0022C414.561 62.3222 414.657 62.7621 414.689 63.3219C415.345 62.6501 415.881 62.1782 416.297 61.9063C416.729 61.6343 417.105 61.4984 417.425 61.4984ZM431.13 69.4404C431.178 69.4404 431.218 69.4804 431.25 69.5604C431.298 69.6403 431.306 69.6883 431.274 69.7043L427.963 71.3119L427.843 71.3359C427.699 71.3359 427.563 71.184 427.435 70.88C427.323 70.5761 427.251 70.1602 427.219 69.6323C426.035 70.7521 424.827 71.3119 423.596 71.3119C422.892 71.3119 422.252 71.128 421.676 70.7601C421.116 70.3922 420.668 69.8563 420.332 69.1525C419.996 68.4326 419.829 67.5929 419.829 66.6331C419.829 65.4174 420.108 64.4256 420.668 63.6578C421.244 62.874 421.948 62.3062 422.78 61.9543C423.628 61.6023 424.475 61.4264 425.323 61.4264C425.915 61.4264 426.539 61.5224 427.195 61.7143V56.8675C427.195 56.3077 427.139 55.9078 427.027 55.6678C426.931 55.4279 426.755 55.3079 426.499 55.3079C426.291 55.3079 425.995 55.3959 425.611 55.5719H425.587C425.523 55.5719 425.467 55.5319 425.419 55.4519C425.387 55.3559 425.387 55.2999 425.419 55.2839L428.946 53.6283L429.042 53.6043C429.122 53.6043 429.21 53.6443 429.306 53.7243C429.402 53.7883 429.45 53.8523 429.45 53.9163V68.2167C429.45 68.7606 429.498 69.1445 429.594 69.3684C429.706 69.5924 429.882 69.7043 430.122 69.7043C430.33 69.7043 430.658 69.6163 431.106 69.4404H431.13ZM424.915 70.1602C425.715 70.1602 426.475 69.8243 427.195 69.1525V69.0325V63.2019C426.907 62.802 426.579 62.5141 426.211 62.3382C425.859 62.1462 425.443 62.0502 424.963 62.0502C424.099 62.0502 423.436 62.3542 422.972 62.962C422.524 63.5539 422.3 64.5216 422.3 65.8653C422.3 67.2089 422.54 68.2647 423.02 69.0325C423.5 69.7843 424.131 70.1602 424.915 70.1602ZM440.602 69.4164C440.634 69.4164 440.666 69.4484 440.698 69.5124C440.746 69.5764 440.754 69.6243 440.722 69.6563C440.13 70.2322 439.53 70.6481 438.922 70.904C438.314 71.16 437.65 71.2879 436.931 71.2879C435.923 71.2879 435.051 71.08 434.315 70.6641C433.579 70.2322 433.02 69.6643 432.636 68.9605C432.252 68.2407 432.06 67.4649 432.06 66.6331C432.06 65.7053 432.292 64.8495 432.756 64.0657C433.22 63.2819 433.859 62.6661 434.675 62.2182C435.507 61.7543 436.443 61.5224 437.482 61.5224C438.474 61.5224 439.242 61.7463 439.786 62.1942C440.33 62.6421 440.602 63.3379 440.602 64.2817C440.602 64.7776 440.514 65.0255 440.338 65.0255L434.507 65.0495C434.491 65.1615 434.483 65.3454 434.483 65.6013C434.483 67.009 434.803 68.1127 435.443 68.9125C436.099 69.7123 437.035 70.1122 438.25 70.1122C438.682 70.1122 439.05 70.0642 439.354 69.9683C439.658 69.8723 440.058 69.6963 440.554 69.4404L440.602 69.4164ZM436.571 62.0022C436.043 62.0022 435.603 62.2342 435.251 62.6981C434.899 63.146 434.667 63.7698 434.555 64.5696L438.034 64.5216C438.018 63.7058 437.898 63.082 437.674 62.6501C437.45 62.2182 437.083 62.0022 436.571 62.0022Z" fill="black"/>
</svg>
